<mxfile host="Electron" modified="2024-07-24T13:38:33.630Z" agent="Mozilla/5.0 (X11; Linux x86_64) AppleWebKit/537.36 (KHTML, like Gecko) draw.io/24.6.4 Chrome/124.0.6367.207 Electron/30.0.6 Safari/537.36" etag="hp2ec7Z7zq4tCF2_NwUb" version="24.6.4" type="device" pages="2">
  <diagram name="Processor" id="5DW0bSnk6fGqhxl-e7nO">
    <mxGraphModel dx="965" dy="1715" grid="1" gridSize="10" guides="1" tooltips="1" connect="1" arrows="1" fold="1" page="1" pageScale="1" pageWidth="850" pageHeight="1100" math="0" shadow="0">
      <root>
        <mxCell id="0" />
        <mxCell id="1" parent="0" />
        <mxCell id="Dq8sDCKAddYv-XCWIiku-42" value="" style="rounded=0;whiteSpace=wrap;html=1;dashed=1;" parent="1" vertex="1">
          <mxGeometry x="250" y="20" width="360" height="500" as="geometry" />
        </mxCell>
        <mxCell id="Dq8sDCKAddYv-XCWIiku-2" value="Nats Cluster" style="rounded=0;whiteSpace=wrap;html=1;fillColor=#dae8fc;strokeColor=#6c8ebf;" parent="1" vertex="1">
          <mxGeometry x="302" y="290" width="240" height="60" as="geometry" />
        </mxCell>
        <mxCell id="Dq8sDCKAddYv-XCWIiku-11" value="" style="editableCssRules=.*;html=1;shape=image;verticalLabelPosition=bottom;labelBackgroundColor=#ffffff;verticalAlign=top;aspect=fixed;imageAspect=0;image=data:image/svg+xml,PHN2ZyB4bWxucz0iaHR0cDovL3d3dy53My5vcmcvMjAwMC9zdmciIHhtbG5zOnY9Imh0dHBzOi8vdmVjdGEuaW8vbmFubyIgd2lkdGg9IjcwMi44NDYzMTM0NzY1NjI1IiBoZWlnaHQ9IjY4MS45NjcxMDIwNTA3ODEyIiB2aWV3Qm94PSIxMC4wMDEwMjYxNTM1NjQ0NTMgMTAuMDAwOTMzNjQ3MTU1NzYyIDcwMi44NDYzMTM0NzY1NjI1IDY4MS45NjcxMDIwNTA3ODEyIj4mI3hhOwk8c3R5bGUgdHlwZT0idGV4dC9jc3MiPiYjeGE7CS5zdDB7ZmlsbDojMzI2Y2U1O30mI3hhOwkuc3Qxe2ZpbGw6I2ZmZjt9JiN4YTsJPC9zdHlsZT4mI3hhOwk8cGF0aCBjbGFzcz0ic3QwIiBkPSJNMzU4Ljk4NyAxMC4wNmMtNi4yMTMuMzEzLTEyLjMwMSAxLjg1NC0xNy45MDYgNC41MzFMOTYuNzM3IDEzMS4zNDJjLTEyLjgxMSA2LjExOC0yMi4xMTYgMTcuNjg5LTI1LjI4MSAzMS40MzhsLTYwLjI4MSAyNjIuMjVjLTIuODEyIDEyLjIwNy0uNTI0IDI1LjAyNCA2LjM0NCAzNS41MzFhNDYuMzUgNDYuMzUgMCAwIDAgMi42NTYgMy42ODhsMTY5LjEyNSAyMTAuMjgxYzguODY4IDExLjAyMiAyMi4zMTMgMTcuNDQgMzYuNTMxIDE3LjQzOGwyNzEuMjE5LS4wNjJjMTQuMjEyLjAxIDI3LjY1Ny02LjM5NiAzNi41MzEtMTcuNDA2bDE2OS4wNjMtMjEwLjMxM2M4Ljg3My0xMS4wMjggMTIuMTk3LTI1LjQ2NCA5LjAzMS0zOS4yMTlsLTYwLjM3NS0yNjIuMjVjLTMuMTY1LTEzLjc0OC0xMi40Ny0yNS4zMTktMjUuMjgxLTMxLjQzN0wzODEuNjQzIDE0LjU5MmMtNy4wNS0zLjM2OC0xNC44NDEtNC45MjYtMjIuNjU2LTQuNTMxeiIvPiYjeGE7CTxwYXRoIGNsYXNzPSJzdDEgc3QyIiBkPSJNMzYxLjQwOCA5OS4zMDhjLTguMDc3LjAwMS0xNC42MjYgNy4yNzYtMTQuNjI1IDE2LjI1IDAgLjEzOC4wMjguMjY5LjAzMS40MDYtLjAxMiAxLjIxOS0uMDcxIDIuNjg4LS4wMzEgMy43NS4xOTMgNS4xNzYgMS4zMjEgOS4xMzcgMiAxMy45MDYgMS4yMyAxMC4yMDcgMi4yNjEgMTguNjY3IDEuNjI1IDI2LjUzMS0uNjE5IDIuOTY1LTIuODAzIDUuNjc3LTQuNzUgNy41NjNsLS4zNDQgNi4xODhjLTguNzc3LjcyNy0xNy42MTIgMi4wNTktMjYuNDM3IDQuMDYzLTM3Ljk3NSA4LjYyMi03MC42NyAyOC4xODMtOTUuNTYyIDU0LjU5NC0xLjYxNS0xLjEwMi00LjQ0MS0zLjEyOS01LjI4MS0zLjc1LTIuNjExLjM1My01LjI1IDEuMTU4LTguNjg3LS44NDQtNi41NDUtNC40MDYtMTIuNTA2LTEwLjQ4Ny0xOS43MTktMTcuODEyLTMuMzA1LTMuNTA0LTUuNjk4LTYuODQxLTkuNjI1LTEwLjIxOS0uODkyLS43NjctMi4yNTMtMS44MDUtMy4yNS0yLjU5NC0zLjA3LTIuNDQ4LTYuNjkxLTMuNzI0LTEwLjE4Ny0zLjg0NC00LjQ5Ni0uMTU0LTguODI0IDEuNjA0LTExLjY1NiA1LjE1Ni01LjAzNSA2LjMxNS0zLjQyMyAxNS45NjggMy41OTQgMjEuNTYzLjA3MS4wNTcuMTQ3LjEwMS4yMTkuMTU2Ljk2NC43ODIgMi4xNDUgMS43ODMgMy4wMzEgMi40MzggNC4xNjcgMy4wNzcgNy45NzMgNC42NTEgMTIuMTI1IDcuMDk0IDguNzQ3IDUuNDAyIDE1Ljk5OCA5Ljg4MSAyMS43NSAxNS4yODEgMi4yNDYgMi4zOTQgMi42MzkgNi42MTMgMi45MzggOC40MzhsNC42ODggNC4xODhjLTI1LjA5MyAzNy43NjQtMzYuNzA3IDg0LjQwOS0yOS44NDQgMTMxLjkzOGwtNi4xMjUgMS43ODFjLTEuNjE0IDIuMDg1LTMuODk1IDUuMzY1LTYuMjgxIDYuMzQ0LTcuNTI1IDIuMzctMTUuOTk0IDMuMjQxLTI2LjIxOSA0LjMxMy00LjguMzk5LTguOTQyLjE2MS0xNC4wMzEgMS4xMjUtMS4xMi4yMTItMi42ODEuNjE5LTMuOTA2LjkwNi0uMDQzLjAwOS0uMDgyLjAyMi0uMTI1LjAzMS0uMDY3LjAxNS0uMTU1LjA0OC0uMjE5LjA2My04LjYyIDIuMDgzLTE0LjE1OCAxMC4wMDYtMTIuMzc1IDE3LjgxM3MxMC4yMDMgMTIuNTU3IDE4Ljg3NSAxMC42ODhjLjA2My0uMDE0LjE1NC0uMDE3LjIxOS0uMDMxLjA5OC0uMDIyLjE4NC0uMDcuMjgxLS4wOTQgMS4yMDktLjI2NSAyLjcyNC0uNTYxIDMuNzgxLS44NDQgNS4wMDMtMS4zNCA4LjYyNy0zLjMwOCAxMy4xMjUtNS4wMzEgOS42NzctMy40NzEgMTcuNjkyLTYuMzcgMjUuNS03LjUgMy4yNjEtLjI1NSA2LjY5NyAyLjAxMiA4LjQwNiAyLjk2OWw2LjM3NS0xLjA5NGMxNC42NyA0NS40ODMgNDUuNDE0IDgyLjI0NSA4NC4zNDQgMTA1LjMxMmwtMi42NTYgNi4zNzVjLjk1NyAyLjQ3NSAyLjAxMyA1LjgyNSAxLjMgOC4yNjktMi44MzkgNy4zNjEtNy43MDEgMTUuMTMxLTEzLjIzOCAyMy43OTMtMi42ODEgNC4wMDItNS40MjUgNy4xMDgtNy44NDQgMTEuNjg4LS41NzkgMS4wOTYtMS4zMTYgMi43NzktMS44NzUgMy45MzgtMy43NTkgOC4wNDItMS4wMDIgMTcuMzA1IDYuMjE5IDIwLjc4MSA3LjI2NiAzLjQ5OCAxNi4yODQtLjE5MSAyMC4xODctOC4yNS4wMDYtLjAxMS4wMjYtLjAyLjAzMS0uMDMxcy0uMDA0LS4wMjMgMC0uMDMxYy41NTYtMS4xNDMgMS4zNDQtMi42NDQgMS44MTMtMy43MTkgMi4wNzItNC43NDcgMi43NjItOC44MTUgNC4yMTktMTMuNDA2IDMuODctOS43MiA1Ljk5Ni0xOS45MTkgMTEuMzIzLTI2LjI3NCAxLjQ1OS0xLjc0IDMuODM3LTIuNDA5IDYuMzAyLTMuMDdsMy4zMTMtNmMzMy45MzggMTMuMDI3IDcxLjkyNyAxNi41MjIgMTA5Ljg3NSA3LjkwNmExODkuNzcgMTg5Ljc3IDAgMCAwIDI1LjA5NC03LjU2MmwzLjEyNSA1LjYyNWMyLjUwNi44MTUgNS4yNCAxLjIzNiA3LjQ2OSA0LjUzMSAzLjk4NSA2LjgwOSA2LjcxMSAxNC44NjQgMTAuMDMxIDI0LjU5NCAxLjQ1NyA0LjU5MSAyLjE3OCA4LjY1OSA0LjI1IDEzLjQwNi40NzIgMS4wODIgMS4yNTYgMi42MDUgMS44MTMgMy43NSAzLjg5NSA4LjA4NSAxMi45NDIgMTEuNzg3IDIwLjIxOSA4LjI4MSA3LjIxOS0zLjQ3OCA5Ljk4LTEyLjc0IDYuMjE5LTIwLjc4MWwtMS45MDYtMy45MzdjLTIuNDE5LTQuNTgtNS4xNjMtNy42NTQtNy44NDQtMTEuNjU2LTUuNTM3LTguNjYyLTEwLjEzLTE1Ljg1OC0xMi45NjktMjMuMjE5LTEuMTg3LTMuNzk3LjItNi4xNTggMS4xMjUtOC42MjUtLjU1NC0uNjM1LTEuNzM5LTQuMjItMi40MzctNS45MDYgNDAuNDU3LTIzLjg4OCA3MC4yOTktNjIuMDIxIDg0LjMxMy0xMDYuMDYyIDEuODkyLjI5NyA1LjE4Mi44NzkgNi4yNSAxLjA5NCAyLjItMS40NTEgNC4yMjItMy4zNDQgOC4xODgtMy4wMzEgNy44MDggMS4xMjkgMTUuODIzIDQuMDMgMjUuNSA3LjUgNC40OTggMS43MjMgOC4xMjIgMy43MjMgMTMuMTI1IDUuMDYzIDEuMDU3LjI4MyAyLjU3Mi41NDcgMy43ODEuODEzLjA5Ny4wMjQuMTgzLjA3MS4yODEuMDk0LjA2NS4wMTUuMTU2LjAxNy4yMTkuMDMxIDguNjcyIDEuODY3IDE3LjA5NC0yLjg3OSAxOC44NzUtMTAuNjg3cy0zLjc1NC0xNS43MzItMTIuMzc1LTE3LjgxMmMtMS4yNTQtLjI4NS0zLjAzMi0uNzY5LTQuMjUtMS01LjA4OS0uOTY0LTkuMjMxLS43MjYtMTQuMDMxLTEuMTI1LTEwLjIyNS0xLjA3MS0xOC42OTMtMS45NDMtMjYuMjE5LTQuMzEyLTMuMDY4LTEuMTktNS4yNTEtNC44NDEtNi4zMTMtNi4zNDRsLTUuOTA2LTEuNzE5YzMuMDYyLTIyLjE1NCAyLjIzNy00NS4yMTEtMy4wNjItNjguMjgxLTUuMzQ4LTIzLjI4NS0xNC44LTQ0LjU4MS0yNy40MDYtNjMuMzQ0bDUuMTg4LTQuNjU2Yy4yMzctMi42MjQuMDMzLTUuMzc2IDIuNzUtOC4yODEgNS43NTEtNS40MDEgMTMuMDAzLTkuODc5IDIxLjc1LTE1LjI4MSA0LjE1Mi0yLjQ0MyA3Ljk5LTQuMDE3IDEyLjE1Ni03LjA5NC45NDItLjY5NiAyLjIyOS0xLjc5OCAzLjIxOS0yLjU5NCA3LjAxNS01LjU5NiA4LjYzMS0xNS4yNDggMy41OTQtMjEuNTYycy0xNC43OTctNi45MDktMjEuODEyLTEuMzEyYy0uOTk5Ljc5MS0yLjM1NCAxLjgyMy0zLjI1IDIuNTk0LTMuOTI3IDMuMzc4LTYuMzUxIDYuNzE0LTkuNjU2IDEwLjIxOS03LjIxMiA3LjMyNi0xMy4xNzQgMTMuNDM4LTE5LjcxOSAxNy44NDQtMi44MzYgMS42NTEtNi45OSAxLjA4LTguODc1Ljk2OWwtNS41NjIgMy45NjljLTMxLjcxOS0zMy4yNjEtNzQuOTA1LTU0LjUyNS0xMjEuNDA2LTU4LjY1NmwtLjM0NC02LjUzMWMtMS45MDQtMS44MjItNC4yMDMtMy4zNzctNC43ODEtNy4zMTItLjYzNi03Ljg2NC40MjYtMTYuMzI1IDEuNjU2LTI2LjUzMS42NzktNC43NjkgMS44MDctOC43MyAyLTEzLjkwNi4wNDQtMS4xNzctLjAyNi0yLjg4NC0uMDMxLTQuMTU2LS4wMDEtOC45NzQtNi41NDgtMTYuMjUxLTE0LjYyNS0xNi4yNXptLTE4LjMxMiAxMTMuNDM4bC00LjM0NCA3Ni43MTktLjMxMi4xNTZjLS4yOTEgNi44NjMtNS45NCAxMi4zNDQtMTIuODc1IDEyLjM0NGExMi44MiAxMi44MiAwIDAgMS03LjU5NC0yLjQ2OWwtLjEyNS4wNjMtNjIuOTA2LTQ0LjU5NGMxOS4zMzQtMTkuMDExIDQ0LjA2My0zMy4wNiA3Mi41NjItMzkuNTMxIDUuMjA2LTEuMTgyIDEwLjQxLTIuMDU5IDE1LjU5NC0yLjY4N3ptMzYuNjU2IDBjMzMuMjczIDQuMDkyIDY0LjA0NSAxOS4xNTkgODcuNjI1IDQyLjI1bC02Mi41IDQ0LjMxMy0uMjE5LS4wOTRhMTIuOTEgMTIuOTEgMCAwIDEtMTcuNjg3LTIuMzc1Yy0xLjc3MS0yLjIyMS0yLjcwMS00LjgzMi0yLjgxMi03LjQ2OWwtLjA2Mi0uMDMxek0yMzIuMTI2IDI4My42Mmw1Ny40MzcgNTEuMzc1LS4wNjIuMzEzYTEyLjg4IDEyLjg4IDAgMCAxIDEuNjI1IDE3Ljc1IDEyLjg5IDEyLjg5IDAgMCAxLTYuNjg3IDQuNDA2bC0uMDYyLjI1LTczLjYyNSAyMS4yNWMtMy43NDctMzQuMjY1IDQuMzI5LTY3LjU3NCAyMS4zNzUtOTUuMzQ0em0yNTguMTU2LjAzMWM4LjUzNCAxMy44MzMgMTQuOTk3IDI5LjI4MiAxOC44NDQgNDYuMDMxIDMuODAxIDE2LjU0OCA0Ljc1NSAzMy4wNjcgMy4xODggNDkuMDMxbC03NC0yMS4zMTItLjA2Mi0uMzEyYy02LjYyNy0xLjgxMS0xMC42OTktOC41NTItOS4xNTYtMTUuMzEyLjYzMi0yLjc3IDIuMTAyLTUuMTEzIDQuMDk0LTYuODQ0bC0uMDMxLS4xNTYgNTcuMTI1LTUxLjEyNXptLTE0MC42NTYgNTUuMzEzaDIzLjUzMWwxNC42MjUgMTguMjgxLTUuMjUgMjIuODEzLTIxLjEyNSAxMC4xNTYtMjEuMTg3LTEwLjE4Ny01LjI1LTIyLjgxMnptNzUuNDM4IDYyLjU2M2ExMi44MyAxMi44MyAwIDAgMSAyLjk2OS4yMTlsLjEyNS0uMTU2IDc2LjE1NiAxMi44NzVjLTExLjE0NiAzMS4zMTMtMzIuNDczIDU4LjQ0LTYwLjk2OSA3Ni41OTRsLTI5LjU2Mi03MS40MDYuMDk0LS4xMjVjLTIuNzE2LTYuMzEuMDAyLTEzLjcxIDYuMjUtMTYuNzE5IDEuNi0uNzcgMy4yNzEtMS4xOTcgNC45MzgtMS4yODF6bS0xMjcuOTA2LjMxM2ExMi45IDEyLjkgMCAwIDEgMTIuMzc1IDEwLjAzMSAxMi43NyAxMi43NyAwIDAgMS0uNzE5IDcuOTM4bC4yMTkuMjgxLTI5LjI1IDcwLjY4OGMtMjcuMzQ3LTE3LjU0OS00OS4xMjktNDMuODI0LTYwLjc4MS03Ni4wNjJsNzUuNS0xMi44MTIuMTI1LjE1NmMuODQ1LS4xNTUgMS43MDEtLjIzIDIuNTMxLS4yMTl6bTYzLjc4MSAzMC45NjljMi4wMjQtLjA3NCA0LjA3OS4zNDEgNi4wMzEgMS4yODEgMi41NiAxLjIzMyA0LjUzNyAzLjE3MyA1Ljc4MSA1LjVoLjI4MWwzNy4yMTkgNjcuMjVjLTQuODMgMS42MTktOS43OTYgMy4wMDMtMTQuODc1IDQuMTU2LTI4LjQ2NSA2LjQ2My01Ni44MzkgNC41MDUtODIuNTMxLTQuMjVsMzcuMTI1LTY3LjEyNWguMDYzYTEyLjkxIDEyLjkxIDAgMCAxIDEwLjkwNi02LjgxMnoiIHN0cm9rZT0ibm9uZSIgc3Ryb2tlLXdpZHRoPSIuMjUiLz4mI3hhOzwvc3ZnPg==;fontColor=default;" parent="1" vertex="1">
          <mxGeometry x="584" width="40" height="38" as="geometry" />
        </mxCell>
        <mxCell id="Dq8sDCKAddYv-XCWIiku-17" value="" style="group" parent="1" vertex="1" connectable="0">
          <mxGeometry x="383" y="174" width="64" height="74" as="geometry" />
        </mxCell>
        <mxCell id="Dq8sDCKAddYv-XCWIiku-14" value="" style="aspect=fixed;sketch=0;html=1;dashed=0;whitespace=wrap;verticalLabelPosition=bottom;verticalAlign=top;fillColor=#2875E2;strokeColor=#ffffff;points=[[0.005,0.63,0],[0.1,0.2,0],[0.9,0.2,0],[0.5,0,0],[0.995,0.63,0],[0.72,0.99,0],[0.5,1,0],[0.28,0.99,0]];shape=mxgraph.kubernetes.icon2;prIcon=pod" parent="Dq8sDCKAddYv-XCWIiku-17" vertex="1">
          <mxGeometry width="50" height="48" as="geometry" />
        </mxCell>
        <mxCell id="Dq8sDCKAddYv-XCWIiku-15" value="" style="aspect=fixed;sketch=0;html=1;dashed=0;whitespace=wrap;verticalLabelPosition=bottom;verticalAlign=top;fillColor=#2875E2;strokeColor=#ffffff;points=[[0.005,0.63,0],[0.1,0.2,0],[0.9,0.2,0],[0.5,0,0],[0.995,0.63,0],[0.72,0.99,0],[0.5,1,0],[0.28,0.99,0]];shape=mxgraph.kubernetes.icon2;prIcon=pod" parent="Dq8sDCKAddYv-XCWIiku-17" vertex="1">
          <mxGeometry x="5" y="9" width="50" height="48" as="geometry" />
        </mxCell>
        <mxCell id="Dq8sDCKAddYv-XCWIiku-16" value="" style="aspect=fixed;sketch=0;html=1;dashed=0;whitespace=wrap;verticalLabelPosition=bottom;verticalAlign=top;fillColor=#2875E2;strokeColor=#ffffff;points=[[0.005,0.63,0],[0.1,0.2,0],[0.9,0.2,0],[0.5,0,0],[0.995,0.63,0],[0.72,0.99,0],[0.5,1,0],[0.28,0.99,0]];shape=mxgraph.kubernetes.icon2;prIcon=pod" parent="Dq8sDCKAddYv-XCWIiku-17" vertex="1">
          <mxGeometry x="10" y="19" width="50" height="48" as="geometry" />
        </mxCell>
        <mxCell id="Dq8sDCKAddYv-XCWIiku-3" value="" style="aspect=fixed;sketch=0;html=1;dashed=0;whitespace=wrap;verticalLabelPosition=bottom;verticalAlign=top;fillColor=#2875E2;strokeColor=#ffffff;points=[[0.005,0.63,0],[0.1,0.2,0],[0.9,0.2,0],[0.5,0,0],[0.995,0.63,0],[0.72,0.99,0],[0.5,1,0],[0.28,0.99,0]];shape=mxgraph.kubernetes.icon2;kubernetesLabel=1;prIcon=pod" parent="Dq8sDCKAddYv-XCWIiku-17" vertex="1">
          <mxGeometry x="14" y="26" width="50" height="48" as="geometry" />
        </mxCell>
        <mxCell id="Dq8sDCKAddYv-XCWIiku-19" value="" style="aspect=fixed;sketch=0;html=1;dashed=0;whitespace=wrap;verticalLabelPosition=bottom;verticalAlign=top;fillColor=#2875E2;strokeColor=#ffffff;points=[[0.005,0.63,0],[0.1,0.2,0],[0.9,0.2,0],[0.5,0,0],[0.995,0.63,0],[0.72,0.99,0],[0.5,1,0],[0.28,0.99,0]];shape=mxgraph.kubernetes.icon2;kubernetesLabel=1;prIcon=svc" parent="1" vertex="1">
          <mxGeometry x="383" y="99" width="50" height="48" as="geometry" />
        </mxCell>
        <mxCell id="Dq8sDCKAddYv-XCWIiku-22" style="edgeStyle=orthogonalEdgeStyle;rounded=0;orthogonalLoop=1;jettySize=auto;html=1;" parent="1" source="Dq8sDCKAddYv-XCWIiku-20" target="Dq8sDCKAddYv-XCWIiku-19" edge="1">
          <mxGeometry relative="1" as="geometry" />
        </mxCell>
        <mxCell id="Dq8sDCKAddYv-XCWIiku-20" value="" style="aspect=fixed;sketch=0;html=1;dashed=0;whitespace=wrap;verticalLabelPosition=bottom;verticalAlign=top;fillColor=#2875E2;strokeColor=#ffffff;points=[[0.005,0.63,0],[0.1,0.2,0],[0.9,0.2,0],[0.5,0,0],[0.995,0.63,0],[0.72,0.99,0],[0.5,1,0],[0.28,0.99,0]];shape=mxgraph.kubernetes.icon2;kubernetesLabel=1;prIcon=ing" parent="1" vertex="1">
          <mxGeometry x="383" y="24" width="50" height="48" as="geometry" />
        </mxCell>
        <mxCell id="Dq8sDCKAddYv-XCWIiku-21" style="edgeStyle=orthogonalEdgeStyle;rounded=0;orthogonalLoop=1;jettySize=auto;html=1;entryX=0.5;entryY=0;entryDx=0;entryDy=0;entryPerimeter=0;" parent="1" source="Dq8sDCKAddYv-XCWIiku-19" target="Dq8sDCKAddYv-XCWIiku-14" edge="1">
          <mxGeometry relative="1" as="geometry" />
        </mxCell>
        <mxCell id="Dq8sDCKAddYv-XCWIiku-25" style="edgeStyle=orthogonalEdgeStyle;rounded=0;orthogonalLoop=1;jettySize=auto;html=1;" parent="1" source="Dq8sDCKAddYv-XCWIiku-3" target="Dq8sDCKAddYv-XCWIiku-2" edge="1">
          <mxGeometry relative="1" as="geometry" />
        </mxCell>
        <mxCell id="Dq8sDCKAddYv-XCWIiku-31" value="" style="group;fontSize=11;" parent="1" vertex="1" connectable="0">
          <mxGeometry x="397" y="381" width="93" height="118" as="geometry" />
        </mxCell>
        <mxCell id="Dq8sDCKAddYv-XCWIiku-26" value="" style="aspect=fixed;sketch=0;html=1;dashed=0;whitespace=wrap;verticalLabelPosition=bottom;verticalAlign=top;fillColor=#2875E2;strokeColor=#ffffff;points=[[0.005,0.63,0],[0.1,0.2,0],[0.9,0.2,0],[0.5,0,0],[0.995,0.63,0],[0.72,0.99,0],[0.5,1,0],[0.28,0.99,0]];shape=mxgraph.kubernetes.icon2;prIcon=job" parent="Dq8sDCKAddYv-XCWIiku-31" vertex="1">
          <mxGeometry width="50" height="48" as="geometry" />
        </mxCell>
        <mxCell id="Dq8sDCKAddYv-XCWIiku-27" value="" style="aspect=fixed;sketch=0;html=1;dashed=0;whitespace=wrap;verticalLabelPosition=bottom;verticalAlign=top;fillColor=#2875E2;strokeColor=#ffffff;points=[[0.005,0.63,0],[0.1,0.2,0],[0.9,0.2,0],[0.5,0,0],[0.995,0.63,0],[0.72,0.99,0],[0.5,1,0],[0.28,0.99,0]];shape=mxgraph.kubernetes.icon2;prIcon=job" parent="Dq8sDCKAddYv-XCWIiku-31" vertex="1">
          <mxGeometry x="10" y="10" width="50" height="48" as="geometry" />
        </mxCell>
        <mxCell id="Dq8sDCKAddYv-XCWIiku-28" value="" style="aspect=fixed;sketch=0;html=1;dashed=0;whitespace=wrap;verticalLabelPosition=bottom;verticalAlign=top;fillColor=#2875E2;strokeColor=#ffffff;points=[[0.005,0.63,0],[0.1,0.2,0],[0.9,0.2,0],[0.5,0,0],[0.995,0.63,0],[0.72,0.99,0],[0.5,1,0],[0.28,0.99,0]];shape=mxgraph.kubernetes.icon2;prIcon=job" parent="Dq8sDCKAddYv-XCWIiku-31" vertex="1">
          <mxGeometry x="20" y="20" width="50" height="48" as="geometry" />
        </mxCell>
        <mxCell id="Dq8sDCKAddYv-XCWIiku-29" value="" style="aspect=fixed;sketch=0;html=1;dashed=0;whitespace=wrap;verticalLabelPosition=bottom;verticalAlign=top;fillColor=#2875E2;strokeColor=#ffffff;points=[[0.005,0.63,0],[0.1,0.2,0],[0.9,0.2,0],[0.5,0,0],[0.995,0.63,0],[0.72,0.99,0],[0.5,1,0],[0.28,0.99,0]];shape=mxgraph.kubernetes.icon2;prIcon=job" parent="Dq8sDCKAddYv-XCWIiku-31" vertex="1">
          <mxGeometry x="30" y="30" width="50" height="48" as="geometry" />
        </mxCell>
        <mxCell id="Dq8sDCKAddYv-XCWIiku-30" value="" style="aspect=fixed;sketch=0;html=1;dashed=0;whitespace=wrap;verticalLabelPosition=bottom;verticalAlign=top;fillColor=#2875E2;strokeColor=#ffffff;points=[[0.005,0.63,0],[0.1,0.2,0],[0.9,0.2,0],[0.5,0,0],[0.995,0.63,0],[0.72,0.99,0],[0.5,1,0],[0.28,0.99,0]];shape=mxgraph.kubernetes.icon2;kubernetesLabel=1;prIcon=job" parent="Dq8sDCKAddYv-XCWIiku-31" vertex="1">
          <mxGeometry x="38" y="40" width="50" height="48" as="geometry" />
        </mxCell>
        <mxCell id="Dq8sDCKAddYv-XCWIiku-34" value="Event Runners" style="text;html=1;align=center;verticalAlign=middle;whiteSpace=wrap;rounded=0;" parent="Dq8sDCKAddYv-XCWIiku-31" vertex="1">
          <mxGeometry x="33" y="88" width="60" height="30" as="geometry" />
        </mxCell>
        <mxCell id="Dq8sDCKAddYv-XCWIiku-32" style="edgeStyle=orthogonalEdgeStyle;rounded=0;orthogonalLoop=1;jettySize=auto;html=1;" parent="1" source="Dq8sDCKAddYv-XCWIiku-26" target="Dq8sDCKAddYv-XCWIiku-2" edge="1">
          <mxGeometry relative="1" as="geometry" />
        </mxCell>
        <mxCell id="Dq8sDCKAddYv-XCWIiku-35" value="" style="aspect=fixed;sketch=0;html=1;dashed=0;whitespace=wrap;verticalLabelPosition=bottom;verticalAlign=top;fillColor=#2875E2;strokeColor=#ffffff;points=[[0.005,0.63,0],[0.1,0.2,0],[0.9,0.2,0],[0.5,0,0],[0.995,0.63,0],[0.72,0.99,0],[0.5,1,0],[0.28,0.99,0]];shape=mxgraph.kubernetes.icon2;kubernetesLabel=1;prIcon=cm" parent="1" vertex="1">
          <mxGeometry x="496" y="203" width="43.75" height="42" as="geometry" />
        </mxCell>
        <mxCell id="Dq8sDCKAddYv-XCWIiku-36" style="edgeStyle=orthogonalEdgeStyle;rounded=0;orthogonalLoop=1;jettySize=auto;html=1;" parent="1" source="Dq8sDCKAddYv-XCWIiku-3" target="Dq8sDCKAddYv-XCWIiku-35" edge="1">
          <mxGeometry relative="1" as="geometry" />
        </mxCell>
        <mxCell id="Dq8sDCKAddYv-XCWIiku-37" value="" style="aspect=fixed;sketch=0;html=1;dashed=0;whitespace=wrap;verticalLabelPosition=bottom;verticalAlign=top;fillColor=#2875E2;strokeColor=#ffffff;points=[[0.005,0.63,0],[0.1,0.2,0],[0.9,0.2,0],[0.5,0,0],[0.995,0.63,0],[0.72,0.99,0],[0.5,1,0],[0.28,0.99,0]];shape=mxgraph.kubernetes.icon2;kubernetesLabel=1;prIcon=vol" parent="1" vertex="1">
          <mxGeometry x="531" y="424" width="43.75" height="42" as="geometry" />
        </mxCell>
        <mxCell id="Dq8sDCKAddYv-XCWIiku-38" style="edgeStyle=orthogonalEdgeStyle;rounded=0;orthogonalLoop=1;jettySize=auto;html=1;" parent="1" source="Dq8sDCKAddYv-XCWIiku-30" target="Dq8sDCKAddYv-XCWIiku-37" edge="1">
          <mxGeometry relative="1" as="geometry" />
        </mxCell>
        <mxCell id="Dq8sDCKAddYv-XCWIiku-39" value="Events&lt;div style=&quot;font-size: 9px;&quot;&gt;schemas&lt;/div&gt;" style="text;html=1;align=center;verticalAlign=middle;whiteSpace=wrap;rounded=0;fontSize=9;" parent="1" vertex="1">
          <mxGeometry x="490" y="242" width="54" height="30" as="geometry" />
        </mxCell>
        <mxCell id="Dq8sDCKAddYv-XCWIiku-40" value="WASM&amp;nbsp;&lt;div&gt;files&lt;/div&gt;" style="text;html=1;align=center;verticalAlign=middle;whiteSpace=wrap;rounded=0;fontSize=9;" parent="1" vertex="1">
          <mxGeometry x="524" y="464" width="60" height="30" as="geometry" />
        </mxCell>
        <mxCell id="Dq8sDCKAddYv-XCWIiku-41" value="" style="shape=image;verticalLabelPosition=bottom;labelBackgroundColor=default;verticalAlign=top;aspect=fixed;imageAspect=0;image=data:image/png,iVBORw0KGgoAAAANSUhEUgAAAI0AAACICAYAAADak2gWAAAAAXNSR0IArs4c6QAAAARnQU1BAACxjwv8YQUAAAAJcEhZcwAAGdYAABnWARjRyu0AADnkSURBVHhe7Z35sx3Hdd/PnZm7vw0bsRCESACEuFMUJZGiREuWbC2WrFhy5Dh2UqnkF1eqkvwJ+SW/piqVqlS5kqo4Xspl2ZYVO5Idqxxbiy1LtCxKJEWRoriJKwgSwMNb7j4z+XxPz9x3AT6QuA/k0yN0D3De9PT09HL62+ecnu6ZW8khm9GMpqCoOM5oRpdMlTxD01TMMp045/wrzysBVa6L+FOBXTEp5RWMNzXPJVC2Fc490mXg4uBvOEpKxbW3EI1bFhrhJ2WLy2uhh0OC8lqs1uYjUMDVHqlqREd5asNKxUa6yIU6CStdbomGllYzi0cjs5TI2nzI+Uok2jWydQ7II0NMeUIkLCki5aySIoLcxVAhPuKfRFGKo+yHnUyqu1oVh0Y49+EBtR9xtUZENaO/o8gG2dCGUeLxC1yJyhYGJHHimgTB8FeC4T6IZJXY+mViQPXWEM1WKbOkklgMV2CNL5ASJI1AKpkCEyxlzaHCeNJpBZntZLZMPU1AnTuCh1R6FNqi+Ax40GJLRrnFXG7Q9oQrAovjKx/SYlKsc9YkeZRmlsYVG5JkiHBqo9jqKec10gDLNjdVKdT1mgNsh5Pr32nriUrJCxYQBBiZJyEjQooJHEkGXMsFqCqscLg1BHYwUe+MeqopdDSktsA0Y0h8lmdWV5t7JCgVRIIGoqlJjA5y8yTQcKnFxYqQlwTQqOmVAXkRWMdOneW8AUsu5fFKJLVb407tQ1ZjjDhIIkwTKiWMSaWRlY8ZkUEaGT1Rejs7lUqsVKl5XYNC9aVtA3CgeBneFooi6khtEunt5q46qIrk06TMuWlvh3gHzVBSqjC4sOhqO5nGHE+R/hQ3y8cR6XilgwZxafA5CzwVaRqHiwCjv8HvK/9JtgFOymHnkkAzoLYCTYtw2Y9dWBjKudroZ7YQNYMgUjWeKw4a2jkJGpkeG5AA0LgERNyEtrJvnFqFX7A+OqrP/Un8VoCNOm8rHShnEF2b93H8u5jjdbQNjnGlj1xwCjPcReQTQANs0DIaWKIRJjwbT0l2JsnyDOh8adAWqsXrToP6uG8pyqJBv+6tNOyjt91l+9uLDJjIshpMW2MNjjxLc2XS4WROOWKOfIhJKJiqShyZJkx/9viL9kcPf9/O4mIPKng/URuhKeFOp+k7MEejRDUEka9aPDwHcJaZZSwjkg7aF+Ag5ZCrtAug4UQOo8oaviVAQx/SrwE0AMHrLvOEdeFajFa4trXHfuMTn7Vrl/ZbA0BlmKle2reFuCnQ4AmTcB0ASNPIhylBI2IG7v7gnzxx1n73oe/bK300TTwPcFogb6eDpmjElJSjivN4zarJukWD00jzJNrmNLMpFHgOa0DJfAOaCIEKI7HUsYOG2cfWit02ck0DQBICrQEgKTA+wF+R41tD+xxv77N/+wuftWPtA0yQKhicYIiDL+uOSxg5Djg12HljtEgVpxVmU5Wa9aOW9WCft0fxDme0pI5Mm6fjKm1tYqIaHpbKTnEEs2hUsLRJAEeKnDJUja6nHs/5jmf1KX2usOpexhPWUfHCgGAgB6R4SjXWJcTJUgW3zkGjVLriN6JmVACnGaAZARqZpiHCrGjSlQ/fGkyNp2K0RpzV4DqsmRFCy1J4hMYRp/7YIRFLDhz9Hlgqv7rjObcqzq24lmacq95Fe867FiY8Ne5pAILSiy0e7knVCjoedM3iEAI0uT8N8mgipZh8LuF2PEJIO5v1hFu82bXXYtqWJVaBI9oc2poCqBHAEJfpkJq4kJ4bLNLGDOWdzgJ3IrDQjngsJ/pZrP72NgsgEOn9wSDnIo8T6VzwcFPEURNHn4ABnAAYZaZQDHAQKP+CMK9Elp9CG3MtIciWI1AkIg7WPQDEhSvZEA4GXnG6d2ez2iigyJcJ7Q1tmaTz+px73KY5QIjLhz10UmTLzNprxEkFBcAMiRlaphFXqdsfPb5iv/Xgj+2FwZL1cIRjZvXhucUOJjVjY1xcMgki8oVqMbOn9GmLho9bLf8xYlrlop5mJMivjpwkLRFCZyouIJnWqTRz2MmEykjpOz17ajB7Esn96CdhKNRxjk+0r7J/97FfsRNzB20+Y9iQrIJvJ5JDDGltIYjX5ey3auwo1rHGTRV3CjUKZcMlWM2edjQzTQxMJ0/BcvqDYyhnNziHPtAKThFUyhANx4IVX6bhfCez6qn+lOJQ3UfMmoa0Z1TwhkNMenra2yx2ZDhoOAMWc5zVYfJA4+DoKZQzknKtd2qVs2KdeA7QpNbMusBJI6tU1zuZVU89/7x0juDE+qjvgfsv8gG02n0ea/AUvoDUfIx20VIC8va4ncxeX+oau/lVj6MiBKQQcl+nhiNcH+EMCySgSzIISOE8oCfACHB5ZLi9OHhQU0lpGvkyKnRE2qCNrkyWzyIfhqO3U3KRP6CnoeGBnsuqYG7hqLgynnt2NE/Ul38igabsd10fg6yIDjII5HEzmtE0NAPNjKamGWhmNDXNQDOjqWkGmhlNTTPQzGhqmoFmRlPTDDQzmppmoJnR1DQDzYymphloZjQ1bStotLIxjLTqbJbkfWtk6zY3OmftdMVa6ao10zV4lfCKxwVe43zdWqNuwR3n9mgdXiuuhzTNtAN3rZH24L5VM38TzFeT9DdsnEqtwlHEmaUVbQdVnZRGMWH3ntagtou0/qMFxCpcSyOrjyJrioeBG4Qv5PJ6C1Z6bRZTTpKt1pHUGi2e6jhJG6tNW6fKKO9TXEKAQvmvsrXSq79ZVvXXV+K4Z7/9dGr/7aFVS1d7JIusl1R8WX0aEmA69bYtxgPbtfqMXVMfWXXtlCWNOeuN9GZnlWIzC6vLodGpNei+WrFj0GsFa/VaHa+Fe+KiyOJq3QZpbj29txXX/C3TV7qpnW7uo56xNSuAIR1aNuhZFlUtbi1aJ0t8r7MEXc27Vs87VgfIAlYvmrMk6Vs0fAF+muvPW1JZQ0BdZATIfPuF3n4PVC5uqobTkgBT6WR207XX2/LJl22OtsTII6MRcRxbSieUYBCFBcXA2ryynmT2ZP+spXNVW68MLBqMrI0s4zTIR1sf/D02wlWtVpORdzcR2v6pPcJDBK63KwWp+a7Zjc2r7D989J/Z8aVDgDImMff7dXg7QaMNk2e7mV03H9nPHWnap+/cZXtUafLRS1piVUqCKPf3aBVe8YKIGi1S/GTXKE15lG451zd76OGX7GsPPmrPNg9Yr9q0fNAFj7k1G03Kq9tyhzbW2ghMDc4BRc9qWQCOANmNWtsGGmmXj976fvvIOz5Arqntspa/oBcGRmjXZPtVQimDM91l+9oP7rfP3/81W04GACdByzLMtK2BGwQ0bWvR5njdUaUsgUU4EPi2AhqVvW1Uo9OO0YGHVgd2TWdk1xN3jF6+lkpeT+WPFnwMKSn+GP16VAxqjpD2cMFXFxzOczuEWA8WcW+Db66bffDoHvvMu0/YgQjzNzpjNTQNKLAzg9zO9EcWNdsIIEWwfUwbGgYtlDDi86zFyNbLPILt9pD269ZWerSjQTvn7CogcxXl77c6x5od4CjWeRkW7xU3l6zZbLpGSmhftVq1ijaRFSZ4kkpNdbm0raDRWMn0diIdlTGqw9Dx3abeRXWO4hqMxeFPuNagsQuk3SVmzC2hexbRhgvWc95Nfns434Wemc9GMIBbSOxDNx20T9x+xK5rDbH/K1ZnNOVk3ENtZ4wcjeQkHzLSBwBam620cb6JwPUioCqwPaSR3xhVgEvsxjgZDTlHU2BK9K51g/Y0STPJDQZWXfKk/lmaIqcYZYCPRlj7Kms1bZ8KInawlIApjorfKm2fZCC9T9PLerSYKtfwYdSAGv5Jklp/KCNUtElv7EWAyrkYMSnXR9idYcEKi3F4KxwrOMkJ4SagnNObgDjB+8js504csA/fcLVdt1izZNgBjBUXaH+gXXoYzBy/Sq+5oAW1Iy/PG8RizujA7SKZCdc2hPWFjqZ/iYKukV0CPDpqO7ZepdGuOd+aTVgvuzUrdcCC6QD0skDax5vTlpSBUZIDZ5IL4GyVthU0Ask6klmBzwKUZeI6OL4dZDRAxaxyvoq26Fjf+pU+NraPQ0pYknJBcqM4L47O2KJY5oTOHuIR4IdlCDLFcUbpoIHMPnD8kH38trfbTbvqttQ/Y220ThtzpbcLtKF6ENXgauEUy2GUaLeP1IlZTXM25m6YmVGVtlaJZMD4K0SoIu3b9X28aEuFFTfk2gj0pBpwRNWSqnOOaRoyKDajEjiXQ9usaYJT1tfQqtd8LIddvBo6ZVV01FDYmBrmstExZ/owQcJdzAzyBOWcoBFifVUnnFdwcq0GWEiilwKq4u46voLZPW+bt4/ceK3dtrtmu5jmz2cdTJNETn3GoAFG3lHSepcr2ksnyWVATTpIoocs9DWqPnXTd4LyOvWiPXJSsWDOCituBMAxSu7HJIBtOGDAdTpe9cXFxSL3QA4W7h0L9TJoW0GjAdKiN2v93BoDfZ3ArI0G0Se59MkLfYBAdr0F14lPmBI30Bh6AV2NdaEhLAyc6dMpEh7ZhN30xInV3dJomqKKFqotaw5Sd5p/9kjDPnPrNXbHLqbgqydtjgrpGU6vUrV+nDiYR8yOKhWVICBvD5Ud6rNY/rphwUdRo9GFOtmUQ1q1gPYPMbFyhgG+HOJuD9NeUJm/H4vw5ZBK3zZy202PaopZ05G4SFNAejqB9fqnbLulqIiShZKgof3rFXJtwIh/KkVtHzHr0VFcilPiLo+6kqCp4rV1WxyM7N7Dc/bpd99ot181b8nqK/gPI6shbFWuQnEJ89QophBVdptIRem5FMWPWR+SUv39TciJ+AtZ7SzbL3ZS1YvqT2oXB04ZDoct0faChn/hvSk6EtCo0T6gHSiTzBUxmsZbqev8acTMctAzMTOvStolr461QFtCXNW568w4c67k2HW/l7IwbZpaL406dvvepv3y3bfZOw7usUUc83ztnD89jvAwMxzqXPddllinIw2I8r1paV/NljSQpDplKUsnWEASiBRWnF52mwRNWeXxeUGKdsCUYUVeBm0raKRK9dGfgRhH2F01lwLHC1n+S0z1ynN/7hAWBOSqpqidjBmCgKjzIAqlEY/RRwuLOOWF7Tems2085Nv3Jfbp9xy3uw4u2DWVNbTQOablAiL5VFTg9pK0TQmAcXNEZXizOMjlQdi5OH89KrXNVmlbQaMptz76M0A7OHCISzn6xAh2Bw9WOACH8yLexZFKUjrB3DBLEA8AT3imIkmUR9iFis8CKFPYBaU5aYL/RLJ5Tu/YZfbJW6+2n71uj+3P163eW0WTaQamwr3QbSVV2atdNMGpDG8Wt3HYIM/g4nS5gBFtq2SkEeJc7xDLpIjBhi8gpq6iVZnQXUGrYCfGFcxwDNOkAdBqdvLswE6dA3go9B5us44DFPvQmugWfTkQt7oirtkaJmnE1LQv5xANMowbKJLE6hTR6mfMpsw+csPV9p4jB2x/vY5ZqKCMCrO4TSSnXZ8uk+vqTKNlnbG1PgsUhrXKI6dfA0jLLhpomhhIUhej0iR5WPwGNanskw3kTiBVHenR5bVwGFdkK+RqWGAoASFzULDyD2UgiglzJOrJCdaxb/bdJ1+wv/nhU/YMEu4lkRHl10Sqm6bx4RsPzL7824CYM85zptXlwl2OmWoB3Dn8hlv2mH3snYft9kO7bX64bgta3CTX8EovOXv9im9H4FRrqqsZm7/3TIOUo9qj13RD7tOROlMzPj3LlSujtvhMUUeVQ67i0K7zzwOpHvob5KW66OjtLJKoL+UJhPUxyDt6gz2Z/+F8EgQFlSlFmoiEE/WgAuovDt4JhOUSaCqrOC9U4aIiyns65kb/qoIe0OlzxsqEOOWnSxwoIvzVDSGFk565yPlrEn4RrfJ7Tz1hn3vgYXuepPqc7XBEw9c7lvfDJ7KVj2Zb1azO9L0KQDRbC53qwq2RYbVmVdqd0MDr2ma/cvd+++zt+2zv6sO2WFtG47xMmWvW0MM26tvTcG8u2Dq+0TpxHblIhVday1Krp3rCHMqYhtXJ/kEhtRP2I41IkFcVNOkrnCVrUi4uz6WZJac+XrE0kMSmflJ+AlJ49JDjaOf4bAHYemCoJZQNGEpaG+wSIiNn/pHA+1xyFftgF4XMIWLLiyWVYe/HyyIVoiJLniCvoKgs/fzCyqfiqkM3qdsLUd3uf+GM/cnfPmovcW1V4Gu0LK7Vg5OM6amrOJdD8f6154Aw/chZUUQTycvHuZoee9/1++xXP3iHNVZett0Itw0g0l7H13Rk1vpDjmgd1SN8AICWqCOU70aWU5PqFnRZIR1lVHC4tnF0yRXxYn0BQpoqDObw/Rmxd7THEcu5pvUbfajABgcNNL54ARWZFOTlb4XKCk3LWyFvTowGoXO1XUZPTAdx017oRPatJ16xP/z6U/bYitk5rq9zPcaE1LXiOZBp4WbKDWNIY0pdo/EN6aGPiIv4467F3jaX2PtPHLZP3naHHYlwi1fWXEMlNe6VP0a+ddLqU6ptPHktKJb7U/Tx5mD+puMLO2U62shj8nhe2LV5cV7UT+FLZhfWBm0JNGUeOk7Dl0c9atv30SzgZNUFGzb327naVfb1p87Ylx95ye4/bXZG1zW99u/9g4aJdk/WwcN6qOeUARrt9OtbG29hPzG/eMsh+9gNN9nxhXmrdjuYC7ROHZ+o1wMoqHqcjuYQE0GFAmgq/sVM7VspO20a3iqN85gsd9M6BD0WOMQFwRTHC8PnnUMTwtu6phEX+V4yh1unJt2nlZkM4ODLYrD1ja6GrdmcnU122/LcIfvqUy/blx58yn7wSmZrukHPWpxfXfY4LI9OC4KYoBjfpI4D3GT+MocTfBjMfej4Afv4nXfatbuXwCz+EoDRRw79QRwaRtsZ9JBS/3wpo/gOb/DTLp23KhdRadAcCMrL85s4whRShEM6nbtQyvBr8qshclmgmZYuRzjF12K8wlV9kQt7MBzgAOKvrAKOs3HN/vGFU/YX33vE7j819JV034zDfzl7ulv3luwkO57JcHF0AElIOcDIfL/KbhK+59hR++Rd77Ub9uy3WmdgS9UmvkHoAH1yNhUXHaSOKDtqGg7AUdnTUSlPHcP9EzwBio2yQrpxWm3Fc2noXKS4CS7TXUBj+U1NypfDNLxJ+ZdE4f4qhoOux5dImCZoQbMeJdbS9k1tJ2i1MVUNe+DUWfvSAz+0bzyb2zlm25q6asItXRU8molqCCgyUfJ/8IN8D4sYECpas6ol7r7zyFH72J132S2H3mbpuQ4zSnKio7UqPrmV0p1Xp3B+6XyZVGQRwLAZFfHl5aK+m9Pktc3TSIYXJwmBFPpJrEybfDyyyAg1PfmMZZLLYl/Ffpl5RsnE6SgqDhclfRSxgsehGUCMT9FgitvKh1YddazJHHOQ9qxfq9rZWtPuO7ls//v7P7a/fsp8z043H1l32Gda7s+gySdnOq5tETQDAfq39uTuRg3aq4eCep5jRlbWpNK7mdj+zDU328ff9T67bvdBS/vII8ZENmrW537NXDQ9ruB4ayYlgE7F3BL0wHQkmTpxq/Av4+MncCHdMbt+Iejl+DMw2KdSJZekKXfGbJVez0b0i9IRDZepXhs0onF+GxlLLp6PjpuwA2oTLgGyFaoAGt8MQBvEsX8EeoB/gZ8z6HKupYLI+tUWfk7bHjjbsz974An7zjOn7eU+da62LU8a1h8AMJxkbR9QbSQ+zaGki8JDMz0UlFMb4iKE16TeS5bYOw4et3/64V+wo/vfht6rWme9pxpZPam5Q9yMYlwkcpSgp2KVtDXKqZ/BOubKp8xzoh7+ys4Ea3otYAgQuiccCya+QidK+QaLjZT86Aen19c0xWHMFOiAIRdtM9yM/fpFeKsU02le2dAGRvSI0T2gs5j1jOAUgaGB0krN0rk9dqa+YA+vDO3z3/iefefpl+0lLushoBYt4yqaRSDmFDE6q9vECjuIKEQ/wxMhNH29u85MbDfAvWXPUfvMhz9hxw+8zdpM+5tMyw0g5l3VRQKVfIIpvGT2kbY18g4WU24M6+hPp8twcR48mY0HDqEvqLDK9skAcToqPYIOYCkldD5NoWkgCveDCi3y3IxjgLMpF1WdllRJPSvRfhvlMKKQHppApkE/nFfDrLSiptVRD5UenUCPR3FiXaZaj3cS+4uHnrevPPKKvYR10vpNF1QM9LBOAioEqTLIcsyizIXKIMB3kr2K8HG0Yez2hWP2yTvutXuuudEW+5E1AE27WrNsFH5abSt8vqAvnQJgwgs1yiem4z3PcXwIl8eyPIEicACtA6aIkw8Y/MByGEkDbdTw9UFTUgkYHfkvFXdxDuB5FXP/VmCjStZRo3piLxpin7pMb3uYgyEaKB/FaIOqtdM6GiHGXGlfTPixzt6u6+wHa3X7yqMv2X2Pdewk6kYP4vSbnGHkySBprUkCBjDU039NTgWh4lPa47voMEFax5oDNK3hyO5E4/zibffYuw5fb0vaj9wbWIw+1+KrfuNyGpZ52Ypc/B69fSDfw/NhNEjjooU9XMZdyFzPxQKHmyfk5UfFcV1AAUQBPAE0Gfcpjei1QYO8SpLsSp/EK4t618tnm7E/89+Ecx23QKpkRb+zROU1E5S/0Uli66BJupW6dYkY9Sr+e5vzdPcc5qSdDqxBmpODuq22rranV8y+cv8P7f5HTttql/ykQchPoBH0fFu3hKIqwvqmckNb+Ugl4PhYk7ZBpnuyxJa6ud2x57B96q4P2G3XXY9fk1iF8iQbH9FTMTdtkXT/WIuQTzhXrcM5zSyubaTb0DK0qUizwYqfOHcQhLgSEOTrXeKN9T9FwGPK8zzxxbiFYdfmhj14YHP9/kW53ettynPwwqDPSMX+AyCVTHX8r3oqFKe/PuY5CZhWjDtxpNHuT/0SyvxgaG1GvEb9Ere3e31rrHesLV5dsebKsrU6HWsxhR6u9QEzjmsntb/71nfta998xPR1d1xpctQDHZVHJj6SsEEqCx8mYlofA0oTy3fRk2YRydqgdx4cXz930D7zvp+3n7v9ndbqrtpSZd0WtakrWnVecF6D1+HOBJPO06zYPNf1hqfergxueOic0HKYU4VCT51PVRyQVjW1pXjNlqJzthifs7lk1eaq6zYfr/j5IvELKiemLmUcrOvzpNVxgfOlaNnzaNs5vLcObS/qAmIckJSnc6yJVMP51Qz2jHCK9eOGHhe/8LVH7H984au23MltqJVqHx7lXZdOUqWL1YH94s/cav/+X3zYmhnTZj3gUDXoGIFIuSr3ICDVhU5E1WbWsBX8kv/+xW/Zb3/5G2i+8OqKz6boaO3N0Qquf6ZddwG6nDxHw6E1MWeabVlv1Q7tmbPbb7zWfuPffEK/Lmj7FrA+DAo51m5Hpc7wkVQPcVkZaSXVJR9qfZl6SjHJ3cGevdx7yB4/9W2774mvW1ZHzVMP1ViLnBWm5xng1fvlvtIPySSK9ZsK1WHbbtv9Ebvn5o8A4Sbx+tmgUIY3RJhWTVQ3J+LJR6vQfVuxf3zmr+y+H3/RBtWO9aMB8mgySNB6sbZ3YH7dZQD4GX4Xjpl+r0pPwX0xT7sN3J+hbdRFi7FJf84ONN5uH7zl03aoedRqubb9q+0qWhOSohEiVUldpEopVj/L55e5UEczLAw6aBk0CZ0wN0DbTMnzaJmFAVpnxFRZpqwoK5Cko8aFepQc4mUcGIckFTeQ/p5u35b6PVukTvNowDYzqKZelsMsqX7tEdoIjbbU79hutGObcI37MmZYJ18+Z9958Ef2v37/r221Z3auo3YjwEh7bzBH2smvasGqjzOnwcYjvHJzrpIAuuqoYocau+ydh4/Ze47dZHvjmtV71AvtUR+dZtr2rNWzl5i6nwISL3M8DZ+Blxk056yRrWFU8YnUwQIapZTScQqC4EigcBFEIaS3RHto1LPWIt9W/gqmdRnYkTdltOB2RllwIz9LXJFOcVxrqA5FXDt7BdOua2iafJ266CGESqEuXpj+YOIUvHKJJtNO//UQN2/MwuoNixn551Y79vW//ab9wef+1E6fHWjWDCAljrrFrXlu0qssjDyigm0Xq0NTfE2QpjhYCtJxbS1rR4fs7UfutWNX32WLjSOW9bXhhllfFcjHHfJa5aY17tPPzMrp1P14GtLcE4N3a+S9eh55DAIIDxcC+z+C4Zr+6BjiLpW2BJogwK3xdpOeGyV6uY5OGWnVG/Ub68U6zFanl9q3v/uwfe7zX7Innl21NZ+SRwBI9gAVopV1V93KKQhdFMseKo5k+L8hjEkY5YtMyU/YicP3Ap67balxyM1NTQunaMGI/CrWBR89WK/HSYMGKG5NOmWdyh6/4NwB4wGCDheP8+vFeYifSOPXX5suS9OUTb1U/kmQNmTJ2Ao4kWZDgCZlFpQywmuNBVvvZXbf/Q/bH3z+z+2xp8/ZWZSA1pTkkZhvJAVJbs8lzNCKivtzhY2XBF2KLczYXlLstUU7bsevfo/dfPwu2zt/0DeEpZjSCv5b+IyLdheGKa9g44rqjRSQ+z4FAPSU14GgsACi8yKuiPb4Mhz+vCZdFmh2PNF++fmj4l3neq1uVX0wCC2TJA3XNFFtDs1Ss+9+/wn7nc990X78UuoaJwMEOU42HgscwBbC4gAaf64xFrYUT+xT8ginc9EO2tF9t6Jx3mVXLRxltrjL4tGcRWnDZ3LeUWizPJLWEYgcOlukshJFRcakMkJ8+W+Szo8twhdmsQltGTQ/Kc0xLbWabQfOoD+w4TDFRKU2AER6BtZqL9haZ2g9HNleWrUHHnnKfvO3/sCee0k6oE43znGUz1Fk5r4H7LMFjApT3UrhFMtlEutUywlZmgC53XZiz512y7H320L1CKDZBagWHDiazvsv8+kH4gGO8tsajSt3/rHQNufTZnHT09Y1DWWPZxbTMD7GmMnGnVRReXyDacCsrfzgjwrUB38SpsFqen/ANLvWAgPV4MckbXvmhTP2H//Tf7GHH1u3Pn2qHaPifvH4xqepembjD/7UICJVdaLdjyaKoDXiBrBbIrzbDi3cZj9/z7+0duUYM60DlmS7rVppF8LvWRQPqJcjcUtUmptywTGcA+qxrNVu8YXhzfn16IrXNJOkJQ7v1YIEILEAwMTVhhmuKual04/sP//X37O/u+9FQxH5s5gKOBFe1vVVBjdXAXien0aDCKFoH47krisRsEn8Y2hX20J01N57+6fs4K5bUS5LlvdbaKUG1xMH2dapLH+jXa8Ob3Z98nw62jJo3qq0ARw4qD40BGLQy3h0n7YWdzFXz57s2h//6f+zr933oHWwZQNbxYvpW3NO289FEp2AI+ImjSKxopWvnkMBrMTmgc5VAOewHdn1Trvp2nvtyN7bMGG78Lg1s2phqhLSbmUYXtAWD0/QOG6SL58uCzSlnKblbSMvcEJgbko0wZWdgaXCidfXsWKAI5aN0dJltb1oDz3xQ/vKfV+2R575B1vLnwEay9bLVscPPH2XnwOnjFDQbZizgOBFqmjSZcO6Hd59wmdVh/fdiM+zz/LegmU9gOia642gUHbgzehi8ZdOWwZN2R/T8E+CVKwet4cKiANgHDiARnHeFuEl1pYKTBb+z3K3a1E7sZc7z9oDj/+tPXHyH9A1LyCxrufgVGY5Bs1Gnh4lUrTcFcxcrVJHq7Rs/8J1dvP1d9vhq27GMd6NqZqjem8AaMZtFE2GJ+li8ZdOl6Vpdj4hnLEgBY6SA2h8xVfrVWLt/PPdbkqLrmlEFjVT61fOAKAf2w+f/qb94PH7uKZnNxNi98CGGPUQ0afnpbnh4D4OUXpRU5pHn2Pc3zxiJ66706499A5baB0m/eWCZlyjCQrtVh3eSNoyaIrqTMUi1b8c+Co8tKdIUcxttX7p6fysuHZey8urgcO/IuRZCAwhL4X1L+QxSaThJp8tkDbTgugES+MMM6bjwzVURN/WR6fs+098y7792F+jOM75K7CacPnjG+VFa0p2co0jX4cjUdJkw1EGcPTj1XK863agccJuO/5BO7B4E8nkKwk4ul+tKeobGgZzXoZ1zY+icQKiy7BoMlzShTLYGhUt3Br5oJqCRb4VsWAV7huxnTXKxTS14KDXYa5r9dWTKVqj0lm9Jg5gEQtw4XXZwKWs/TZn92Kctb0n84qhVfQGgjNdqqM++NhHJ9T2+MbzfmVog+YZe/D5v7KvPfG7dnL0LZzj59A7LwMGX/EMSkjaSrao3Mzsz2JG5MH0Xh9fhKpompbt4e9BO1C93T58x6/Z7W+/19IBZao9koxW6rlfn2LRvWEy7QawCOuvCiWtvuYuFuj8/iIPR7SEz0FUCkl8GaRct5U2Oi0IMBwL1qgXFYfJeE9XxG/cE2hDz4TYEiivLZsy9SYEkCKcXH8ARweoPG0nyOKujZIVe/LF79mjz9xnLw0ep9tWLdK7LipM0pQd8sBG3tJ0aoG6O5hGSSBsf9WHFrX/uR4voIXmOGsQGzSOUmV6LcJBcCGrjPJImrFJLLgcpX4uujygTJJK3DZy4dNQ/YiFM3Ha8xK8UARFnNouOYkltFJluzNbkk9JCibHVwukFNTWSTk4+KStvAxGNiM+R2t0B6v2yI8eskcef8CWBy+hV9bQRCsoP2kV7vQHf3QooMtpUDBbylP5qNVatwJoftS5Wb1atWqkvSre8NAsWBrWzzdjB03R1nKkbAOpV7aV/D0jF18hQj8XKII2KcVayCxckzRczRPhXArbpRo4SLGgcUI/2zqV+aocMaCJRtS5h43p2XMv/8ge+tG37FT/SeKWrYvTHIAsCvokiLjkUhuGlmqDVPgGjjZkTaRSk4owE7rzrk1yaF1Rv3FdC3aZiMojqaV9xhpo66Syt5W8SV73ABCdX9hknW9wUOwBKIS8zQKQuEw1eXdJly8cpzEogw+Ra48N5ijRzCo/a0+e/L49+Pjf23PdR7iqT2f3fY9NWZPgaNMGOGicC4GjLZUaAMVNsF/nT8kXI20NDYOnuHHMJU2GRUVmlwmcbQYNgqKzwwgTqxnSJaXu2Rib4ZrCpf4p2C9IUJsBZkJIHtyacMq7vKgyy0LTaKterVWx1d4rNoyZWTU69sTJB+w7j37VTuLj9GwZB3kdzTOgbwS0oipub2mZO/Dal+zf8SxYL+5pqymetC9gKnwJ7NssLpCBV7gMc3gTaPtB4yMrgCYApNhMzcwpAChUqnTxyu2PQRASkKg8F02GRWXYu7zg6em8uzRtcwrA6Q3WLGmgd6J1W09PW1Zfs9PdZ+xvvvV/AM1ZG0QrtG6d1D1qI9+l2HIwyWqKnij7bEfftoIcmOVFAKqtF3p5PSTehIvBM9a44rKAN4/UL9tGEozejKyk+hEwvToicTGtHOjzhDQ4Qwjodp+pwmE6LuFhFlKYVNraoHzCT9SQxmcrbzyFpzsXCJ8ODZuwNQ1Gk6ARKtWBg6eHqermr9iX/ub37eTyDzFSr1jXTnM8Z/2sIx8/9KX6tWA9YVCT1UTTxm//rFwxfXZtVKeNaKJx3PmsD66FOiJDbfBCFEkS+3OmjYH2xtO2gsYbkWVWo8P19LXfzxGavg0jlc21op0abGHAgQpX60xNY+3Oj6xWQyhc6/Z6NhxoX4x6QDAqqQwXmTlPR36XslHRnp8C+CLOZYpyNqWNVAAo7lkar1snf8m++eCX7enTD6FjlknZoe5D6w5Xg7TL6oUsx8eQLcjahPNsc9ZvQuh5jb+/RA5pOvIPG2gwVWsAy8lznqCi0MugbQZN8E6Sas051gemqYK0h18opHp+MzV9TXzTVApaRq7ttSemZvWGfhxL10tBTAjDgxcK7BKpyGbjbhxY90fK6XNZDikEHL0Wogd4AGdl9Lytps/ZQ098w556+QE0zWnAc45OlHYCYNwqlnLRePA3LBQmq2lZwFFlw4+DJciCukkbosLSNJhFr2pAekGKuDzaVtD4qI0avi93HS3jTyqiug2limO9ZwQ4FAf7NZLrOU54oU0qGXUscHGsVOQHaMRxHiRTcEmTgpqedHfIIcx3HCyM+kpGubB+G0o/Nho+2iggkR7g1ObxQxorttx7zh556tv2oxcfwLM5TV4rtAOOVv0hoQCW6XNwkY5wjNbUE+BNOE8AwmbM/cOsZyPMvX4jolz+iJin69Mw59OF8tk6bTNoaFBtDqA0EZJ+S1IjDZcYIOkXa/UUHiwFngjrG3t9Jgr+lp/3TuzfWBxo510iP+BCgXDDRLdvnQqtR/4BHDKj2vsiBkAFYFwD6QgsoiZzp/SUpck5O9d7wR596jv21IsP2Zqd5Oo5eBk+S75nOL4CvwzjTHOeVy7Cnn4zXvEXDeXHqK3SLtIy8vO0W/HNou0FDQBZH2QApG5roOLJ50b25PMr9uLpNXvi2bP2zIs9e+ZkBhthcQ4P7NkX1+zFk6/YyZPn7NlnV2x9vesbxLOUiSp+zatH0OWCZZIKQDooCq3igJGmKbkEjXb9rVjcyKybngPbfesMztiDP/gHe+rZH9jy4Hk7138Ofobw03Zu+KQtj+D0RxwftbPDH2zKZ4bf35TPDh+zU8vPI4O+myZpGX+ZH42DHqI2b6QcNoiZrj8nHxchLqe52pCda7EOm/HnX3nYfueP/9LOdCM3JwHH01UqQ5tEzQUb9FYxNmu2q5Vbd/kFW5prW7/bw8dp0WjmU/4YXtUSM8vy79B0qAsaJp6z1WHVenr1tNq2AWpIn2kNz3mkkt1+kTbk8GpAXQrRAWi/Yf6kHT7+kr3zrqo15p7GJOqXgsnVZzYiTJHWpPx5jOrNKK/LQR/4jry8V7Vk1Lb56h4brlesEbfH4PJnOO5I68h942n9q0nfMN6UNINK55Hpup0efM+SBdImuMZp06pxg2OHfPVIg7wz/eIl7H5VyM8/CaC2cF5hNqjXa2R24+Eu29e82d5366/aweb1Vs3nSIzDIN9IbsF2gkYd6GtN5O/PZ2hQeG5T5OMCDVARhXididVQwYKGAh4/koviynqM84Gmrdn5JNDU8KueADSnNkCDdyJHcwM0AAbQhId4mv6qDnoGRWiskTY0kzvQbkqVUKmRr5+ULZ6WlJ/exQa88pMchCo7OMhhEBVyoR4ur6Jc8VZBE2C/bUS1hXyfXguaVcSOP2PNwJitkb5kVSEeVlhxw0rDBhW0CqNX53gy5FSCJWgWcfgb+PLo/JyUs3/yfdzRxb8LzsOUfAIgAlOkWVUfDdCxUbJuo+paYIWJU3yaaPV8K0ye1RXPQ7/REMynyqZo6qO/IQRgPFjK6vJom0EzoyuBZqCZ0dQ0A82MpqYZaGY0Nc1AM6OpaQaaGU1NM9DMaGqagWZGU9MMNDOammagmdHUNAPNjKamAJqJ5YiwZrHBfqkSQmHlOLAiw1rLDmb/F1a/A2/UPlBYmwligLVgKh6PJTW43JdSrjSX94jKuCK9r+1srIUFUh4FF/dq3Szw+Sm3j1T6hkz8vfdxdRXQ1gotfuqoVfjxRWdfNRcrXlHhbjW8uIkLvlU3ynxRLNU7xhV1SmQb+0l2KNOM8FXwfrGKqxfTylX1ohNJFzZWVSdYQFEagUivmEB6tURE2gAkrpffyuMeP69oJXgEqww6RFEOXm3dUDlaVQ6r85Khb0KTXGHVqXz//M1n7TIYWpyLi60TIi2w+p5n/TIxbYu6XNFHJBkcDo4wOMohNaYAnEAbY+F8Ciu+Jah2MmvLgjo+dFhorkRUtpKjB6VH6XxpivFKMOwaQvcp3aRWgYUICVPk2mlCVn4oyxD5ePbjhVTeFTRP2L7wZrPXv9SoLpswaMKA0F4mxZVp1X7F63qQhWIvoLJxYo0QMWdeSBmv0TG0VEv+O5h9r4vvLdZrIA1GeR2WVghtcZNLW7R9wTeH660CvZriGqMAwFQUZFYKPZwT5J/+TrLDiKCkK9nqm3/byZJLkIdendHvJiAjsWSlz56UbPqdBQ4TY6lABFzQxoig0VKtJCrZfz9S6o2r4e0SlPCOZrVBoClHkUaK4tQCkRombSGtBHD0RoH2vwhELqHpyU0bHEZ10NVejksdM4QgXcLINhL71ylIRz3Kst98LnYbumYtIF1gQPXSSfjHua6GwJhK6Y0jQyMVrYjiMpEKuS0ENOGDQRodYQfdTubwuwMTgJlsfTmExsAJO/EkUAlzanKBh03n55Xlo055qrxCw4gBTJxp0xZpKTtsxdwOlmbVIClMuNpf1k3V9aP8LMlFPppHjpnaBuHobwiJdLVotBqnMwcMii0fWZLlFqdVuL6zWa+aeKNxYuHI9EsnA47hZ3P8dWAJhzYGSx20hFocxDctSV5FPp4f555NIV2VA7C0ET3KkF9Ws4h6Jql+qkdaHJhvA4dttpJLYJ8cuEMc4iUzn0DgBGuLq78bEnXg8CYsLSsa9CqSAAoVxWUBRp62XqdN8LqTLDP9Gv5O5kTvAVW68HrBHRrcpUu1QRzw0I4gQI1+mWKBptRM3ttbIB9i4/s3/BmX6LgcgUZfLk/SlsWjplVHjW3jBKCq/I13uARg6lMcY5lM/A9pw6BxABcgCm+kaZDpPRCJTT4AUWpe0Wyu4yam3MKFL3/12/aHf/ZX9tIyaIvbFkd1bvZUO5bcR2HqKPVbgt+7zjuUsTTC80gatrzSs+bcolXiug1orD5InaWMtuSk7T981u54X8/m9z5i+RBhakc/gvbpdnQO89dETE0UjEYlUYBAwCjVv49mmXQv3795ZXp1fa62ZNlA4KlZLamRVtpQPfDmkzaga4+xNsNbpk3juLbIJtYAQzn0V3M7dvWdduPbfsYO7DpOjRe5S1+okABxjHP9apaDRj5KiBYUxkImUi/r/fCpk/bgY0/bGoLTp+Hz0YDrSrBzSY8GRnH45Edoj4SjUHhe0mgu2P/9y6/Y8mrfzgIcfe7eIlhv63NvBdBcJdDc03XQ6LcQXxs0MtstFVyAJrDifYDhv9Qqc1avLNh1h26wxeZVjOoG7gwj3k2jV/tNJ/ltQ9+MTjvSOcqW9mMAuSZOLe1VbPfctbZ37kbAvQ/LQv3CiNAf0mZ6f1GgkeN4AWiEFn+9M7I+KqtHcEQ5VXGRbieTal6OD29PwSWtrpmdfDmzP/7CX9j3HnrM+imaoN62M8srVm0w9RRori5As+9RB41+01I/lnFx0OibeZq5FTMy/S6zSxhQDBOr5Qu2u3W13XnLvXaocYzYFvWsmX58I3xr782nDGAMDdCoToamCTWmP/VrckOMEDooX7JoBCNE9bO/sFkA46KgcUBg7130Kejz94DwCIjSO/d1Rq87mTuYgjXW9FdCCaIpga52DkCUHh08+eOufeGLX7bvPfwYpqpj1eaiDbDtWXzKrjok0HQcNNIIrw8azDZ5O2gAjIDjJaOd8gGmKFuyffPX2V23fsgO1U8AE430JmZBGmp7QJODBH2y380TgC0HUgUgyfmVEc0F5iEzO7pfn3CT8nXhES5luDn5lwdACYVETNVi1FMtoShuTIBQQtE7mfVWlT7GUXPWj/GMOAbWD/M04tzqCOOG403755/9qL3rjqO2fy+pBmeRDZ2Oyg6/aKKjOIjl4qQEGnqw/Jky7ARg9XYipRvaKMf5VcdUbJ5OWnQn1J3P7WBpVEBalT8FpqslE6cfHIqQmpZh1M8xCPHHXXDZktcGjUOMpNJROb5B3mNU6SsFWofBttPoncz6NJk+9Cz3Va+Q+SM3TS2ZAWrmVI8BEG1Lh6kduKppv/6rn7Rbbr7GWk3a650eYFCCJpy9DkleYgeOjiLdR/mxHjLquQwaC+0k0xTB8h1T/qQMyu1gacGKZED1xkwdKnmXWupXZtA4+Dfu2qGMwmRSE4pVrmlqTrLg5XjIeUwOMWI0i0JoutaIwKJ+E5KC3gqs/nKHXWFnhWHAkw6lilNrVIFYLber9zTsX//6p+3jH3ovoxBtRQZ6zFBhdIbfLuA+hD7+aCSAJGIst+DwKsS1AnS6Hp79MMI5ZIDVPwlCj8QMPDecypZei8h7exjLQXnqXlWPioSj2FuiutNG+WQcM/cMZX4VrzbqhW0nNXmDdGsQTMkiF4sfw9nOJ9V8o56TbSkptGnyiiDxm//z7+2r933ZqvPP2E3vNtt1+BT6e816w1U0RvmrKdJfgIGQfuhL8MkHaGAAkyVr5Cc/EXNU+CpRhkkfzdv+1g12902fsUPtO4CdfmRDQ3qzur1ZVEqE42SRrhlLsCuN0FRSGa8ZpF8MmZShcCZSqIRigKOEdH6anU3n17NszySH9ky2UjPDf/Vr99gH77nDFlt4RX1G50h+iGZPCC0CKBFGr1ILfgqaOkcboUDIKwAp9AZHnAGBRyWE5zbl9gl1kEhxRdrz6vVmssoSTwT9VNfUerGAPnlR5yFOqWa0Ccli/5NPfdB+6VMft4P7DtC3mBKxrwYDApmsYpi6pkJb6Ff+gya+smkGmotQnvXt4O623fXOO+zd77jbDu46ZtFw0ZrRPsv7+HQoCz01zvUBITnKEqV7jTPQ/FSSHnTNt2Q+1qyJ03/9oZvtluPvtYNLJ/AH9TPJ2mMCQLIMxxbg+PMsaaefDnHOQLMJyewMh+tY9gqT9rY1bbdds3Cz3Xb9vbanfa214t1Wj1r4N/5IHdCE51n+aVb3T65smoHmItSo1i3VSm2uT5TVcWWXHDjvu/Oj1kr2Wj2etyqOcIw50qqdPwwczzCubJqBZlOSk1u3WrLAfKHtv8VUs0U0z5LtS66zj7z/l+zQ7qOYqgTgkC6uASxAM5KPE2ZFOo44z1KtmuvBnmZQVwbNQLMpIRZ9i05+iywOONATU/32ZAyIFu2Q3Xr9e+2Ga99l9XyXpR3AgxGrRmikiCm3QJLEVqvX/cvhAlCvp81MVwbNQLMZyS25gOWqaMddAjgSYLM3OWYnrrnbjh++03a1rrEkmwM0LdNOk+FwaKOhtEyYWVWiiv+Ww5VCM9C8HpXPtgqi+xGaFhn32d7azXbjtR+wowffA5QOWn8F7VJF4wAQfXpeGkef8JeJSmbm6aeEHDDYpsoAlnnB0dUq8Qizky/h5xy2xegE2uYeu/6au6xd3Y/zrAd9uX8IOgCHu7S1pPB1rgSagWYzKrWLM2CpdOF1WAt34IZDBH5yjvloly0lR+3t191l77jpHpznpjvA/V7fwaJnN2/Wzwv9pGgGmtciXx+SU1MexTjEck+I0s6RmiSYNXGR99rbD7zbbr7ubrtq4agl6QLg0nMcgKPde8Ue4LA4OvlOFGbrLfYUeQaai5H3o8TTgLUlUpur6yFe63YAJ+KoTUraLtKu7GZedY296+pftlv3ftIOJHdaEy1UqwzxcVYtT87aSFsMkrAdrJ9q04GWH2JmV+QXEPSWoBloXpfkwJYrv4TdZG1wGQybvVpm/Xm76cj77Y4TH7K55JBlfW19qNmwp41PVV8J16vASaIdwWF5U9t93ko0A80bSgAhavoT5IN7TtgdN3/I9u+6xbLOorXi/cCu7b50OuqSptgh57t3/Na3DM1A8waTduTlzK7q0T47suuddtuxj9o1e95t+fpuq44WrZox8wIgcUWvtmjb7ABHOdz7VqEZaN5IwsyMBrk1qk2Ls11WSffaobk77fbjH7XDu263eDDPdL2GnxMzy9J2LWkZnOSs0DZvEZqB5o0kNEhSxbnFBGmTXq2yiMt70K5q3mj3vOOTdmjXDfg5e1Eu+EZDrW8h/jRias6NM0f4p5VwbJPMN2y7+wwQ9Cyngllaio7YnTd9wK7ec9zfwkx72hZaJS1ayX9O8K1CZv8fJ9S0oauoChAAAAAASUVORK5CYII=;" parent="1" vertex="1">
          <mxGeometry x="519.01" y="290" width="20.74" height="20" as="geometry" />
        </mxCell>
        <mxCell id="Dq8sDCKAddYv-XCWIiku-43" value="&lt;span style=&quot;text-wrap: nowrap; font-size: 11px;&quot;&gt;Event&amp;nbsp;&lt;/span&gt;&lt;div style=&quot;text-wrap: nowrap; font-size: 11px;&quot;&gt;Listeners&lt;/div&gt;" style="text;html=1;align=center;verticalAlign=middle;whiteSpace=wrap;rounded=0;fontSize=11;" parent="1" vertex="1">
          <mxGeometry x="392" y="251" width="60" height="30" as="geometry" />
        </mxCell>
        <mxCell id="n0yWEM6F1AUNdgi6MvtB-4" value="" style="image;aspect=fixed;html=1;points=[];align=center;fontSize=12;image=img/lib/azure2/ai_machine_learning/Cognitive_Services.svg;" parent="1" vertex="1">
          <mxGeometry x="363" y="-100" width="98" height="69.18" as="geometry" />
        </mxCell>
        <mxCell id="n0yWEM6F1AUNdgi6MvtB-6" value="" style="endArrow=classic;html=1;rounded=0;exitX=0.465;exitY=1.072;exitDx=0;exitDy=0;exitPerimeter=0;entryX=0.5;entryY=0;entryDx=0;entryDy=0;entryPerimeter=0;" parent="1" source="n0yWEM6F1AUNdgi6MvtB-4" target="Dq8sDCKAddYv-XCWIiku-20" edge="1">
          <mxGeometry relative="1" as="geometry">
            <mxPoint x="290" y="-50" as="sourcePoint" />
            <mxPoint x="250" y="-70" as="targetPoint" />
          </mxGeometry>
        </mxCell>
        <mxCell id="n0yWEM6F1AUNdgi6MvtB-7" value="Events" style="edgeLabel;resizable=0;html=1;;align=center;verticalAlign=middle;" parent="n0yWEM6F1AUNdgi6MvtB-6" connectable="0" vertex="1">
          <mxGeometry relative="1" as="geometry" />
        </mxCell>
      </root>
    </mxGraphModel>
  </diagram>
  <diagram id="vylYnJKVjwmPeWCG2OEf" name="Operator">
    <mxGraphModel dx="992" dy="630" grid="1" gridSize="10" guides="1" tooltips="1" connect="1" arrows="1" fold="1" page="1" pageScale="1" pageWidth="850" pageHeight="1100" math="0" shadow="0">
      <root>
        <mxCell id="0" />
        <mxCell id="1" parent="0" />
        <mxCell id="TQDIP0-X2VnC3euwIfZ7-1" value="" style="rounded=0;whiteSpace=wrap;html=1;dashed=1;" parent="1" vertex="1">
          <mxGeometry x="40" y="320" width="290" height="100" as="geometry" />
        </mxCell>
        <mxCell id="TQDIP0-X2VnC3euwIfZ7-22" style="edgeStyle=orthogonalEdgeStyle;rounded=0;orthogonalLoop=1;jettySize=auto;html=1;dashed=1;" parent="1" source="TQDIP0-X2VnC3euwIfZ7-2" target="TQDIP0-X2VnC3euwIfZ7-10" edge="1">
          <mxGeometry relative="1" as="geometry" />
        </mxCell>
        <mxCell id="TQDIP0-X2VnC3euwIfZ7-2" value="" style="aspect=fixed;sketch=0;html=1;dashed=0;whitespace=wrap;verticalLabelPosition=bottom;verticalAlign=top;fillColor=#2875E2;strokeColor=#ffffff;points=[[0.005,0.63,0],[0.1,0.2,0],[0.9,0.2,0],[0.5,0,0],[0.995,0.63,0],[0.72,0.99,0],[0.5,1,0],[0.28,0.99,0]];shape=mxgraph.kubernetes.icon2;kubernetesLabel=1;prIcon=crd" parent="1" vertex="1">
          <mxGeometry x="260" y="341" width="50" height="48" as="geometry" />
        </mxCell>
        <mxCell id="TQDIP0-X2VnC3euwIfZ7-3" style="edgeStyle=orthogonalEdgeStyle;rounded=0;orthogonalLoop=1;jettySize=auto;html=1;" parent="1" source="TQDIP0-X2VnC3euwIfZ7-4" target="TQDIP0-X2VnC3euwIfZ7-2" edge="1">
          <mxGeometry relative="1" as="geometry" />
        </mxCell>
        <mxCell id="TQDIP0-X2VnC3euwIfZ7-17" style="edgeStyle=orthogonalEdgeStyle;rounded=0;orthogonalLoop=1;jettySize=auto;html=1;dashed=1;" parent="1" source="TQDIP0-X2VnC3euwIfZ7-4" target="TQDIP0-X2VnC3euwIfZ7-16" edge="1">
          <mxGeometry relative="1" as="geometry" />
        </mxCell>
        <mxCell id="TQDIP0-X2VnC3euwIfZ7-4" value="" style="aspect=fixed;sketch=0;html=1;dashed=0;whitespace=wrap;verticalLabelPosition=bottom;verticalAlign=top;fillColor=#2875E2;strokeColor=#ffffff;points=[[0.005,0.63,0],[0.1,0.2,0],[0.9,0.2,0],[0.5,0,0],[0.995,0.63,0],[0.72,0.99,0],[0.5,1,0],[0.28,0.99,0]];shape=mxgraph.kubernetes.icon2;prIcon=c_c_m" parent="1" vertex="1">
          <mxGeometry x="170" y="341" width="50" height="48" as="geometry" />
        </mxCell>
        <mxCell id="TQDIP0-X2VnC3euwIfZ7-5" value="kubectl" style="aspect=fixed;sketch=0;html=1;dashed=0;whitespace=wrap;verticalLabelPosition=bottom;verticalAlign=top;fillColor=#2875E2;strokeColor=#ffffff;points=[[0.005,0.63,0],[0.1,0.2,0],[0.9,0.2,0],[0.5,0,0],[0.995,0.63,0],[0.72,0.99,0],[0.5,1,0],[0.28,0.99,0]];shape=mxgraph.kubernetes.icon2;prIcon=user" parent="1" vertex="1">
          <mxGeometry x="61" y="460" width="50" height="48" as="geometry" />
        </mxCell>
        <mxCell id="TQDIP0-X2VnC3euwIfZ7-6" style="edgeStyle=orthogonalEdgeStyle;rounded=0;orthogonalLoop=1;jettySize=auto;html=1;entryX=0.005;entryY=0.63;entryDx=0;entryDy=0;entryPerimeter=0;" parent="1" target="TQDIP0-X2VnC3euwIfZ7-4" edge="1">
          <mxGeometry relative="1" as="geometry">
            <mxPoint x="110" y="370" as="sourcePoint" />
          </mxGeometry>
        </mxCell>
        <mxCell id="TQDIP0-X2VnC3euwIfZ7-7" style="edgeStyle=orthogonalEdgeStyle;rounded=0;orthogonalLoop=1;jettySize=auto;html=1;entryX=1;entryY=0.375;entryDx=0;entryDy=0;entryPerimeter=0;" parent="1" source="TQDIP0-X2VnC3euwIfZ7-4" edge="1">
          <mxGeometry relative="1" as="geometry">
            <mxPoint x="110" y="364" as="targetPoint" />
          </mxGeometry>
        </mxCell>
        <mxCell id="TQDIP0-X2VnC3euwIfZ7-8" style="edgeStyle=orthogonalEdgeStyle;rounded=0;orthogonalLoop=1;jettySize=auto;html=1;" parent="1" source="TQDIP0-X2VnC3euwIfZ7-5" target="TQDIP0-X2VnC3euwIfZ7-12" edge="1">
          <mxGeometry relative="1" as="geometry">
            <mxPoint x="85" y="394" as="targetPoint" />
          </mxGeometry>
        </mxCell>
        <mxCell id="TQDIP0-X2VnC3euwIfZ7-9" value="" style="editableCssRules=.*;html=1;shape=image;verticalLabelPosition=bottom;labelBackgroundColor=#ffffff;verticalAlign=top;aspect=fixed;imageAspect=0;image=data:image/svg+xml,PHN2ZyB4bWxucz0iaHR0cDovL3d3dy53My5vcmcvMjAwMC9zdmciIHhtbG5zOnY9Imh0dHBzOi8vdmVjdGEuaW8vbmFubyIgd2lkdGg9IjcwMi44NDYzMTM0NzY1NjI1IiBoZWlnaHQ9IjY4MS45NjcxMDIwNTA3ODEyIiB2aWV3Qm94PSIxMC4wMDEwMjYxNTM1NjQ0NTMgMTAuMDAwOTMzNjQ3MTU1NzYyIDcwMi44NDYzMTM0NzY1NjI1IDY4MS45NjcxMDIwNTA3ODEyIj4mI3hhOwk8c3R5bGUgdHlwZT0idGV4dC9jc3MiPiYjeGE7CS5zdDB7ZmlsbDojMzI2Y2U1O30mI3hhOwkuc3Qxe2ZpbGw6I2ZmZjt9JiN4YTsJPC9zdHlsZT4mI3hhOwk8cGF0aCBjbGFzcz0ic3QwIiBkPSJNMzU4Ljk4NyAxMC4wNmMtNi4yMTMuMzEzLTEyLjMwMSAxLjg1NC0xNy45MDYgNC41MzFMOTYuNzM3IDEzMS4zNDJjLTEyLjgxMSA2LjExOC0yMi4xMTYgMTcuNjg5LTI1LjI4MSAzMS40MzhsLTYwLjI4MSAyNjIuMjVjLTIuODEyIDEyLjIwNy0uNTI0IDI1LjAyNCA2LjM0NCAzNS41MzFhNDYuMzUgNDYuMzUgMCAwIDAgMi42NTYgMy42ODhsMTY5LjEyNSAyMTAuMjgxYzguODY4IDExLjAyMiAyMi4zMTMgMTcuNDQgMzYuNTMxIDE3LjQzOGwyNzEuMjE5LS4wNjJjMTQuMjEyLjAxIDI3LjY1Ny02LjM5NiAzNi41MzEtMTcuNDA2bDE2OS4wNjMtMjEwLjMxM2M4Ljg3My0xMS4wMjggMTIuMTk3LTI1LjQ2NCA5LjAzMS0zOS4yMTlsLTYwLjM3NS0yNjIuMjVjLTMuMTY1LTEzLjc0OC0xMi40Ny0yNS4zMTktMjUuMjgxLTMxLjQzN0wzODEuNjQzIDE0LjU5MmMtNy4wNS0zLjM2OC0xNC44NDEtNC45MjYtMjIuNjU2LTQuNTMxeiIvPiYjeGE7CTxwYXRoIGNsYXNzPSJzdDEgc3QyIiBkPSJNMzYxLjQwOCA5OS4zMDhjLTguMDc3LjAwMS0xNC42MjYgNy4yNzYtMTQuNjI1IDE2LjI1IDAgLjEzOC4wMjguMjY5LjAzMS40MDYtLjAxMiAxLjIxOS0uMDcxIDIuNjg4LS4wMzEgMy43NS4xOTMgNS4xNzYgMS4zMjEgOS4xMzcgMiAxMy45MDYgMS4yMyAxMC4yMDcgMi4yNjEgMTguNjY3IDEuNjI1IDI2LjUzMS0uNjE5IDIuOTY1LTIuODAzIDUuNjc3LTQuNzUgNy41NjNsLS4zNDQgNi4xODhjLTguNzc3LjcyNy0xNy42MTIgMi4wNTktMjYuNDM3IDQuMDYzLTM3Ljk3NSA4LjYyMi03MC42NyAyOC4xODMtOTUuNTYyIDU0LjU5NC0xLjYxNS0xLjEwMi00LjQ0MS0zLjEyOS01LjI4MS0zLjc1LTIuNjExLjM1My01LjI1IDEuMTU4LTguNjg3LS44NDQtNi41NDUtNC40MDYtMTIuNTA2LTEwLjQ4Ny0xOS43MTktMTcuODEyLTMuMzA1LTMuNTA0LTUuNjk4LTYuODQxLTkuNjI1LTEwLjIxOS0uODkyLS43NjctMi4yNTMtMS44MDUtMy4yNS0yLjU5NC0zLjA3LTIuNDQ4LTYuNjkxLTMuNzI0LTEwLjE4Ny0zLjg0NC00LjQ5Ni0uMTU0LTguODI0IDEuNjA0LTExLjY1NiA1LjE1Ni01LjAzNSA2LjMxNS0zLjQyMyAxNS45NjggMy41OTQgMjEuNTYzLjA3MS4wNTcuMTQ3LjEwMS4yMTkuMTU2Ljk2NC43ODIgMi4xNDUgMS43ODMgMy4wMzEgMi40MzggNC4xNjcgMy4wNzcgNy45NzMgNC42NTEgMTIuMTI1IDcuMDk0IDguNzQ3IDUuNDAyIDE1Ljk5OCA5Ljg4MSAyMS43NSAxNS4yODEgMi4yNDYgMi4zOTQgMi42MzkgNi42MTMgMi45MzggOC40MzhsNC42ODggNC4xODhjLTI1LjA5MyAzNy43NjQtMzYuNzA3IDg0LjQwOS0yOS44NDQgMTMxLjkzOGwtNi4xMjUgMS43ODFjLTEuNjE0IDIuMDg1LTMuODk1IDUuMzY1LTYuMjgxIDYuMzQ0LTcuNTI1IDIuMzctMTUuOTk0IDMuMjQxLTI2LjIxOSA0LjMxMy00LjguMzk5LTguOTQyLjE2MS0xNC4wMzEgMS4xMjUtMS4xMi4yMTItMi42ODEuNjE5LTMuOTA2LjkwNi0uMDQzLjAwOS0uMDgyLjAyMi0uMTI1LjAzMS0uMDY3LjAxNS0uMTU1LjA0OC0uMjE5LjA2My04LjYyIDIuMDgzLTE0LjE1OCAxMC4wMDYtMTIuMzc1IDE3LjgxM3MxMC4yMDMgMTIuNTU3IDE4Ljg3NSAxMC42ODhjLjA2My0uMDE0LjE1NC0uMDE3LjIxOS0uMDMxLjA5OC0uMDIyLjE4NC0uMDcuMjgxLS4wOTQgMS4yMDktLjI2NSAyLjcyNC0uNTYxIDMuNzgxLS44NDQgNS4wMDMtMS4zNCA4LjYyNy0zLjMwOCAxMy4xMjUtNS4wMzEgOS42NzctMy40NzEgMTcuNjkyLTYuMzcgMjUuNS03LjUgMy4yNjEtLjI1NSA2LjY5NyAyLjAxMiA4LjQwNiAyLjk2OWw2LjM3NS0xLjA5NGMxNC42NyA0NS40ODMgNDUuNDE0IDgyLjI0NSA4NC4zNDQgMTA1LjMxMmwtMi42NTYgNi4zNzVjLjk1NyAyLjQ3NSAyLjAxMyA1LjgyNSAxLjMgOC4yNjktMi44MzkgNy4zNjEtNy43MDEgMTUuMTMxLTEzLjIzOCAyMy43OTMtMi42ODEgNC4wMDItNS40MjUgNy4xMDgtNy44NDQgMTEuNjg4LS41NzkgMS4wOTYtMS4zMTYgMi43NzktMS44NzUgMy45MzgtMy43NTkgOC4wNDItMS4wMDIgMTcuMzA1IDYuMjE5IDIwLjc4MSA3LjI2NiAzLjQ5OCAxNi4yODQtLjE5MSAyMC4xODctOC4yNS4wMDYtLjAxMS4wMjYtLjAyLjAzMS0uMDMxcy0uMDA0LS4wMjMgMC0uMDMxYy41NTYtMS4xNDMgMS4zNDQtMi42NDQgMS44MTMtMy43MTkgMi4wNzItNC43NDcgMi43NjItOC44MTUgNC4yMTktMTMuNDA2IDMuODctOS43MiA1Ljk5Ni0xOS45MTkgMTEuMzIzLTI2LjI3NCAxLjQ1OS0xLjc0IDMuODM3LTIuNDA5IDYuMzAyLTMuMDdsMy4zMTMtNmMzMy45MzggMTMuMDI3IDcxLjkyNyAxNi41MjIgMTA5Ljg3NSA3LjkwNmExODkuNzcgMTg5Ljc3IDAgMCAwIDI1LjA5NC03LjU2MmwzLjEyNSA1LjYyNWMyLjUwNi44MTUgNS4yNCAxLjIzNiA3LjQ2OSA0LjUzMSAzLjk4NSA2LjgwOSA2LjcxMSAxNC44NjQgMTAuMDMxIDI0LjU5NCAxLjQ1NyA0LjU5MSAyLjE3OCA4LjY1OSA0LjI1IDEzLjQwNi40NzIgMS4wODIgMS4yNTYgMi42MDUgMS44MTMgMy43NSAzLjg5NSA4LjA4NSAxMi45NDIgMTEuNzg3IDIwLjIxOSA4LjI4MSA3LjIxOS0zLjQ3OCA5Ljk4LTEyLjc0IDYuMjE5LTIwLjc4MWwtMS45MDYtMy45MzdjLTIuNDE5LTQuNTgtNS4xNjMtNy42NTQtNy44NDQtMTEuNjU2LTUuNTM3LTguNjYyLTEwLjEzLTE1Ljg1OC0xMi45NjktMjMuMjE5LTEuMTg3LTMuNzk3LjItNi4xNTggMS4xMjUtOC42MjUtLjU1NC0uNjM1LTEuNzM5LTQuMjItMi40MzctNS45MDYgNDAuNDU3LTIzLjg4OCA3MC4yOTktNjIuMDIxIDg0LjMxMy0xMDYuMDYyIDEuODkyLjI5NyA1LjE4Mi44NzkgNi4yNSAxLjA5NCAyLjItMS40NTEgNC4yMjItMy4zNDQgOC4xODgtMy4wMzEgNy44MDggMS4xMjkgMTUuODIzIDQuMDMgMjUuNSA3LjUgNC40OTggMS43MjMgOC4xMjIgMy43MjMgMTMuMTI1IDUuMDYzIDEuMDU3LjI4MyAyLjU3Mi41NDcgMy43ODEuODEzLjA5Ny4wMjQuMTgzLjA3MS4yODEuMDk0LjA2NS4wMTUuMTU2LjAxNy4yMTkuMDMxIDguNjcyIDEuODY3IDE3LjA5NC0yLjg3OSAxOC44NzUtMTAuNjg3cy0zLjc1NC0xNS43MzItMTIuMzc1LTE3LjgxMmMtMS4yNTQtLjI4NS0zLjAzMi0uNzY5LTQuMjUtMS01LjA4OS0uOTY0LTkuMjMxLS43MjYtMTQuMDMxLTEuMTI1LTEwLjIyNS0xLjA3MS0xOC42OTMtMS45NDMtMjYuMjE5LTQuMzEyLTMuMDY4LTEuMTktNS4yNTEtNC44NDEtNi4zMTMtNi4zNDRsLTUuOTA2LTEuNzE5YzMuMDYyLTIyLjE1NCAyLjIzNy00NS4yMTEtMy4wNjItNjguMjgxLTUuMzQ4LTIzLjI4NS0xNC44LTQ0LjU4MS0yNy40MDYtNjMuMzQ0bDUuMTg4LTQuNjU2Yy4yMzctMi42MjQuMDMzLTUuMzc2IDIuNzUtOC4yODEgNS43NTEtNS40MDEgMTMuMDAzLTkuODc5IDIxLjc1LTE1LjI4MSA0LjE1Mi0yLjQ0MyA3Ljk5LTQuMDE3IDEyLjE1Ni03LjA5NC45NDItLjY5NiAyLjIyOS0xLjc5OCAzLjIxOS0yLjU5NCA3LjAxNS01LjU5NiA4LjYzMS0xNS4yNDggMy41OTQtMjEuNTYycy0xNC43OTctNi45MDktMjEuODEyLTEuMzEyYy0uOTk5Ljc5MS0yLjM1NCAxLjgyMy0zLjI1IDIuNTk0LTMuOTI3IDMuMzc4LTYuMzUxIDYuNzE0LTkuNjU2IDEwLjIxOS03LjIxMiA3LjMyNi0xMy4xNzQgMTMuNDM4LTE5LjcxOSAxNy44NDQtMi44MzYgMS42NTEtNi45OSAxLjA4LTguODc1Ljk2OWwtNS41NjIgMy45NjljLTMxLjcxOS0zMy4yNjEtNzQuOTA1LTU0LjUyNS0xMjEuNDA2LTU4LjY1NmwtLjM0NC02LjUzMWMtMS45MDQtMS44MjItNC4yMDMtMy4zNzctNC43ODEtNy4zMTItLjYzNi03Ljg2NC40MjYtMTYuMzI1IDEuNjU2LTI2LjUzMS42NzktNC43NjkgMS44MDctOC43MyAyLTEzLjkwNi4wNDQtMS4xNzctLjAyNi0yLjg4NC0uMDMxLTQuMTU2LS4wMDEtOC45NzQtNi41NDgtMTYuMjUxLTE0LjYyNS0xNi4yNXptLTE4LjMxMiAxMTMuNDM4bC00LjM0NCA3Ni43MTktLjMxMi4xNTZjLS4yOTEgNi44NjMtNS45NCAxMi4zNDQtMTIuODc1IDEyLjM0NGExMi44MiAxMi44MiAwIDAgMS03LjU5NC0yLjQ2OWwtLjEyNS4wNjMtNjIuOTA2LTQ0LjU5NGMxOS4zMzQtMTkuMDExIDQ0LjA2My0zMy4wNiA3Mi41NjItMzkuNTMxIDUuMjA2LTEuMTgyIDEwLjQxLTIuMDU5IDE1LjU5NC0yLjY4N3ptMzYuNjU2IDBjMzMuMjczIDQuMDkyIDY0LjA0NSAxOS4xNTkgODcuNjI1IDQyLjI1bC02Mi41IDQ0LjMxMy0uMjE5LS4wOTRhMTIuOTEgMTIuOTEgMCAwIDEtMTcuNjg3LTIuMzc1Yy0xLjc3MS0yLjIyMS0yLjcwMS00LjgzMi0yLjgxMi03LjQ2OWwtLjA2Mi0uMDMxek0yMzIuMTI2IDI4My42Mmw1Ny40MzcgNTEuMzc1LS4wNjIuMzEzYTEyLjg4IDEyLjg4IDAgMCAxIDEuNjI1IDE3Ljc1IDEyLjg5IDEyLjg5IDAgMCAxLTYuNjg3IDQuNDA2bC0uMDYyLjI1LTczLjYyNSAyMS4yNWMtMy43NDctMzQuMjY1IDQuMzI5LTY3LjU3NCAyMS4zNzUtOTUuMzQ0em0yNTguMTU2LjAzMWM4LjUzNCAxMy44MzMgMTQuOTk3IDI5LjI4MiAxOC44NDQgNDYuMDMxIDMuODAxIDE2LjU0OCA0Ljc1NSAzMy4wNjcgMy4xODggNDkuMDMxbC03NC0yMS4zMTItLjA2Mi0uMzEyYy02LjYyNy0xLjgxMS0xMC42OTktOC41NTItOS4xNTYtMTUuMzEyLjYzMi0yLjc3IDIuMTAyLTUuMTEzIDQuMDk0LTYuODQ0bC0uMDMxLS4xNTYgNTcuMTI1LTUxLjEyNXptLTE0MC42NTYgNTUuMzEzaDIzLjUzMWwxNC42MjUgMTguMjgxLTUuMjUgMjIuODEzLTIxLjEyNSAxMC4xNTYtMjEuMTg3LTEwLjE4Ny01LjI1LTIyLjgxMnptNzUuNDM4IDYyLjU2M2ExMi44MyAxMi44MyAwIDAgMSAyLjk2OS4yMTlsLjEyNS0uMTU2IDc2LjE1NiAxMi44NzVjLTExLjE0NiAzMS4zMTMtMzIuNDczIDU4LjQ0LTYwLjk2OSA3Ni41OTRsLTI5LjU2Mi03MS40MDYuMDk0LS4xMjVjLTIuNzE2LTYuMzEuMDAyLTEzLjcxIDYuMjUtMTYuNzE5IDEuNi0uNzcgMy4yNzEtMS4xOTcgNC45MzgtMS4yODF6bS0xMjcuOTA2LjMxM2ExMi45IDEyLjkgMCAwIDEgMTIuMzc1IDEwLjAzMSAxMi43NyAxMi43NyAwIDAgMS0uNzE5IDcuOTM4bC4yMTkuMjgxLTI5LjI1IDcwLjY4OGMtMjcuMzQ3LTE3LjU0OS00OS4xMjktNDMuODI0LTYwLjc4MS03Ni4wNjJsNzUuNS0xMi44MTIuMTI1LjE1NmMuODQ1LS4xNTUgMS43MDEtLjIzIDIuNTMxLS4yMTl6bTYzLjc4MSAzMC45NjljMi4wMjQtLjA3NCA0LjA3OS4zNDEgNi4wMzEgMS4yODEgMi41NiAxLjIzMyA0LjUzNyAzLjE3MyA1Ljc4MSA1LjVoLjI4MWwzNy4yMTkgNjcuMjVjLTQuODMgMS42MTktOS43OTYgMy4wMDMtMTQuODc1IDQuMTU2LTI4LjQ2NSA2LjQ2My01Ni44MzkgNC41MDUtODIuNTMxLTQuMjVsMzcuMTI1LTY3LjEyNWguMDYzYTEyLjkxIDEyLjkxIDAgMCAxIDEwLjkwNi02LjgxMnoiIHN0cm9rZT0ibm9uZSIgc3Ryb2tlLXdpZHRoPSIuMjUiLz4mI3hhOzwvc3ZnPg==;fontColor=default;" parent="1" vertex="1">
          <mxGeometry x="310" y="315" width="26.32" height="25" as="geometry" />
        </mxCell>
        <mxCell id="TQDIP0-X2VnC3euwIfZ7-10" value="&lt;h1 style=&quot;margin-top: 0px; font-size: 9px;&quot;&gt;&lt;pre style=&quot;margin-top: 0px; background-color: var(--vscode-textCodeBlock-background); border: 1px solid var(--vscode-widget-border); padding: 16px; border-radius: 3px; overflow: auto; text-wrap: wrap; font-size: 9px;&quot;&gt;&lt;code style=&quot;font-family: var(--vscode-editor-font-family, &amp;quot;SF Mono&amp;quot;, Monaco, Menlo, Consolas, &amp;quot;Ubuntu Mono&amp;quot;, &amp;quot;Liberation Mono&amp;quot;, &amp;quot;DejaVu Sans Mono&amp;quot;, &amp;quot;Courier New&amp;quot;, monospace); background: none; padding: 0px; border-radius: 4px; font-size: 9px; line-height: 1.357em; display: inline-block; tab-size: 4; position: relative;&quot; dir=&quot;auto&quot; class=&quot;code-line language-yaml&quot; data-line=&quot;22&quot;&gt;&lt;font color=&quot;#6666ff&quot; style=&quot;font-size: 9px;&quot;&gt;&lt;span style=&quot;font-size: 9px;&quot; class=&quot;hljs-attr&quot;&gt;apiVersion&lt;/span&gt;&lt;span style=&quot;font-size: 9px;&quot; class=&quot;hljs-attr&quot;&gt;:&lt;/span&gt;&lt;/font&gt;&lt;font color=&quot;rgba(0, 0, 0, 0)&quot; style=&quot;font-size: 9px;&quot;&gt; &lt;/font&gt;&lt;span style=&quot;font-size: 9px;&quot; class=&quot;hljs-string&quot;&gt;&lt;font color=&quot;#cc662b&quot; style=&quot;font-size: 9px;&quot;&gt;jobico.coeux.dev/v1&lt;/font&gt;&lt;/span&gt;&lt;font color=&quot;rgba(0, 0, 0, 0)&quot; style=&quot;font-size: 9px;&quot;&gt;&lt;br style=&quot;font-size: 9px;&quot;&gt;&lt;/font&gt;&lt;span style=&quot;font-size: 9px;&quot; class=&quot;hljs-attr&quot;&gt;&lt;font color=&quot;#6666ff&quot; style=&quot;font-size: 9px;&quot;&gt;kind:&lt;/font&gt;&lt;/span&gt;&lt;font color=&quot;rgba(0, 0, 0, 0)&quot; style=&quot;font-size: 9px;&quot;&gt; &lt;/font&gt;&lt;span style=&quot;font-size: 9px;&quot; class=&quot;hljs-string&quot;&gt;&lt;font color=&quot;#cc662b&quot; style=&quot;font-size: 9px;&quot;&gt;Job&lt;/font&gt;&lt;/span&gt;&lt;font color=&quot;rgba(0, 0, 0, 0)&quot; style=&quot;font-size: 9px;&quot;&gt;&lt;br style=&quot;font-size: 9px;&quot;&gt;&lt;/font&gt;&lt;span style=&quot;font-size: 9px;&quot; class=&quot;hljs-attr&quot;&gt;&lt;font color=&quot;#6666ff&quot; style=&quot;font-size: 9px;&quot;&gt;metadata:&lt;/font&gt;&lt;/span&gt;&lt;font color=&quot;rgba(0, 0, 0, 0)&quot; style=&quot;font-size: 9px;&quot;&gt;&lt;br style=&quot;font-size: 9px;&quot;&gt;  &lt;/font&gt;&lt;span style=&quot;font-size: 9px;&quot; class=&quot;hljs-attr&quot;&gt;&lt;font color=&quot;#6666ff&quot; style=&quot;font-size: 9px;&quot;&gt;name:&lt;/font&gt;&lt;/span&gt;&lt;font color=&quot;rgba(0, 0, 0, 0)&quot; style=&quot;font-size: 9px;&quot;&gt; &lt;/font&gt;&lt;span style=&quot;font-size: 9px;&quot; class=&quot;hljs-string&quot;&gt;&lt;font color=&quot;#cc662b&quot; style=&quot;font-size: 9px;&quot;&gt;job-for-ev1&lt;/font&gt;&lt;/span&gt;&lt;font color=&quot;rgba(0, 0, 0, 0)&quot; style=&quot;font-size: 9px;&quot;&gt;&lt;br style=&quot;font-size: 9px;&quot;&gt;&lt;/font&gt;&lt;span style=&quot;font-size: 9px;&quot; class=&quot;hljs-attr&quot;&gt;&lt;font color=&quot;#6666ff&quot; style=&quot;font-size: 9px;&quot;&gt;spec:&lt;/font&gt;&lt;/span&gt;&lt;font color=&quot;rgba(0, 0, 0, 0)&quot; style=&quot;font-size: 9px;&quot;&gt;&lt;br style=&quot;font-size: 9px;&quot;&gt;  &lt;/font&gt;&lt;span style=&quot;font-size: 9px;&quot; class=&quot;hljs-attr&quot;&gt;&lt;font color=&quot;#6666ff&quot; style=&quot;font-size: 9px;&quot;&gt;events:&lt;/font&gt;&lt;/span&gt;&lt;font color=&quot;rgba(0, 0, 0, 0)&quot; style=&quot;font-size: 9px;&quot;&gt;&lt;br style=&quot;font-size: 9px;&quot;&gt;    &lt;/font&gt;&lt;span style=&quot;color: rgb(215, 186, 125); font-size: 9px;&quot; class=&quot;hljs-bullet&quot;&gt;-&lt;/span&gt;&lt;font color=&quot;rgba(0, 0, 0, 0)&quot; style=&quot;font-size: 9px;&quot;&gt; &lt;/font&gt;&lt;span style=&quot;font-size: 9px;&quot; class=&quot;hljs-attr&quot;&gt;&lt;font color=&quot;#6666ff&quot; style=&quot;font-size: 9px;&quot;&gt;name:&lt;/font&gt;&lt;/span&gt;&lt;font color=&quot;rgba(0, 0, 0, 0)&quot; style=&quot;font-size: 9px;&quot;&gt; &lt;/font&gt;&lt;span style=&quot;font-size: 9px;&quot; class=&quot;hljs-string&quot;&gt;&lt;font color=&quot;#cc662b&quot; style=&quot;font-size: 9px;&quot;&gt;ev1&lt;/font&gt;&lt;/span&gt;&lt;font color=&quot;rgba(0, 0, 0, 0)&quot; style=&quot;font-size: 9px;&quot;&gt;&lt;br style=&quot;font-size: 9px;&quot;&gt;      &lt;/font&gt;&lt;span style=&quot;font-size: 9px;&quot; class=&quot;hljs-attr&quot;&gt;&lt;font color=&quot;#6666ff&quot; style=&quot;font-size: 9px;&quot;&gt;wasm:&lt;/font&gt;&lt;/span&gt;&lt;font color=&quot;rgba(0, 0, 0, 0)&quot; style=&quot;font-size: 9px;&quot;&gt; &lt;/font&gt;&lt;span style=&quot;font-size: 9px;&quot; class=&quot;hljs-string&quot;&gt;&lt;font color=&quot;#cc662b&quot; style=&quot;font-size: 9px;&quot;&gt;echo.wasm&lt;/font&gt;&lt;/span&gt;&lt;font color=&quot;rgba(0, 0, 0, 0)&quot; style=&quot;font-size: 9px;&quot;&gt;&lt;br style=&quot;font-size: 9px;&quot;&gt;      &lt;/font&gt;&lt;span style=&quot;font-size: 9px;&quot; class=&quot;hljs-attr&quot;&gt;&lt;font color=&quot;#6666ff&quot; style=&quot;font-size: 9px;&quot;&gt;schema:&lt;/font&gt;&lt;/span&gt;&lt;font color=&quot;rgba(0, 0, 0, 0)&quot; style=&quot;font-size: 9px;&quot;&gt;&lt;br style=&quot;font-size: 9px;&quot;&gt;        &lt;/font&gt;&lt;span style=&quot;font-size: 9px;&quot; class=&quot;hljs-attr&quot;&gt;&lt;font color=&quot;#6666ff&quot; style=&quot;font-size: 9px;&quot;&gt;key:&lt;/font&gt;&lt;/span&gt;&lt;font color=&quot;rgba(0, 0, 0, 0)&quot; style=&quot;font-size: 9px;&quot;&gt; &lt;/font&gt;&lt;span style=&quot;font-size: 9px;&quot; class=&quot;hljs-string&quot;&gt;&lt;font color=&quot;#cc662b&quot; style=&quot;font-size: 9px;&quot;&gt;schema-ev1&lt;/font&gt;&lt;/span&gt;&lt;/code&gt;&lt;/pre&gt;&lt;/h1&gt;" style="text;html=1;whiteSpace=wrap;overflow=hidden;rounded=0;labelPosition=center;verticalLabelPosition=middle;align=left;verticalAlign=top;fontSize=9;" parent="1" vertex="1">
          <mxGeometry x="160" y="460" width="220" height="180" as="geometry" />
        </mxCell>
        <mxCell id="TQDIP0-X2VnC3euwIfZ7-11" style="edgeStyle=orthogonalEdgeStyle;rounded=0;orthogonalLoop=1;jettySize=auto;html=1;entryX=0.995;entryY=0.63;entryDx=0;entryDy=0;entryPerimeter=0;" parent="1" source="TQDIP0-X2VnC3euwIfZ7-10" target="TQDIP0-X2VnC3euwIfZ7-5" edge="1">
          <mxGeometry relative="1" as="geometry" />
        </mxCell>
        <mxCell id="TQDIP0-X2VnC3euwIfZ7-12" value="" style="aspect=fixed;sketch=0;html=1;dashed=0;whitespace=wrap;verticalLabelPosition=bottom;verticalAlign=top;fillColor=#2875E2;strokeColor=#ffffff;points=[[0.005,0.63,0],[0.1,0.2,0],[0.9,0.2,0],[0.5,0,0],[0.995,0.63,0],[0.72,0.99,0],[0.5,1,0],[0.28,0.99,0]];shape=mxgraph.kubernetes.icon2;kubernetesLabel=1;prIcon=control_plane" parent="1" vertex="1">
          <mxGeometry x="61" y="342" width="50" height="48" as="geometry" />
        </mxCell>
        <mxCell id="TQDIP0-X2VnC3euwIfZ7-13" value="&lt;span style=&quot;text-wrap: nowrap;&quot;&gt;JobicoK8S&amp;nbsp;&lt;/span&gt;&lt;div&gt;&lt;span style=&quot;text-wrap: nowrap;&quot;&gt;controller&lt;/span&gt;&lt;/div&gt;" style="text;html=1;align=center;verticalAlign=middle;whiteSpace=wrap;rounded=0;" parent="1" vertex="1">
          <mxGeometry x="167" y="390" width="60" height="30" as="geometry" />
        </mxCell>
        <mxCell id="TQDIP0-X2VnC3euwIfZ7-16" value="" style="shape=image;verticalLabelPosition=bottom;labelBackgroundColor=default;verticalAlign=top;aspect=fixed;imageAspect=0;image=data:image/jpeg,/9j/4AAQSkZJRgABAQAAAQABAAD/4gHYSUNDX1BST0ZJTEUAAQEAAAHIAAAAAAQwAABtbnRyUkdCIFhZWiAH4AABAAEAAAAAAABhY3NwAAAAAAAAAAAAAAAAAAAAAAAAAAAAAAAAAAAAAQAA9tYAAQAAAADTLQAAAAAAAAAAAAAAAAAAAAAAAAAAAAAAAAAAAAAAAAAAAAAAAAAAAAAAAAAAAAAAAAAAAAlkZXNjAAAA8AAAACRyWFlaAAABFAAAABRnWFlaAAABKAAAABRiWFlaAAABPAAAABR3dHB0AAABUAAAABRyVFJDAAABZAAAAChnVFJDAAABZAAAAChiVFJDAAABZAAAAChjcHJ0AAABjAAAADxtbHVjAAAAAAAAAAEAAAAMZW5VUwAAAAgAAAAcAHMAUgBHAEJYWVogAAAAAAAAb6IAADj1AAADkFhZWiAAAAAAAABimQAAt4UAABjaWFlaIAAAAAAAACSgAAAPhAAAts9YWVogAAAAAAAA9tYAAQAAAADTLXBhcmEAAAAAAAQAAAACZmYAAPKnAAANWQAAE9AAAApbAAAAAAAAAABtbHVjAAAAAAAAAAEAAAAMZW5VUwAAACAAAAAcAEcAbwBvAGcAbABlACAASQBuAGMALgAgADIAMAAxADb/2wBDAAMCAgICAgMCAgIDAwMDBAYEBAQEBAgGBgUGCQgKCgkICQkKDA8MCgsOCwkJDRENDg8QEBEQCgwSExIQEw8QEBD/2wBDAQMDAwQDBAgEBAgQCwkLEBAQEBAQEBAQEBAQEBAQEBAQEBAQEBAQEBAQEBAQEBAQEBAQEBAQEBAQEBAQEBAQEBD/wAARCAJtAWkDASIAAhEBAxEB/8QAHQABAAMBAQEBAQEAAAAAAAAAAAYHCAkFBAIDAf/EAGsQAAAFAwICBwIGCgoLCQ4HAAABAgMEBQYRBxITIQgUFRYXMUEiUVJhcYGU0RgjMkJXWZOW09QZJCgpRmJjZ3KjCTM2N3WCkZeys9UlQ1RVVneSobQnNDhEU2VzdJWltbbB0mRmg4SisfD/xAAcAQEAAgMBAQEAAAAAAAAAAAAABgcDBAUCAQj/xAA8EQACAQMCAgcGAwgCAgMAAAAAAQIDBBEFIRIxBhRBUWFxkRMigaGx0TLB8AcVIzNCUnLhYpIWsoLi8f/aAAwDAQACEQMRAD8A6pgAAAAAAAAAAAAAAAAAAAAAAAAAAAAA/DzrUdpb77qG220mta1qIkpSRZMzM/IiIfsZe6TerUuVUndOaBKU3EikXabjZ4N508GTWfgpLGS9Vcj+559PSNLq6vcq3p7drfcu/wC3ic/UtQp6bQdapv2Jd7Jxq3rnOty3INVsdqHIYqjrjLE97Ki9jkpSG8ERlnyMz54P2cYM81V/UO97ocU5XbpqMolHnhm+aWiP4m04QXzEJffp/wDcSsE/5SV/pmKp3C0OjumWtvbuUYLiUprLWX7smlv8OzCIBreoXFeslKT4XGLx2bxT/M+tuXIZc4zMhxDnw0qMj/yiWW3q9qLarraqXdc1TTZ56vJcN9ky9S2ryRfNgxCNwbhIK1tRuI8FaKkvFJnGpXNWjLipyafg8GxNKOkRRb5eboVxtM0msrMktYUfAkn7kGfNKs/emZ55YMz5C4RzbS4pCiWlRkojyRlyMjGw+jtq1Iv2ivW/X5BOVqkoSfEUftSo/kTh+9STwSj+NJ+ZmK16T9GIWMHeWa9ztXd4rw+nlynWga/K7krW5fvdj7/B+P18+dwgACDEuAAAAAAAAAAAAAAAAAAAAAAAAAAAAAAAAAAAAAAAAAAAAAAAAAAAAAAAAAAAAAAAIpf+p1o6bU9My5ahtddIzjxGS3vv4+CnPl/GMyL4x/DVjUin6X2hIuGUlL0pZ8CDHM/7c+ZGZEf8UiIzM/cXvMhg65LqrV3VmRXrhnuTJslWVuLPkReiUl5JSXoRciEs6N9Gpaw3XrvFJd3NvuXh3v4LwjWva/HS17Gks1H6JeP5L9O8bm6Xt2TXlt2rQoFNjeSXJO5975fMkF8mD+UUZOqMqpTZFRnPKekynVPPOKPmtajyoz+MzMx53FIOKQtKx0q001NWtNRzz735t7ld3ep3N+83E28enoXFfy8aIafn73JX+mYru2KJJuiuxKHEWSFyVHuWZZJCCIzUr5iI+XqeCE91BWRaF6emfq5K/wBNQryz7mVatxQ64lo3Ux1GTjecGpCiNKiL48GePjwNLS1PqdV0vxcdXHnxywbGqy/jx/wh/wCiJxCp+lFTqKbViqrCJjrnV2qgo07Fu5wXs5+5M/Ll6+nmIxPsi7oMyREK3Km+lhxTZOtQ3FIWRHjckyTgyPzISKI5pHSKqm7ItfnyDju9Zj0zqykrJ0j3JI1mWMEePX08zEfl6q3tImPSmq9JYQ44paWkGW1BGeSSXLyLyGaj1hyfsctY348rfw2/13HNcl2nguk6w6pl9pbbiDNKkLIyUk/cZH5Ca6J3Q7bGp9AnIUZNyJaYL5Z5G28fDPPyGolf4pD+OtJoTenFJJEp6Ew4syLGVYMs/wCQiEIhzXoctiXFMyeYcS42eM4UkyMv+shsOC1CzcZLacfqjLQuHbVo1Y84tP0OmIDKlqdMWtR5KY98W1GkR8klT1P3NOo95mhZmlR/FlI0jaV5W3fNIRXLXqjU2Ks9qjTyU2vHNC0nzSrn5H8vkKW1LQ77St7mHuvtW69ez44LbsNXs9S2oT37ns/15HtAADknTAAAAAAAAAAAAAAAAAAAAAAAAAAAAAAAAAAAAAAAAAAAAAAAAAAAAAAAAAAAxX0s7yerepXdxt8ziUCOhkkEfs8dwiW4r5cGhP8AiCk0rNSiSksmZ4Ii9TEz16S/H1iutuVzWdQUsv6CkpNP/wDEyHh6d1KnU696PNqpoTFbkp3rX9ygzIySo/cRGZHn4hfmlUY2ml0lTWcQT83jL9WUlqteVe/qynz4mvR4Xoj3PCLUIqaVT7AUadu/g8VHG2/0M5z8Xn8QhqzW2tTbiDStJmlSVFgyMvMjIWUu09Sj1POpJhztp1PilO3HweBv3Z3eW3Z9782PQfbcFyaJzbqmMzLSmzJD0s0OzI8hRNuLNWDWkicIjLPPJFz8/UfKd9UTSa9plZ9zs8Hl+n0NNpeXmfwtzVezHLKp1lahWM5WmKO44uE8xMWyoiWozMlEkyP74y88YxyyWR61ArfR8uSu063mtLKlFcqcpqGh7tV5XDU4skpVg3PIjMhWupduQrPvCZRKepxUZBIca3nlSUqSR7TP1wZmXyYEv0ks+gwYDGr18V9dLo9IqjKYbbTRuOy5LaicJOCI8J5ehZPCuacZGjeWlpStnd05zjx7pRlPeUt1iKfNvfGDs2N9cXNWNGUYSUcZcox2iu+TXJLxIpqHbzFnXtWLaivLdYgSTQ0pzG40GRKTnHIzwZZEd4gtrV+36DecWpay2JXV1GCuUhqqRXWFNuw1mlKUq5lzSfsl8p8jPnim+KXuHV0q463awlJvjSSllYakkspp+vluc/UqPVrmUY/hbbjh5Ti28Yf67iytbl7byZL/AM3x/wD6j6qLVDsTTmHdVFhxnKrVprjCpbrZLOOhGcITnyM8Z+c/PBY9rU/TS8LruJmrUSntPRjhMt7lSEIPcRHnkZ59R/bT2x9QqC4dCuCh0yTbst3iympbjbxNmRfdoIjP2uRehly9PMczrNv1GnFzT4cNxyt0uz88eGDB73G9jxazOVfumU28K1EjoqtImoYTKabJByG1Ggtqvfjfn4sfGefE0m1Tq2lt0s1mGpbsF4ybqEMlezIaz7vLenJmk/Q+XkZkf41MvpdSmP2lRWoUWgU6SomGoTZJQ8aTxvMy5HzyZYwXPPM+YgfFL3DoW9lGvayo14+5PPu9yeNvz8GKd1O3qxq0niUe06hU6oQ6tT41Up76XosxlD7DifJbaiI0mXykZD6RUfRYrj9a0cpiJCtyqa+/CJR+ZpSvckvmSsi+QiFuCi7+1dldVLZ/0ya9GXbZXKvLancL+pJ+qAAA1DaAAAAAAAAAAAAAAAAAAAAAAAAAAAAAAAAAAAAAAAAAAAAAAAAAAAAAAAMXdMuyn6NfMS9o8dXU67HS084RcilNEScH7stkjHv2q9xjPXFHTDUawKJqZaUy0q6lRMySJbTyC9uO8n7hxPxkfp6kZl5GOdmpGnF16W3C7QLngqbPKjjSkkZsymyPkttXr6ZLzLODIhcnQzWqV7aRsqjxUprCXfFcmvLk/UqbpdpFSyupXkF/Dm857pdufPmj+Kb0ulNLOiJuGoFANOw4/WFbNvwcZ+5+LyHw0x3/AHRiF/Lt/wCkQ8jimPqpbv8AunE/9O3/AKRCZ+yjCL4VjJD/AGjfMsjXxzbqTML+QY/0CH32XclpXTp0vSm8K8dAcj1IqnTKktk3GNxoNKmnSLmkvaUZK8ufM+WFeP0gnNups0v/AMPH/wBWQrbimOXQso3mn0YtuLSi01zTS575XquRuU7yVpXlJJNPKafJp9m2H6Muy4KzZ2nOm1U0/ti62rkqtxyGXJ8qK2aY0dlpRGlCTPO5RmXmXoZ5xgs1DxR8PFMOKY3LOxVnGXvOUpPLbxlvCXYklskkl3Hi7vndSjsoxisJLOEufbl822y5NeavUoN3QWYlQksIOlMKNLbqklncvngj+IVo7Xau+2pl+qS3G1FhSVvqMjL4yMxOekQ4ab1gF/5nj/6bgq3imMOl0ouzpvHYYq1TFRo+7ihxR8PFMWv0ftF6lq3dDbkth1m3Kc4ldQlbTInMYPgIP1Wr1x9ynJ+4j2Ly6o2FCVxXeIxW/wCu99hktKFW+rRt6CzKX69O81x0YrekW9ozQ0y29j1RJyomnH3rqjNs/nbJB/OLVH4ZZZjMtx47SG2mkkhCEFhKUkWCIiLyIiH7H54vbqV7c1LmXOTb9WXxZ26tLeFvHlFJeiAAA1TZAAAAAAAAAAAAAAAAAAAAAAAAAAAAAAAAAAAAAAAAAAAAAAAAAAAAAAAA8a7LNte+aSuh3ZRI1ThLPdw3k80KxjchRYUhXM/aSZHzHsgPdOpOlJTptprk1s0eJ04VYuE1lPmnujKN5dBaHIfdl2FeSoqFHlEOpMm4lPxE8jngvTKDP4xDovQj1ZizWHzr1qLQ06lZ4lyMmRGR+rHmNvgJRR6a6xRhwOopeaWfXb5kZrdDtJrT41Bx8m8em/yMjap9E3Uu+rxkXFSapbzEZ5pptKJMp5LhGlJEeSS0ov8ArER+we1d/wCPbT+mSP0A3OIJrjd9ZsLSyuXbbzjSKhT0sKYN1sloyqQ2gyNPqRkoy+ce6PTbVaFONKDjhLC90xy6FaVNuTUs/wCRlP7B7V3/AI9tP6ZI/QB9g9q7/wAe2n9MkfoBucBk/wDO9X74/wDU8/8AhGk90v8AsZM1X6KmpF+XFFq9IqdvsMsQGoikypLyVmtKlmZkSWlFj2i9c+fIQxPQd1cMyJVftMi9/W5H6AbmAYqPTXVbemqUHHC/4nqXQrSpvial/wBjLFh9BylQZTM/UK6TqSWzyqBAbU00v4lOme8y+IkpP4xpmiUKj21S49EoFNjwIEVOxmOwgkIQXmfIvUzyZn5mZmZj7gHG1LWb7VpJ3dRyS5Lkl8Ft8eZ29O0iy0qLVrBJvm+bfxe/w5AAAcs6QAAAAAAAAAAAAAAAAAAAAAAAAAAAAAAAAAAAAAAAAAAAAAAAAAAAAAAAAAAAAAAAAAAFVdKLnobcKPhu09H/AEp8cv8A6i1RX+vFrV69NL6lbltQeuVCTLpriGeKhvKG5zDjh7lmSeTaFn588YLJmRACwAAAAAAAAAAAAAAAAAAAAAAAAAAAAAAAAAAAAAAAAAAAAAAAAAAAAAAAAAAAAAAAAAAAAAAAAAAAAAB5d0/3MVf/ANQkf6tQ9QABg3oqQrAp+nkKXpLqH0cpOoqrKQ5DhWdasKJcpPIabccalv8AX31vEo0bHcsIM1HuygyITHU7XbVR236LeFrX7S7Stm8KjPegVWvz41GZhsR22m48brD9Mmp3SFpkuk240TiyIktuINO1WwRCtYb1qun1lJuOix4j0pVaolNJEpClN8OZVIsRw8JUk9xIfWaeeCUSTMjLJGBR0vUzWKRWF1aRfi6cmipsxUmkQqWyUOYupvEzLJw5cZMtCfa3ILLK0KItxGWUCs6LqdfOm1u27FpesL7kY7quBiZTOJSSq1QlnWnkky3HkRkInESD3Ljx5MaUgnSWnikptBbyAAf4k9xEeDLJZwfmP9AAAAAAAAAAAAAAAAAAAAAAAAAAAAAAAAAAAAAAAAAAAAFVaSaHadW3o7TrLqVpWVW+26PCK6ZcOixUw7mmEwgnZj6Eo2P8VZKc3LI87hJZujekNSo1Etyo6V2fKpNtOE9RYD9Dirj0xZcyVGbNG1ky96CIwBMAEf8AD2wO+XiN3Ht/vZ1fqnb3ZjPaPAxjhdZ28XZjlt3YHnwtG9IabRq3blO0rs+LSblcN6tQGKHFRHqaz5mqS2SNrxn71kZgCYAIfN0b0hqVGoluVHSuz5VJtpwnqLAfocVcemLLmSozZo2smXvQRGPQ8PbA75eI3ce3+9nV+qdvdmM9o8DGOF1nbxdmOW3dgASABD4WjekNNo1btynaV2fFpNyuG9WoDFDioj1NZ8zVJbJG14z96yMwm6N6Q1KjUS3KjpXZ8qk204T1FgP0OKuPTFlzJUZs0bWTL3oIjAEwAR/w9sDvl4jdx7f72dX6p292Yz2jwMY4XWdvF2Y5bd2B58LRvSGm0at25TtK7Pi0m5XDerUBihxUR6ms+Zqktkja8Z+9ZGYAmACHzdG9IalRqJblR0rs+VSbacJ6iwH6HFXHpiy5kqM2aNrJl70ERj0PD2wO+XiN3Ht/vZ1fqnb3ZjPaPAxjhdZ28XZjlt3YAEgAQ+Fo3pDTaNW7cp2ldnxaTcrhvVqAxQ4qI9TWfM1SWyRteM/esjMJujekNSo1Etyo6V2fKpNtOE9RYD9Dirj0xZcyVGbNG1ky96CIwBMAEf8AD2wO+XiN3Ht/vZ1fqnb3ZjPaPAxjhdZ28XZjlt3YHnwtG9IabRq3blO0rs+LSblcN6tQGKHFRHqaz5mqS2SNrxn71kZgCYAIfN0b0hqVGoluVHSuz5VJtpwnqLAfocVcemLLmSozZo2smXvQRGPQ8PbA75eI3ce3+9nV+qdvdmM9o8DGOF1nbxdmOW3dgASAYq6ffS2p+hU6jaeX9p9VlUGuTaDX6TcFNfbeJ9dOrUWVOiuMOcPYtDLKTSaVrJRvNke3JmnUsLRvSGm0at25TtK7Pi0m5XDerUBihxUR6ms+Zqktkja8Z+9ZGYoTpdaQ9Ei+NPbb0i1KqtGs+FblTjTaTFosJKXoTCVFxo6GY6DNll5o1JPBJSSti8GaCIZqFtWup+zoQcpdyTb9EY6tanQjx1ZKK728L5ly9H3Vipa5aU0fVWdZMi1Y1w8WVTIMmWT7zkDeZR5CzJCSQbqCJwkFuIkrT7R5FjCDWhaeilYqMLUyx7Ws6VU2YKKbFr1Pp8ZUtuIhBJTHTISniJQlJEnh7iIiLGCH0wtG9IabRq3blO0rs+LSblcN6tQGKHFRHqaz5mqS2SNrxn71kZjHOEqcnGaw12M9xkprii8omACHzdG9IalRqJblR0rs+VSbacJ6iwH6HFXHpiy5kqM2aNrJl70ERj0PD2wO+XiN3Ht/vZ1fqnb3ZjPaPAxjhdZ28XZjlt3YHk+kgAQ+Fo3pDTaNW7cp2ldnxaTcrhvVqAxQ4qI9TWfM1SWyRteM/esjMJujekNSo1Etyo6V2fKpNtOE9RYD9Dirj0xZcyVGbNG1ky96CIwBMAEf8PbA75eI3ce3+9nV+qdvdmM9o8DGOF1nbxdmOW3dgefC0b0hptGrduU7Suz4tJuVw3q1AYocVEeprPmapLZI2vGfvWRmAJgAh83RvSGpUaiW5UdK7PlUm2nCeosB+hxVx6YsuZKjNmjayZe9BEY9Dw9sDvl4jdx7f72dX6p292Yz2jwMY4XWdvF2Y5bd2ABIAEPhaN6Q02jVu3KdpXZ8Wk3K4b1agMUOKiPU1nzNUlskbXjP3rIzCbo3pDUqNRLcqOldnyqTbThPUWA/Q4q49MWXMlRmzRtZMvegiMATABH/AA9sDvl4jdx7f72dX6p292Yz2jwMY4XWdvF2Y5bd2B58LRvSGm0at25TtK7Pi0m5XDerUBihxUR6ms+Zqktkja8Z+9ZGYAmACHzdG9IalRqJblR0rs+VSbacJ6iwH6HFXHpiy5kqM2aNrJl70ERj0PD2wO+XiN3Ht/vZ1fqnb3ZjPaPAxjhdZ28XZjlt3YAEgAQ+Fo3pDTaNW7cp2ldnxaTcrhvVqAxQ4qI9TWfM1SWyRteM/esjMJujekNSo1Etyo6V2fKpNtOE9RYD9Dirj0xZcyVGbNG1ky96CIwBMAEf8PbA75eI3ce3+9nV+qdvdmM9o8DGOF1nbxdmOW3dgefC0b0hptGrduU7Suz4tJuVw3q1AYocVEeprPmapLZI2vGfvWRmAJgAqTU+mdGjT+0aHD1IsmyWqLb7nEt6lv0KM8mI6nnmFH4Zk2ouXtIJOMlkyGVdU+lbRaxeT146W6X29RbiVHOEV3zaXHdrao+DTsS7tM20Yx7JqX8wkGj9GNS1xp2tP3P7ntH17fhlnNvtWtdP2qy37lu/9fE6CgOQxWnOTZU680t00qRU6s5TZ0QkJxKfW3xlm6xt2LbUR892SM+RkLk066Rlis0a3rI1j0Ts65LftlxK6KpmgwyVSlFjDjMdSOClRYzlsmz+MxIr/wDZ1f0KXtLOoqrWzS2afall4fqn4HMt+k9vUnw14uGeT5rH5frc6KgK009n6D6p15WrlkUW2Z90NR0w36x2Yyirx2jLBMuOqQTyUYIyIs7TweM4HMvwX6G34z+6vpzn1iBV6FW2qOlWi4yXNNYa+BIqdSFWKnB5T7UdStEO5vgvYHhz1vun3XpXYPW88fs7qjfVuJnnv4WzOfXImojOmM2s1LTa06jcdrtW1VpVDgPz6KynaimSFR0G5FSXoTajUgi9yRJhiPYAAAAAAAAAAAAAAAAAAAAAAAAAAV9q3rjYWjMBiTdsx9cuYlSokCK3xH3yTjJlkySlOTLmoyL3ZPkLBHOnpp3P3g1ynU9Dm5qgwo1OTg+W7aby/n3PGR/0RJ+iWiU9d1FW9bPAk5PHPbCx6tfA4mv6nPSrP2tLHE2ks/ruR9eqPTQ1MvfjU21DK1KUvKf2o5umOJ/jP4I0/wCISTL3mKAffflPLkyXluuuqNa3FqNSlKPzMzPmZi6ejdqLo5Zb8+l6r2NDrSarKjJjzZVNYlogoLcS1K4mVEn2kmewjPCfI8ELVrHR+0t021qpt43Y60vTWrpclwFLInIbEzbvRHfVzI2FJJSm/MlYJB5IjNVt076w6OVZ2NO2cFwtxaWfaYWWk+bkvEr+drd6zTjdTrKTziSbxwZeE2uSXkZrsqv6lWHHXfdkVCqU2KxITEfmRjM2OKZbktvJ5pURlkyJZGR4PHkNPaW9PJhzg0rVqh8FXJPatMQZp+VxgzyXvM0GfxIIe5H6S3Rsg6e3IukWBChQ3nzhlRG6dHjnWFbeSzQ3kiQRYytZeznBEZ4I8P1CRHlT5MqJBbhMPOrcajNrUpLKDMzJBKUZqMiLlkzM+XMYYWVHpX7VanZum4vEZbKXLvXd8Y/HKMkrmroPA7K5U01lrmufd4/B/A680WtUq46RDr1DmtzIE9lMiM+2fsuNqLJHz5l8h8y8jH2jP/Qiuft3RJmkuOZdoFRkQsGfPYoyeSfyfbVEX9H4hoAUnqti9Nvqto9+CTS8V2P4rcsywuuu2tO4/uSfx7fmAABzzbAAAAAAAAAAAAAAAAAAAAAAAAAA559OW6e3NZ+w2nSU1b9NYimkj5E65l5R/LhxBf4o9/TTo/6c3vbR6xot64pFJbiumzZ7DqVSJsljalw2XzUS3GDMz5ESVkrJEZ4IlUzc6KzrPq9cU6irim7VKhLltKly2ozSI6VHt3OOqSksIJJeeeQ0lX7Ys6gWbpJdVf1vRa0G3KWuPEdoTKp/Wpu4jkm061uRzMtqspUR4URljIvi9c9J06z063qOFTGHwqUn+Fya4Y5eZSWFJbxXE0+ZXlBK8uq11UipRzlZwlzSzl7bJ8uT2yfI5edoStAE3A10eaGcFd5lSk28jik6f7W28QnUpJfWN3sbtvlyxnmI1qP0erAsC2lavyaLcKaS5Ga32hIcSmTAkv7ktm/ISo1IYJRFj2TWZmlJmWTxqwq5cXbnf0q/Sy047t9qlE6kvtAnTLi8fbt3Y4eeXnnlszzFBUC2LOr9l6t3Nb2t6Lqg3HTG2Zb1eZVB6tN3GcY3XXdqPM9qcJSReyRFjAjOm6tUhJ1KblThxR4knUnlTklwOTWISisvi/E3hJnVurOMkoyxKWHjKiscKb4kuck3jbkueCtOg5dR0LWkqI46SWbgpz8TBngjdbInkn8uG1l/jCjfGjobfiwLq+gufUJTb6Kxoxqzb9QrSohPUifEmuKiTGpLTkc1EasONKUkyNBqLzzzFrfvyX81X9QNT9pVtBX9K9pPMakOa7XF8/Roz9Fqr6vOhPnF/X/aZtrTGFWabptadOuO6Grlq0WhwGJ9aZVuRU5CY6CclJP1JxRKWR+5QkwhWiHc3wXsDw5633T7r0rsHreeP2d1Rvq3Ezz38LZnPrkTUVwScAAAAAAAAAAAAAAAAAAAAAAAAAD8rWhtCnHFElKSNSlGeCIi9THJG/rkXeF71+6lqM+1qlIlpz6IW4ZpL5kmRfMOsVcphVqi1CjHIXHKfFdim6j7pveg07i+Ms5HKXUbT64dMLunWdc0fhyoasocSR8OQ0f3DqD9UqL/ACHkjwZGQtT9mLoKrcZl/EajheG+X64IJ03VV06OF7mXl+O2PzLH6N3R2a1xfnz51xnToFFlRkymEMb3ZDbm4zJC8kSDwgyyZH55xywLzsvUXSmZd1xdF2qVE6tZcxw4dCkSV7iYdPBqhIdMzNSUOZ4Lh8yNJJI1ewYxChC3VpbbQpa1mSUpSWTMz8iIhLa3pPqFQm35L9oVx2HFY48iWmjzGmWUkklL3m60g07dxbjMtvuMyMjOaaroyv68uuXLUWv4ccJcElj3k85cs8uWzaI1Yai7SlHq9HLT995b4k8+7jsWPPdJmrD6CVtwbMrcOo3ig6kl85dNqqmeCiM0lJ5bkJNRkpB4IzUWDSZZLlkjxZUYfZ9QkwOtR5PVnls8aOve07tUZbkK++SeMkfqRkJdUvFmw7OetKsUev29Q67JTIeblQHYqZq0JLak1LSW9JFz2keMmRmR4LEJG3odpfW/tJ3dyqyk/dwksYWHyzjPctts82zBqle1rcEbeh7Npb5bf1+vPs5JGtP7H7c/V7kuqznHOU6EzUWkmfkplZoXj4zJ5P8A0RtoYh6C2llwSLmf1XlkuLR4jD0GLksHMdXgl496EER5P4WCL7lWNvCnunjoPW6jovLxHi8JJYx6JZ8SxOiqqrTIKosbvHlnOfqAABDSRgAAAAAAAAAAAAAAAAAAAAAAAAAc+elx0eF6bVxd+2rHcXbVYfM32yI1dQkqMzNJn/5NR5NJn5HlPwc+Z0drwplwQZOi+o1vJrNmLN6uLkm4pC6IbDZrckEoiyTZknBp5ZNeCzuNKuhVdoVIuajzLfr9PanU6e0piRHdLKXEH5l7yP1Iy5kZEZYMhg6+OhxrTal0VSLpfHfq1AnoW02+1U2IrqoqzI+ryErWjfgyLOCNKtpKwR+yVvdH+k1vrOnPTdUqqFWGOGcnw8uT4srE4+e/juQrUtKq2Nyrq0g5QlzilnzWO5/L0J0WqulC9YfGlOvraacmF2cq3F23K3dS246qXPaZGr292MbvTHIVb0ibwptuwY+i2nNvIo1mJNmuIkpdU4utm+2S25ClnzNsiUREnng0FnG0kp8n7D3pGfg7/wDe8H9MJfY3Q51puq6aVG1Riv0qgQUIadfdqbEp1MVBmZR2EocXsyZmRZIkp3GrB42n2qMdB0yrG7d7GcaccKPFB/h/C1GCXFKOZJZTe/eaM3qN3B0fYOLk+eJdvPeWcJ7csLY/l0Sujl4l1VN+3hEWVsUx4ursrSZFUZCT+5+NpJ/dH6n7PwsUJ4L9Db8Z/dX05z6x1yo1GpdvUqJQ6JBahwILKWI7DRYS22ksERf/AOyORvjR0NvxYF1fQXPqFT9I9fr9Ibx16m0FtGPcvu+1/kkTHTNOp6bQ9nHdvm+9/buOrOmM2s1LTa06jcdrtW1VpVDgPz6KynaimSFR0G5FSXoTajUgi9yRJhGdMYVZpum1p0647oauWrRaHAYn1plW5FTkJjoJyUk/UnFEpZH7lCTCPnSAAAAAAAAAAAAAAAAAAAAAAAAAACoekfoTA1ptEyhIaYuWlpU5TJKuRL9VMLP4Csef3qsH5ZI7eAbdje19OuI3VvLE4vK/Xc+TMF1bUryjKhWWYs4+TqdMo1TfpdZhPx5MN5TEmOstjiFpPCkHkjwZGRl5DRDXSstuoExSpun1Qiw3iNh5xVwkpCErjIjG4aUxNxmlCdxY55M8eY01qp0V9L9W7hK6a2dVptSW2lt96lvNtdZ28kqcJbayNRFyyWDwREecEKov3oeaHaf0OLXqlWb6ksyq1R6IlDEyHuJ2o1GPBaWe5gi2pclIUr12pVgjPBHbNbph0f1alTlqEZKaXJcWzeM4aazy2yQCn0d1awqTjaOLi3243S5ZytvgUb0hL2tK9F05+gXO5VHWJUtSWWSxGjsOKSrPtQYq+IpWc7uMeE5U4Z+fl9H/AESqutV5IphcWPQ4Bpeq0xJf2tvPJtBny4i8GRe4iNWDxg9U/YC6Pf8AKS8vpkX9XF2ab6bWppVbDNqWhCUzEbWp1xx1RKekOn5uOKwW5XIi8iIiIiIiIsDWu+m9hp+m9U0hyc+ScljGd2/F923Pd+Oa36M3d3e9Y1DCjzaT547PLv8Ake3RKJSrbpEOg0OC1DgQGUsR2GywltCSwRfH8p8zPmY+4AFTSlKcnKTy2T+MVFYXIAADyfQAAAAAAAAAAAAAAAAAAAAAAAAAAAAAAAAAOf8A+/JfzVf1A6ADkB4L9Db8Z/dX05z6wB1K0Q7m+C9geHPW+6fdeldg9bzx+zuqN9W4mee/hbM59ciaiM6YzazUtNrTqNx2u1bVWlUOA/PorKdqKZIVHQbkVJehNqNSCL3JEmAAAAAAAAAAAAAAAAAAAAAAAAAAAAAAAFVdJb+91SP+cCxP/mqli1RS3SOum2Zdtw7Ri3HS3q7AviwJUumNzG1S47Dl1UwkOOMke9CFGR4UZER4PAAukB5dvXTbF3QXKnadx0utQ2ZDsRyRTpjclpD7atrjRqbMyJaVEZKTnJHyMeoAAAAAAAAAAAAAAAAAAAAAAAAAAAAAAAAAAAAAAAAAAOQHjR0NvxYF1fQXPqHX8c//AN+S/mq/qABtrTGFWabptadOuO6Grlq0WhwGJ9aZVuRU5CY6CclJP1JxRKWR+5QkwhWiHc3wXsDw5633T7r0rsHreeP2d1Rvq3Ezz38LZnPrkTUAAAAAAAAAAAAAAAAAAAAAAAAAAAAB+VrS2k1rUSUpLJmZ4Ii94A/Qwf8A2UDoa3X0habaGoGktH63eVKms0Kc0hRI6xTX3fYcWr4Md5Zr/ioedWf3BC+tUemFpZp9xqfRpR3TV28p6vT3C4CFe5b/ADSX+ISzL1IhkrUDpYazX1OJ6Pc8i3Yba9zMSjOrjEn+m4R8RfxkatvuSQl+kdCdU1VKo4+zh3y2z5Ln9F4ke1DpNY2D4FLjl3R39Xy/M3roppRb2h2lVs6UWunMC3ICIvGNO1Ul48qekKL0W66pxxXxrMTYYT0t6dF32/waXqXTCuGCnCevRyS1NQXvMuSHeX9E/U1GNcad6xadapxCkWZcsaW8lO52Gs+HKZ9+5pXtY9NxZT7jMaGr9GNS0Vt3FPMP7o7x/wBfFI2tP1yy1LajLEv7Xs/9/DJNAABHzrgAAAAAAAAAAAAAAAAAAAAAAAAAAAAAAAAAAAAByA8F+ht+M/ur6c59Y6/jkB40dDb8WBdX0Fz6gB1Z0xm1mpabWnUbjtdq2qtKocB+fRWU7UUyQqOg3IqS9CbUakEXuSJMIzpjCrNN02tOnXHdDVy1aLQ4DE+tMq3IqchMdBOSkn6k4olLI/coSYAAAAAAAAAAAAAAAAAAAAAAAAAAAGHenVqVXHL1iac0ysSWKVDp7b86My6aEvPuqUZE4RfdESCbMiPkW4xuIcsNfLn74ay3dXUucRpdTdjsqzyU0zhlBl8RpbSYn/7OrGN1qkq81lU45+LeF8skT6YXToWKpReHN4+C3f5EAGuNHujt0eb20+olbuS83Wa5LhuSZsVqtR2za2Gs1GbZpNSSJCdx58iIz8hnjTW0qdc0+pPVyBVZNPplLlT1N091LLjzjSCNLZOKbcSnOS+8MxOtJ16dO3PPRTbAvJl1FCrjbinrhYdSSezJO9GCgJwtScpSZn7KjIzSrG07O6QyrV6EoWtSUJU/ebjw9z2eZJ+O2SEaQqVKrGVeEZKWyUs963WEz4+kjp5pnp3cVJp+mNwdrQ5UJT0lztBqXsdJZkRbmyIi5EXIxU8GdNpktqoU2Y/ElMKJbT7DhtuNqLyNKiwZH8ZCy7Qt3TO86+m2o1k3tAfcafPrDlwR30sLQytxO9soCDMjNGMbk+fmKxeYejOGzIZW04nzQtJpMvmMdHTHKFFWleUpTillyxlpt4eza7MGne4lU6xSSjFvZRzhNY70jpx0Zr8qGomjVDrlZmqlVNgnYM15Z5UtxpZpSpR+qjb4ajP1NRi0hkf+x+XNxqHddnOOYOLKYqTKTPzJ1BtuGXycJv8A6Q1wPz/0nslp+r16EVhcWV5S95Y8s4La0S5d3p9Kq3l4w/NbP6AAAcE6oAAAAAAAAAAAAAAAAAAAAAAAAAAAAAAAAAHP/wDfkv5qv6gdAByA8F+ht+M/ur6c59YA6laIdzfBewPDnrfdPuvSuwet54/Z3VG+rcTPPfwtmc+uRNRGdMZtZqWm1p1G47XatqrSqHAfn0VlO1FMkKjoNyKkvQm1GpBF7kiTAAAAAAAAAAAAAAAAAAAAAAAAAAAPgr8ioRKFUpVJjnInMxHnIrRFk3HSQZoT86sEOQj5Pk+4Uklk8Sz4m/O7dnnnPPOR2KGM+mV0eOCuTrDZUD7Ws99eiNJ+5P8A4Uki9D/3z4/a9VGVi/s81m30+6nZ19va4xLxWcJ+edvHbtIf0v02td0I3FLf2ecrweN/hjfwK60D6VXgfZ0u0u4fbXWqk5UOsdqdW27mmkbNvBXnHCznP33ly5+lpz0wvD+r3hVfDvr/AHsrbtY4fa/C6tv/AN7zwVb8fCwn5BnWMhDklptxO5KlpSouIlvJGfw1ck/KfIvMxo6qW50fWEzuDTLYidViR6o0hyuuSXnUIdWmRFPq89bRuKSSFIJDhrwo8kR8in+q6Vo9GpOVe3lN1vxcLe+Gua4ljfHJETsL7UakIqlWUVT5ZS7U/wDi8/E/nY/TC7mXre14eHfXO+MuNK6v2vw+q8JCk7d3BPfndnOE4x6iotYNRPFfUSrX92P2X2pwP2p1jj8PhsNtfd7U5zw8/cljOOeMj1tWqXacBuC/ZFKthFGkIZdYmwawuRUHVKZSpxEiOuQtTO1ZrLmyjyIsmfnCbct2s3bXYNtW9BcmVGovJYjsoLmpR+8/IiIsmZnyIiMz5EN/TNO0yhJ6nQp8EnHhbbe0YpLDXE0sKKz27b75NS9u72qlZVZ8SUspJLdvO62Tecvw327C+ugm/VmtZJLcGO45Deo8hE1ZF7LSN7akKP496UkX9I/jHQIVxoVozRtFrLaoUThyKpK2v1WcSech/HkRnz4acmSS+U/NRixxSPSzVqOs6nO4t17qSin347fj2eGCzdA0+pptjGjVfvPd+Gez9doAAEaO0AAAAAAAAAAAAAAAAAAAAAAAAAAAAAAAAAByA8aOht+LAur6C59Q6/jn/wDvyX81X9QANtaYwqzTdNrTp1x3Q1ctWi0OAxPrTKtyKnITHQTkpJ+pOKJSyP3KEmEK0Q7m+C9geHPW+6fdeldg9bzx+zuqN9W4mee/hbM59ciagAAAAAAAAAAAAAAAAAAAAAAAAAAA/D7DMllyNJZQ606k0ONrSSkrSZYMjI+RkZeg/YAnjdAwjrN0Lr7h3jImaS0RuqUGcZvtRzmssuQlGfNo+MtO5JfemRmeOR8yydeyeiXr/CbJ6ZYrTDanG2SW7WoCSNa1khCcm/5qUpKSLzMzIi5mOmAqrpLf3uqR/wA4Fif/ADVSxPLb9our29GNJxhLCxmSll+eJLf4EVrdD9PrVHUTlHPYmsLyymYq+xA6RX4PP/e0H9MNVdFro3+EdOdue72GHLsqCDbNKVE4mAxn+1pUXI1qwRqUXLySXLJq0AA09W6b6nrFs7Wqoxi+fCmm13PMnsbGn9GbLTqyrw4pSXLiaePHZLcAACHkiAAAAAAAAAAAAAAAAAAAAAAAAAAAAAAAAAAAAADkB4L9Db8Z/dX05z6x1/HIDxo6G34sC6voLn1ADqzpjNrNS02tOo3Ha7VtVaVQ4D8+isp2opkhUdBuRUl6E2o1IIvckSYRnTGFWabptadOuO6Grlq0WhwGJ9aZVuRU5CY6CclJP1JxRKWR+5QkwAAAAAAAAAAAAAAAAAAAAAAAAAAAAAAAqrpLf3uqR/zgWJ/81UsWqOfP9k91o6QXR/lWzctru0utad12oUh04NRp5KKmVylVFqpM4eaNtw0SerISaFqV7LL+3YZpMgOgwCtejmWrjujlu1PXSrlNvWrMKqdSaTDajIgcdRuNwkobSX9pbUhszVuUakqM1HkhZQAAAAAAAAAAAAAAAAAAAAAAAAAAAAAAAAAAAAAAAAAA5/8A78l/NV/UDoAOQHgv0Nvxn91fTnPrAHUrRDub4L2B4c9b7p916V2D1vPH7O6o31biZ57+Fszn1yJqIzpjNrNS02tOo3Ha7VtVaVQ4D8+isp2opkhUdBuRUl6E2o1IIvckSYAAAAAAAAAAAAAAAAAAAAAAAAAAAABQXSZ6TMjRR+FbNu0aPPrtRinL4kpR8GM0ajQlRoTg1mZpXyyki2+vkN7TtOuNVuI2trHMn8OXNtmreXlGwouvXeIovKqVal0OA9Va1UosCFHTudkSXUtNtl71KUZEQytrn0rtCq8wxaT1hI1EhRKhGqB9ZV1eI3IjuE4042pSFKWpK0l96SVFksqSoyPOdRl699IeqFKejXBc2Fnw0MMKKHHP4iSRNN+7J4M/UzExj9Dm9aVRHbi1Lu627LgtpM8zpfFXvxkkns9jJ+4lmfuIxY9n0Q0bSmv31cKU3/RFv6L338EiHXHSHUb5P920nGP9zX5v3V8zXGl3SZ0q1UJmFTq0VLq7mC7MqRk06pXubVnY58RJPdjzIha45fHZuiktR0Olatz26sjkmoz6KbNJfX6JJaVqfbL+OtvHLJkXpYlu60dIfo+piNXGjvJaz2CivSH+txH2/Tq01s1Y5FySZmSS+8Iaup9BqNSedLqNN8oVE4t/4tpZ8mtu1mey6UVIRxfQTS5yg1JL/JJvHn29iN+gI1pvfNN1KsekXxSmVsx6qxxOEtW5TTiVGhxBmXntWlSc+uM8hJRXFalOhUlSqLEotprua2aJjTqRqwVSDymsryYAAGM9gAAAAAAAAAAAAAAAAAAAAAAAAAAAAAAAAAcgPGjobfiwLq+gufUOv45//vyX81X9QANtaYwqzTdNrTp1x3Q1ctWi0OAxPrTKtyKnITHQTkpJ+pOKJSyP3KEmEK0Q7m+C9geHPW+6fdeldg9bzx+zuqN9W4mee/hbM59ciagAAAAAAAAAAAAAAAAAAAAAAAAAAA5ydJCRUNUekxPtujKS48qbFt+ESz9lLhbUKyZeRE6pwzP0IdEqjPjUqnyqpNXsjw2VyHVe5CEmpR/5CMcz9J6vJqOpVw6nzzy/RadVrkcMz/8AGVIUlnn/AOsPtcxYn7P6UqUrq/it4Qwv8pPb6Y+JD+ltRTjQtG9pSy/Jc/rn4Fn3L0oafpdIqNp6KLrU6MwZxG5VdqC5cWNsPafVGVGaiTy5GtZlj7zApd5rWbXatHUFxrhuyZuNPEQytxpjPoWC4bSfiLaQ9/o3WVSrtu6qVCv1xiiU6gUtdQVU5cOPJiMPcVtCCeRISptRKJS8FyUZpyR8hdtwdNVmyqKds2iqnXdUY+W26qilLpcFCS8sMcRSnD+Thp92RNZx/dFw7fSLZVa+FxTk3ndc3Lhx4tcSfgyNRl+8KSrahWcKW+IrGNu5Zz8eFrxKgndELWyl0VNcqtJpMGOR5kdaq8drqqOXtuKUokEnn6KM/iHlN07WXRaGurUqU3Ltucex+RBfZqlFmeRGh0k72TP0wsiV7vePOrt4aydIC4EQpkqrXFLUrezAitnwGC8tyWkESEEReaz9PMxJ7RtOu6d1A2qRrza9vXQ8W1dJKY47HWXqzJfShUTd5lsWo058zL06Mqt5Cl7PUZ0pze7goSax4vMmkv7nHC+ZpqFvKpx2cZxiuUnJZz5bJv8A4qWS8ei/0nLOlvQNLZtoNW5JqEpfU1QHFKgqfcyo0EhZmpncrOEkak7lfekeBrMc7Jbtv0G7qTUdULClaeXHDlMT4laocfiUuWptaVpcVGIzSafZLK4y8ZP7gxvy17ttm9qQ3XrTrcSqwHT2k/GcJRErBGaVF5pUWSykyIyzzIVX0y02jQrQvLWElGpnO/FHi71PLTz5523SJ30cvalWnK2ryTlDlth47nHZrHljxZ64AAhJJgAAAAAAAAAAAAAAAAAAAAAAAAAAAAAAAAAOQHgv0Nvxn91fTnPrHX8cgPGjobfiwLq+gufUAOrOmM2s1LTa06jcdrtW1VpVDgPz6KynaimSFR0G5FSXoTajUgi9yRJhGdMYVZpum1p0647oauWrRaHAYn1plW5FTkJjoJyUk/UnFEpZH7lCTAAAAAAAAAAAAAAAAAAAAAAAAAAAP4ToUWpQpFOnMJejSmlsvNq8loURkpJ/EZGZDBesWkCuj5aV6xWZfWIN3T6fT6O4avtpQ0qckvIX8aVssJMy8ywfrgt9il+lPoxO1gsJtNCcPtuhOLmQmDPCZJGnC2fiUZEW0/eREeCMzKU9E9W/d99GlWnw0Zyjxd2YvMX4bpJvubOFr9h1y1lUpxzUinw/FYa9OXjgxAszoGgTTZGbb94XIpasebkWAwRFn4uLLV86BI2La0e0kgLjar0qddF6FtWqhQZ6mYkIlJJSUSXUpJROFnmltSyLyPA+2RbaJmpGk+lE1HCYotNgv1VpwsG0uQtU+VuL0MmnEkefLYKgvG4Hrsu2tXQ/niVaoSJqiP04jilY+bOBc1vCV/LgUnGMszbi8NpyxT3W6TjHfGHst121vVkrVcXCm1iKyspNLM9ns3xPbO3PYlNx6v3ndcZVrW/DiW5Q5CtqaJb8bq7Tx4wXF2/bH1GRFk1mrJ+hD9xejxrdNoyq9H0yrhxE88Kj7HlF70sqMnFF8ZJMav6KWmzydHKHelpXEdGrFSOX1o3adHlMP7JTrad5GlL3JKElhLyS+IWXKvPVmn3VAsF6hWnKqNThyJzFTTOkssJaYU2lw1xzbWolZeRhJOmRlnKixzit50udhcVLLS6MPcclLibTfDnifJZ5Pfik+3B3rfo+rqjC5vqkveSxhJrfku3v5YSOfNC1D1A06S9a01o3qZu/bVv12Ib0RR/Gw4WW1fxkbVfGNHdFbW7Ry36tOoDcOoWnJuR+OSYLr6pVOKSWUkbLp/bGt+8iMnNxFtT7foLX1s00qdw6X3TWtQbnZqj9Kos2bFiwaWzGjNPNsLWgyU5xX+Skl5OkR+pDnIha21pcbUaVJMlJUR4MjLyMh0bPqPTSxqxceCWUpODeG+abylnl2xz2Jmncda6NXVNp8S5riSylya2bx8H8DsYA8GwrkReFkUG6kGR9rU2PMURfeqW2SlJ+YzMvmHvCjKtOVGbpz5p4fmi0YTVSKnHk9wAAPB6AAAADzbguSgWpS3a1ctZh0uAz93IlPJbQR+hZPzM/Qi5n6D0hgrp5XY7VNTqbajUhSo1DpqFra3ckyHlGpR49/DJod7o5ov7+v42jlwxw23z2X3eEcrWdS/dVo7hLLykl4ssTVHp30Km8al6VUY6rILKSqc9Km4xH70Nclr/xtnyGM0y+kXrZMuVN1L1Fq7c1B5Q207sjJL4PAIuEafiNJ59ciNUSu2nT7dq1MrFjNVWqTCxBqaqi8yqAeMZJpB7HOfP2hcVPtenU+pU6xKr0RH5tyHTUSlpVck1t2U2n2FyNiV7UkayVyLkXkQuKhpGk9H4OnG24m87ydNuSSWX781tvhpJeKxhldVdQv9WkpyrYxjZKeE87L3Yvfu3fmWRpd08mXODS9WaFwlck9q0xBmn5XGDPJe8zQZ/EkaotO9LUvqlprVoV+FVoasEbkZ0lbD+CtPmhX8VREfxDnprDZ66Fajc1XRtkWGRzG2+1HK1JlkrKVnwdjqjT7WM58/Z+MfZ0MbsdtzXCnU1UhTcWvx36e8nd7KlbDcbMy9T3tkkj/jH7zEY1nolp99YVNT05Om4pvhzGUXjd44ZSS27n8Dt6br95a3ULK8ampNLOGms7Lmk38V8ToyAAKmJ+AAAAAAAAAAABz/8A35L+ar+oHQAcgPBfobfjP7q+nOfWAOpWiHc3wXsDw5633T7r0rsHreeP2d1Rvq3Ezz38LZnPrkTURnTGbWalptadRuO12raq0qhwH59FZTtRTJCo6DcipL0JtRqQRe5IkwAAAAAAAAAAAAAAAAAAAAAAAAAAAAAAMQ6sWXc1g6san6nV9pRxHaBJdo00i9lTkzhwkISfottDzhGXmRJI/IyGTx096SOmlX1V0qqNtUB8kVJpxubGaUeEyFN5PhGfpuIzwZ8txJzgsmOY8qLJhSXoUyO4xIjrU0604k0rbWk8KSoj5kZGRkZGL76DanHU7KUpte0jwxaXZGKSjt47vuzkqnpRZOyuUop8Esyz4t7+mx0A6Geo1lTdJ6JYDVwxU3DTDl8anuq2OqJcl11KkErHELasjPbnHrgWJXFf93y0i/8Ay1Wf9fCHMy3Leuu4JhlaNDq1SlRNrx9mxnHnGvaIkq+1kZp9rGD9+Bax6mdKCmMxKxLiXKT1LZkUCPVJVIcU60b7jW9k3VI9p3e0hJbsrIzMvPGONqvQtS1Cpc21eOanHmMnhpzT5Y5rL5YzjvOjYdJHG0hQr0niHDhxXNRa5+OF3+hsvpH6jWVaOmNzUOv3DFjVOtUWbDgwt2995x1laEYQnJkncZZUeEl7xzIE01Qsi8rQqUCbfNQVLqVfiFUVqeN/rKMqNJpfJ9CVk4RpMjI8/KIWJR0T0Shotm1Rqe043lvksrbZfc4ev6nV1K4TqQ4OHZLt79zfvRcvK9Kn0c4cexaJRK3W6DUXqb1WsVh2msG0auLuN5qNJURkl1JEXCMjxjJYE87x9Kf8DelX+cuo/wCwhGehzpZcGm+nD865iXHmXG+icmEosKjMkjCN5ei1EeTL0LaR8yMivsUh0kdB6tcSt3mLk3lcsvd/PJZ2jKqtPoqssSUV/r5YKq7x9Kf8DelX+cuo/wCwg7x9Kf8AA3pV/nLqP+whaoDiHTKq7x9Kf8DelX+cuo/7CFP9L279fqd0ar/qV4WdYVpU+FS+tN1mjaoVNudDmNuoXEUxtozRqcOSllKUcRslmrYa0ko1FrUfxlRIs1omJsZqQ2S0OEh1BLTvQolIVg/VKkpUR+hkRlzIAYo/seGp/Tpv2ktl0iLHYOziimqBcVYR1CsPq+8SUdKft7Zltw4tDeSM1cR0+QonXW5++OsF219LnEaeqjrLKs53MtHwmz/6DaR1THMbpE6KVXRq9nYuHJFDqi1yKXMUWdyM5U0s/wDyiMkR+8jJXLOCsn9mlW3hfVY1HipKKUfFZzL47J47s9xC+msK0rWnKC9xPfwfJfmVpHpdTlxXp0WnSno0bm882ypSG/6SiLBfOLUKj2FJuyJUodu6vO22une059pVPVINRmk23Cb4fBNJlyxnOeeBXtv1i8+E7aNs1mrtsVtaWXqdElOIamKP2SSttJklfnj2iFlUundKJuFGiUe77lbhtIQzGbYu1KGktpJtKUoIpGNpcRoixyLckhaGpTkn71SMeeMz4dnjflzzyIRZRTWVCUuXKOd1+R5WpcKwI9vIctij6oxZfWUEa7lUwcTZtVki2ISe/OMc8Y3CEWVcLtpXhQ7oZM91JqMebgvUm3EqMvnIjL5x9d0X1qPXG3KBeN6XFU2oz574lQqb0hCHkZTnatRluLKiz8Zj1tGtJK9rJeke16OSmYycPVCaacoixyPmo/eo/JKfUz9CIzL3BQsbCbvZLgSbby2sY72keJOVzdRVtH3srCxjc6oMutSGkPsrJbbiSWhSTySkmWSMh+x8tLp0ekUyJSYm/gQmG47W88q2ISSSyfqeCH1D8ySxl8PIu1ZxuAAB8PoAAAAAAAByA8aOht+LAur6C59Q6/jn/wDvyX81X9QANtaYwqzTdNrTp1x3Q1ctWi0OAxPrTKtyKnITHQTkpJ+pOKJSyP3KEmEK0Q7m+C9geHPW+6fdeldg9bzx+zuqN9W4mee/hbM59ciagAAAAAAAAAAAAAAAAAAAAAAAAAAAAAADI/TJ6O/abEjV+y4P7bYRvrkRpP8AbmyL/vlJF98kvu/ekt3mSs64H+KSlaTQtJKSosGRlkjIdXRtXr6Jdxu6HZzXY12p/rZ7mhqWn0tTt3Qq9vJ9z7zl9oXcdrWxU7ml3XXVU5idbkymsJaW828+67twlDjbLxNnhJ+0pJkWS5HzE9V0vpJz0VsrBb7SQSYm9VVWbCoKZJPJQps0ZN4iLbxt+MmatnoL/r/Qb0ZrlYl1ZmZcdLTLdU71SBKYTHaMzyZIStlRpTn0zgvIsFyENndDzQ6BqJRNOHKzfSp1dotUrbL6ZkPhIagvwWXEK+0Z3KVUWjTgjLCF5MuWbMr9JujN/VdxdKbk0tmnhbcvda+OckKpaJrdrD2NBxSWd9t/VP4cjMuqepFN1C7BbplvTaU1QoHZ6ClVTry3UEs1JM18Js8luMvXPLy9bq6HnR3K657Oql5wc0aA7mlRXU8pkhJ/21RH5toMuXopRe5JkdsRegZo1HktPu1q7ZKG1EpTLs2OSHCL71RoYSrB/EZH8Y0PTqdApECNSqXEaiw4jSWGGGkklDbaSwlKSLyIiIc/XemtotP6ho3Es5TbzlJ7vDbby88+xcvDb0vo1cO761qWHjGEsbvszhYwu7t+v0gACricgAAAAAAAES1S00t7VizZln3E1ht8t8eQlJG5FfIj2Oo+MsnkvUjMj5GJaIZq/qF4W2FOvThUZfVHYzO6tVfsuA3xn0NcSRK4TvBbTv3KVw1YIvIZaFepbVI1qLxKLymuxox1aUK0HTqLKezRzTuy1bz0Wv5dJqSVwaxRpCX40hBZQ6RHlt5s1FhSFY9S95GWSMh9Sda9RmV5iViJEQTinEtR6XEbbQpS21ntSTeC9pls/wDF+M87+s3WqzbrtONcV21SxnnHmpEpldrVty46c4w2+2wZtSyis8RziuIQbaW9xKMiLd6fuVrXotEp82puMVNxqFLahEhizqk89LW6o0tqiMoim5MaUaTIno6XG+R+0LLX7RKNaEet2anNLDeV8k4vHlkhb6H1Kcn1e4cYt8sP8pLJzholEuXUW7GqTR4blQrNalGZIQkk7nFqM1KPGCSksmZnyIiIz5EQ6YaIaO0TRiy2bep+x+oP7XqnOJOFSX8enqSE5Mkp9C5+ZmZ+bE150qjzJTcGBXT4aoLbLkC1KjJVM60yb6OChiOpaySgjNzl9rwe/aXMWmkyUklFnBlnmWDHB6S9MK2v0429OHs6a5rOcvszstl2L492OrovR2npM5Vpy45vtxjC9Xu+8/0AAQ0kYAAAAAAAAAAAHIDwX6G34z+6vpzn1jr+OQHjR0NvxYF1fQXPqAHVnTGbWalptadRuO12raq0qhwH59FZTtRTJCo6DcipL0JtRqQRe5IkwjOmMKs03Ta06dcd0NXLVotDgMT60yrcipyEx0E5KSfqTiiUsj9yhJgAAAAAAAAAAAAAAAAAAAAAAAAAAAAAABVfSM1KufS+zaVV7TdiszanX4NIU9It6bXeC08aty0QYTjciQstpYShWeZng8C1BD9TtOGNTKNApa7prVuyaXVI9XhVKjlFOQxIZM9hkmUy80ovaPJKbP5gBErF1hlNUKnyNQqnImvVNyoG1UE2NUbVYaTFZJ5TbkSpvrkEo0JcUlz7hRIV5GXOpqx0p9Ln+l7prQ5j0qmz3LMrdMejTHoiH4s2pP0OTGjuMk+bm80RzIzSlSTUv2VKJp82rqqOhzNz2e5Z+oWpV3XchVQbntT6gmnRZTBJLaphJwYjDZtOINxCyUhSjS6stxctsAuTSijN9MizrggV+4KeisWfc9TnQIc7hRn5DEq3mSMyJO8krSbHEQSyQo4rWSwbpOALn6XZlpxVrvsvS26XJzVKhVqjs1JEFDdThPyW2FPN7Znsk2pzCkuqaWZ4NJKSe4aIaWpxpDi2lNKUkjNCzLckzLyPBmWS+IzIVLK6M1kSLMj2S3XrijxoltItdiU09HOQ2wh9t9DxbmTQbxONIPJoNBlkjQYtppCm2kNrdU6pKSI1rItyjIvM8ERZP4iIgB+wAAAAAAAAAABH76tBN8247b/b9Tojin48pioU0o5yYzzLqXW1oKQ060ZkpCeS21EZZ5CQDN1z2lrRKvzUGRTaReki3p7MU2tlwHBfltIeZU9Gpa0VdTUda2ieQThxIDhHty+oz4iQLBXo7Sa89Qo13am3HddWtGpJqZSZqqczJcSo0rbjyG4cVlvgb2W3CIkJUamk+0ZEZH5WnfRV030xuGdcFsuOsqm1BmoEy3R6RE4amzdNKFPxYTUmQk+MrJyXnl5Ij3EZqNUdpemup5y27tpSLqodU4EWLDjVa5ylmyxwZaT68lp02pbqDXGI1LN4yNOUOLPc6uK2Jpp0iJ1mSqPeNSvaFIjyZkhhHbC4TrjxQ18FRSCrlRfcaVJNsyQt5pCduOClBqIwLNufov2jdFuuWnLuesopD3UFOw3afSJ7S1xEqShe2bBfJK1JUnKk4NPDSaDQe41W7CiMwIbEGPv4UZpLKN6zWrakiIsqPmZ4LzPmYy7qXpnryzTGqDYZ3jOJNbVUo1QXdcpxxglRGFLQ4ZVaGrhKk8falfWmmzLaUU21EabH0jomplL1Qv6ddEKuJt6oyEu01+rzVOGatx+zHbRU5TKWdp4LbFgqIko3IdUZrSBcQAAAAAAAAAAAAAADn/8AvyX81X9QOgA5AeC/Q2/Gf3V9Oc+sAdStEO5vgvYHhz1vun3XpXYPW88fs7qjfVuJnnv4WzOfXImojOmM2s1LTa06jcdrtW1VpVDgPz6KynaimSFR0G5FSXoTajUgi9yRJgAAAAAAAAAAAAAAAAAAAAAAAAAAAAAAVx0jqrVKHoRfVYolSlU+fDokl2PKivKaeZWSeSkLSZKSZe8jyPO1cvivWfJtd6hMwX5cmFV3myn1ByLHU8zAU42TqidQ0aTWREZukZF5kaD9orLrVEoty0iZb9x0iFVaXUGVRpkKbHQ/HkNKLCm3G1kaVpMuRkZGRiNWvovo7ZDLkay9J7NoDLqlrW3S6FFipUpbZtrMybQRGakGaDP1SZkfLkAM5nrlrDOqNmyrhqUWDULfuWqR7korNuzKW9Kbaoj8tuM42qW+znkZpcZflsrM2nEqI0m2K/a6RWu9S12sSsXBadv0qbUrRlpojkpmKbZw6vW7eZNS2IVWlrcS2SCUh5a45PGaiJpOxWNqUTSjS22qZTqJbmmtq0qnUeadSp0SFRozDMOWZGRyGUIQSW3TIzLekiVzPmMl1XWXoOWXrrSLlgVTTy3qPQaDeabjjoo7cKS3XGarQNpuwuEl9yVvjPKQom1LVwFqQZkgzICW3N0lNeKczBtu27PoVbuOn9uyKzLjxozEKRHpswo5qQ3Oq0U4iVkpKlOcaVwvVtZGRiR3BrbrTNK7n7FpFtuHRajTKZBpyoiZs11UmFHluLRuqEZiWptDjpEy26g3CLchZmjY5cNS030tvWnU9df04tyrRWZnbUJqp0NlZsTHPbOSlt5vLT5mozNWCXkzzzyPvrNg2JcdPq1JuGyqDVINfWhyrRptNZfaqC0JSlCn0LSZOmlKEERrI8EhJF5EAPN0jvN/UDTui3ZLfivSprS0yVxoUqG3xm3FNrLq8pKX2TJSDI23CNSDyncrG45gPkpVKpdCpsWjUSmxafT4LSWIsSKylplhpJYShCEkSUpIiwREREQ+sAAAAAAAAAAAAAAAAAAAAAAAAAAAAAAAAAAByA8aOht+LAur6C59Q6/jn/8AvyX81X9QANtaYwqzTdNrTp1x3Q1ctWi0OAxPrTKtyKnITHQTkpJ+pOKJSyP3KEmEK0Q7m+C9geHPW+6fdeldg9bzx+zuqN9W4mee/hbM59ciagAAAAAAAA8O4rzt+1ZESJWHphPzUOuMNxafIlLUhs0EtRkyhZpIjcQWTx90Q8vxXs/4Nf8AzbqX6AedfX93tuf4Iq3+ugD8jp0bSlOlGcs5fiu9ruNGrcVIzcVjC+3men4r2f8ABr/5t1L9AHivZ/wa/wDm3Uv0A8wBk6lQ8fVfY8daq+Ho/uen4r2f8Gv/AJt1L9AHivZ/wa/+bdS/QDzADqVDx9V9h1qr4ej+56fivZ/wa/8Am3Uv0AeK9n/Br/5t1L9APMAOpUPH1X2HWqvh6P7np+K9n/Br/wCbdS/QB4r2f8Gv/m3Uv0A8wA6lQ8fVfYdaq+Ho/uen4r2f8Gv/AJt1L9AHivZ/wa/+bdS/QDzADqVDx9V9h1qr4ej+56fivZ/wa/8Am3Uv0AeK9n/Br/5t1L9APMAOpUPH1X2HWqvh6P7np+K9n/Br/wCbdS/QDEOp/RG06v3p0210h0sVIrMU2ms3HT1W7USU/WYm1Mcib4GDQ79qWssGR8F7ceXSGywDqVDx9V9h1qr4ej+56fivZ/wa/wDm3Uv0AeK9n/Br/wCbdS/QDzADqVDx9V9h1qr4ej+56fivZ/wa/wDm3Uv0AeK9n/Br/wCbdS/QDzADqVDx9V9h1qr4ej+56fivZ/wa/wDm3Uv0AeK9n/Br/wCbdS/QDzADqVDx9V9h1qr4ej+56fivZ/wa/wDm3Uv0AeK9n/Br/wCbdS/QDzADqVDx9V9h1qr4ej+56fivZ/wa/wDm3Uv0AeK9n/Br/wCbdS/QDzADqVDx9V9h1qr4ej+56fivZ/wa/wDm3Uv0A+unaiWpUjkbJU2K3FZOQ89UKZKhMobIyIzNx9tCPNRcs58z8iMeCI3qdIZi6X3hIkOpbabo7qlLUeCSW5PMx6hYUZzjBNrLS5rteO4xV76tRpTqJJuKbxvvhZxzLCPUvTgv4f25/wC1WP8A7h+PFLTL8Itsf+14/wD94yRA080qqtp2nGO8V0u6byp7kukuS5DfUZLyHDSbP3JGk1ciSeT5njmeEn4DGiUuDpneFeuOl1SJcdvVCPEYjZIm1oWtBKUZYM1lhRmSkngywfMhr63QtdMcfYzbzxZ4lj8Pauxrn6EZp9I9ZazO1jjh4sqTf9PE09tpYxt252NxU29bbq9aOgU6c69LOMc1s+qvEy8wXDy408aSbcL7a39wo/uiHuCodNELartktOJNK0WS6lST8yMuzckLeGnVhGKi49qTJpa1pV6fHJYYAAGI2AAAAAAAADkB4L9Db8Z/dX05z6x1/HIDxo6G34sC6voLn1ADqzpjNrNS02tOo3Ha7VtVaVQ4D8+isp2opkhUdBuRUl6E2o1IIvckSYRnTGFWabptadOuO6Grlq0WhwGJ9aZVuRU5CY6CclJP1JxRKWR+5QkwAAAAAAAAK+vr+723P8EVb/XQB+R+r6/u9tz/AARVv9dAH5Hbt/5EPJ/VnLrfzZfrsQAAGUxgAAAAAAAAAAAAHxyK1R4lTiUWXVobNQqCXFxIjj6EvSEtkRuG2gz3LJJGRqMiPGSyAPsAfPDqNPqBvlAnR5JxXlR3yZdSvhOpIjU2rB+yoiMskfPmQFUaedQOklOj9eJkpBxuKnik0ajSTmzOdu4jLOMZLAA+gAEdiakaeVC7pOn8C/bdk3RCQbkmiM1Rhc9lBElRqXHJXESWFpPJp8lF7yDOBgkQD54FRp9VjFMpc+PMjmtbZOx3UuI3oUaVp3JMyylSVJMvQyMj5kP7qUSSNSjIiIsmZ+gA/wBAfPT6hAq0Fip0udHmQ5TZOsSI7qXGnUGWSUlSTMlEZeRkY+gAAAAAAAAAAAABGtUbcrV36WXjbNuQVTanUqO6xFjpWlJuOGpOCyoyIvnMhJR/aLMkwnDdiubFmnaZ4I+Xz/IPjclvHmj6sPZ8jA90aE9KysUC2qdcWmbpUyyoy2YZxnoynUsmviLySHTU4rJcsFn3ENKwJ2sGodmO0SFTUVOmoWiK7IVw0vGps0rSlSlKIzxlPPHr78i7u8FX/wCF/wBWn6h8lPlO0o5SqcTcfrj5ynybaSRLdMiI1YxgjMklnHn5+ZmI90k0m66RzpRnU9nCKmpKDa4lLHflc13dpijb04P3ZSw9nyPNtSHJp9923AmNG2/GtSWy6gzI9q0rpxGXLl5kYs8V1SX3ZOqdNffXuWuhVPJ4Is/tiB7hYo2q9JUI06S/pil6bHTtccLx3gAAa5sgAAAAAAAHP/8Afkv5qv6gdAByA8F+ht+M/ur6c59YA6laIdzfBewPDnrfdPuvSuwet54/Z3VG+rcTPPfwtmc+uRNRGdMZtZqWm1p1G47XatqrSqHAfn0VlO1FMkKjoNyKkvQm1GpBF7kiTAAAAAAAAAr6+v7vbc/wRVv9dAH5H6vr+723P8EVb/XQB+R27f8AkQ8n9Wcut/Nl+uxAAAZTGAAAAAAAAAAABSWtFpSrs1WstNGkIi12lUWs1Oiyl52szW3YWwlYMjNtZGptZZ5ocWQu0B8kuJYPsXwvJkCZqQxNsWbUKimdbvb+oU+PJYqV2yLSjMSGoyN0eVUY7Tkhv7YgybSzjjKSktxoPCvitCpJkoj3RcWoVSolzy9N5MduVJrs94kFHqTrTqjaM0qWbSNhOSDZJ1slcVZJVkbMAY/ZvvPfH4FRdHitNV/T6pLolTVNaanvsxZjV4P3TAWrhoP9qVSQhL8holGZK4hHsdJ1sjNKCET0wvHSJFnWhpVW3o8u/qTUGFzrdjPl2zFqyXTVInPNJUl1DRqU48p9WEONOeaycJKtEgPXDyPPEY8PUtNhWnd0OoXdJpDlRtiuLt5gpa2lSag3VKibhxEkZbn0pU0pWz2ySRKPknJSxiuMzdcHKBMvaZVJlQZUydPg3nOiz4Mc4PMnaIaSZONnKyqLayd4jiEkfIxpcB89m+89cfgYKlXPW7e06sWk29fcKlUhi0GFUWZUNQqpTVHXyeWl5ptMdiUqqPNqS0ns9wjIiM0k0rJknT2kEWqVC9L9uCv16ry5caqsU9mK5UZPUorfZ8NxaW4ylE2kzcUtW42yWW4y5ZMha4BGnwvmJTyuQAAGQxgAAAAAAAAAAAAAAfxoX982l/4Bqn/aIAskVtQv75tL/wAA1T/tEAWSOZffzF5fmzetPwPz+wAAGkbQAAAAAAAByA8aOht+LAur6C59Q6/jn/8AvyX81X9QANtaYwqzTdNrTp1x3Q1ctWi0OAxPrTKtyKnITHQTkpJ+pOKJSyP3KEmEK0Q7m+C9geHPW+6fdeldg9bzx+zuqN9W4mee/hbM59ciagAAAAAAAAr6+v7vbc/wRVv9dAH5H6vr+723P8EVb/XQB+R27f8AkQ8n9Wcut/Nl+uxAAAZTGAAAAAAAAAAAAAAAAAAAAAAAAAAAAAAAAAAAAAAAAAAAAAAAB/Ghf3zaX/gGqf8AaIAskVtQv75tL/wDVP8AtEAWSOZffzF5fmzetPwPz+wAAGkbQAAAAAAAByA8F+ht+M/ur6c59Y6/jkB40dDb8WBdX0Fz6gB1Z0xm1mpabWnUbjtdq2qtKocB+fRWU7UUyQqOg3IqS9CbUakEXuSJMIzpjCrNN02tOnXHdDVy1aLQ4DE+tMq3IqchMdBOSkn6k4olLI/coSYAAAAAAAAEbumyWbonwKmVeqlLk09mQw2uFwD3tvKaUslE804XmyjBkRH5+8eX4Yyfwj3P+Tp36oJwAzwuasIqMXsvIxSoU5Pia3IP4Yyfwj3P+Tp36oHhjJ/CPc/5OnfqgnAD11ut3/JfY89Xp931IP4Yyfwj3P8Ak6d+qB4Yyfwj3P8Ak6d+qCcAHW63f8l9h1en3fUg/hjJ/CPc/wCTp36oHhjJ/CPc/wCTp36oJwAdbrd/yX2HV6fd9SD+GMn8I9z/AJOnfqgeGMn8I9z/AJOnfqgnAB1ut3/JfYdXp931IP4Yyfwj3P8Ak6d+qB4Yyfwj3P8Ak6d+qCcAHW63f8l9h1en3fUg/hjJ/CPc/wCTp36oHhjJ/CPc/wCTp36oJwAdbrd/yX2HV6fd9SD+GMn8I9z/AJOnfqgzBffSYtGx+mPavRVl6g19aa1DJqo1QzpxdRqsgiVBimnqv++JIiPkfOSxgyIlja4wtf39j+0DuXpF0yBX3Lqm1i9aDd11VC4lVlSKkzUmqlRerOsGhKWWyYTNkobTwjIkrLcSjSg0ut1u/wCS+w6vT7vqax8MZP4R7n/J079UDwxk/hHuf8nTv1QTKIwuNFZjOynZK2m0oU+9t3umRYNatpEnJ+Z4IiyfIi8h/YOt1u/5L7Dq9Pu+pB/DGT+Ee5/ydO/VA8MZP4R7n/J079UE4AOt1u/5L7Dq9Pu+pB/DGT+Ee5/ydO/VA8MZP4R7n/J079UE4AOt1u/5L7Dq9Pu+pB/DGT+Ee5/ydO/VA8MZP4R7n/J079UE4AOt1u/5L7Dq9Pu+pB/DGT+Ee5/ydO/VA8MZP4R7n/J079UE4AOt1u/5L7Dq9Pu+pB/DGT+Ee5/ydO/VA8MZP4R7n/J079UE4AOt1u/5L7Dq9Pu+pB/DGT+Ee5/ydO/VA8MZP4R7n/J079UE4AOt1u/5L7Dq9Pu+pFLf0/aoVdRcD9z1mqyGoj0NpMwoyUIQ6tpazImWWzM8so8zMsZ5cxKwAYalSVV8UmZYQjBYiAAB4PQAAAAAAABz/wD35L+ar+oHQAcgPBfobfjP7q+nOfWAOpWiHc3wXsDw5633T7r0rsHreeP2d1Rvq3Ezz38LZnPrkTURnTGbWalptadRuO12raq0qhwH59FZTtRTJCo6DcipL0JtRqQRe5IkwAAAAAAAAAAAAAAAAAAAAAAAAAAAAAAAAAACqrj/APCn08/5v7y/+I24LVFVXH/4U+nn/N/eX/xG3ABaoAAAAAAAAAAAAAAAAAAAAAAAAAAAAAAAAAAAAAAAAOQHjR0NvxYF1fQXPqHX8c//AN+S/mq/qABtrTGFWabptadOuO6Grlq0WhwGJ9aZVuRU5CY6CclJP1JxRKWR+5QkwhWiHc3wXsDw5633T7r0rsHreeP2d1Rvq3Ezz38LZnPrkTUAAAAAAAAAAAAAAAAAAAAAAAAAAAAAAAAGC+kX0qtQ6heFdsazaudEotLlu083oXsyZKm1Ghaje80pNRKxs28sZMx29C0G56QXDoW7Swstvkl+b8DmarqtDSaSq1svOyS7TWGpuvumGk7a27ouFtdQSnKaZDw9KV7soI8Iz6Gs0l8YyzVenHMk6hQbuh6YUdUemRZNOjrkPuHPTFkOMrfQl1J8NBLVFjqMuGrm0nmYy8666+4t55xTjjijUtajyajPzMzPzMelbVq3JeNTRRrWocyqTV8yZjNGsyL4SsckpL1UeCL1MW5p/QPSNOouV5/EeN3J4S8knt5tt+JX930q1C8qJW/uLsS3b888/gkdINLuk5pVqnwYUCslSqu5guzakZNOqV7m1Z2OfEST3e9JC2RzPhWDoxZsI2NXr0qsmurex2daLkeWUNGOfHeWXCNZKyRpbWrAuq1NSbysaRTZujt2T9TbAZYaVVYM9SXqrTfbMnNrREl9CCRt2nhbeSV6YMQvWOh9upuemTkovlxpqL8Iz5PP9OefY2STTukVVx4b2Kz28LTa8489u3HLuRsYB+ULS4hLiFEpKiIyMjyRl7x+hXhLwAAAAAAAAAAAAAAAAAAAAAAAAAAAAAAAAAOQHgv0Nvxn91fTnPrHX8cgPGjobfiwLq+gufUAOrOmM2s1LTa06jcdrtW1VpVDgPz6KynaimSFR0G5FSXoTajUgi9yRJhGdMYVZpum1p0647oauWrRaHAYn1plW5FTkJjoJyUk/UnFEpZH7lCTAAAAAAAAAAAAAAAAAAAAAAAAAAAAAAA8u6K4xbFtVa5JWODSoL81zPqlts1n/ojlJbFtXLqXd7Fv0RpMys1h51aEuOpbJxe1TizNSjIi5JUfMdB+l/ci7d0HryWVGl6qrYpqDL0JxwjXn5W0rL5xhXQu9aPp1qtQLzr6JKoFNceU8UdsluGSmHEFtSZkR81F6i3egFvVttJur6hHNR5UV3uMcr1bwV90sq061/QtarxBYbfcpPD9EiT1zSSg6JsxJGtceXPrU4lvQrcpkpCEGyk9pOyZRbtiVK3ESWyNR7T9pIilyavXRW6Yu26O3Dtq3VedIozZx2XC97ysm4+rHmbilfMJj0vrrO6tcKqSN5M0mNGpzSV/dI2oJa0mXoZOOOEfyCv7T01uu75L6IcNuDEhNcebUak4UWJEazgluOr5FkzwRFlR+hGJpp3DWs6Woam1xySlv+GOd1wx5JrKWd5Z7SNXmadzO0sk+FNrbm8c8vn8OXgRYTzSrTq/bxqblVtGcmhtUlByHa7KkrhxYZljzkkWEKPPIs58x6PWtHdPv+8Yy9Qq23/v8pLkSjsr/itZJ6Tg/hG2k/gmIxeGpF431wWa/V1KhReUWnRm0x4UVPoTTDZEhHLlkiyfqZjenWuLyLjbx4Yv+qa+kOb/APlw+TNWNOjbtSqy4muyL+suXpn4Gv6RrNrJo9aMO5tSJtt6h2q5LTBKq2/P48pkzSo9ylpQTa0ltx7W1RqMsq5jSNn3XRr5tim3db76nafVGEvsqWnaoiPkaVF6KSZGky95GOVNm3neVm1MpFmVmZDkyTJpbLPtokkfIm3GjI0ukecbVJMufkNg6PdIu4LMobdC1K0Trdu0qMTj/aVLor7UNlKlGtxa2DThtOTUozbMyyZ4QQrLpT0RlTp+1toRdTP9OI5X+GcZTx+F7/2om2hdIIzn7OvJqGO33sP/AC7n/wAuXeatAeRa922ze1Ibr1p1uJVYDp7SfjOEoiVgjNKi80qLJZSZEZZ5kPXFYTpzpScJrDXNPZonEZxnFSi8pgAAeD0AAAAAAAAAAAAAAAAAAAAAAAAAAHP/APfkv5qv6gdAByA8F+ht+M/ur6c59YA6laIdzfBewPDnrfdPuvSuwet54/Z3VG+rcTPPfwtmc+uRNRGdMZtZqWm1p1G47XatqrSqHAfn0VlO1FMkKjoNyKkvQm1GpBF7kiTAAAAAAAAAAAAAAAAAAAAAAAAAAAAAAAj9+WPQNR7UqFn3LGN6DUG9pmk8LaWXNDiD9FJURGXyYPJGZDC+l2ltQ0o6VVEtG9Y7LsWKc2U3IdayxKiphvqS8RHksezzLntUky8yHQgRm8rDoV3nFnVCAh2dT25LUZ77lZNyGVsvNkrzIlIWfyKJJ4PGDk2hdIKml0q1nNt0qsZL/GTTSkvz8PI4uq6RC+qU7mP44NPzSeWn+X+zlbdtffuq6axc0nPFq09+asj8yNxw14+bI1902b+pkvSy07foNYizGavNOQ45EfS6hSIzZEaDNJmX3byDx70/EMxavaWVrSW7nreqW96I7l6nzDRtKSxkyyZferSZGlafvVEfpgzmXSnp9AtO8qRplarbjVLtOlNtE244biyfkLXJcUpR+ZmTrfzEQuC5oWmpX2n1aLzGKnKOOXClFfBqTjtjvzjBXdCrXs7W7p1Fhy4YvPPLbfzXF8ilhP6Lo3X3qazcd6T4dm0F4tzc2sGpDshPr1eMkjefPHltTt/jENDaPWRppb/Rl8bKjaUGTctJj1CVFmSDWsustvOIjmaDVsPCuGRez6EfmMk1uvVq5ak9WbgqsuozpB7nZEp1TjivnP0+L0G9a6nU1atWo2vuRpScJSaTba58Kzjxy88/wmrXsYafTp1K/vOcVJJPCSf93b8F6lgN39YGny0+F9sKqdWZMjTcVxNIcW2svJcaGRm00ZGRGlThuKL4h+aR0j9X6fIndqXbKuCBVG1sz6bWVqlRZDSyMlI2GeWyMjMvtZpEJtm0rmvOpJo9q0KZVJaiybcZo1bE/CUfklPvUoyIveJt3K03sP7bqLdPb1URz7Atx9K0oV8GROMjbRzyRpaJw/jIeq9tp9NunWj7Wo+x+9P/AOqzy/DFPuPlKteSXHTlwQXd7sf9v1bXeXt0XtcdEbRmVWmrVPs/t1bLioU2QcmnNPo3EamXzLe2SiUWSdyRbU+2Y2LElxZ8ZqZBktSI7ySW260sloWk/I0qLkZfGQ54WVr5pVDnNwLz6O9oOUVsibZcp8XdMZQXq4t5SusKx5mZoM/PPoLQ6O66rTNYHalptdcStaeV6TLXIpMR423KQlzctniQl4UjaskN8RslI259rHIVt0n6Oe2qVb1qVOSjn32pRlhclJNtSwuUm3J8mTPRNZ9nCnbZjNN491NOOe1xa3We1Yx2mxQABWRNgAAAAAAAAAAAACGagaxabaXtJXet1RILyyI0RU5dkLI/UmkEa8fxsY+MZqFvVuqipUIuUn2JZfojHVrU6EHOrJRS7W8ImYCPWXqDZeodNKrWXccKqx8Fv4K/tjRn5E42eFoP4lERiQjzVpVKE3TqxcZLmmsNfA+wqQqxU4PKfagAAMZ7AAAADkB40dDb8WBdX0Fz6h1/HP8A/fkv5qv6gAba0xhVmm6bWnTrjuhq5atFocBifWmVbkVOQmOgnJST9ScUSlkfuUJMIVoh3N8F7A8Oet90+69K7B63nj9ndUb6txM89/C2Zz65E1AAAAAAAAAAAAAAAAAAAAAAAAAAAAAAAAAAFf616P0HWaz3LeqqUtTY5m/TpmPajvY9/nsV5KL1Ln5kRlhTpW2ncdB1eq9drLDnU7geOXBfUXI0ESUm0ZlkiW3gkmWfLaZZJRGfSsQbVvSS29XLQnWzWWiZfeInYkxKcrjSEkZIcIvXke1RffJ5Z5EZS/or0mnotzCNfeluv8eJrLXxim159rI9ruiR1KjJ0tqmz88Zwn6tZ/Iw853itbonokzrrflU+9Ko1Ep1K3q2Qmo777kheDPGVuttHy9/xjx9BtK7WvyHdl23lUZLVKsmEipyYcciSqcja6o2uJnKM8IiyRGftcsHgx6uvdsXZYenOm9h3BE2Joqawl5xs8tnJXNUoyz/AOi4K05wZpcI/UeHYNYmW5oZqVIQZNt16TSKK0v75S97zzhF8XDbUR/0yFrU5VKunVa1rNKVWrtKOOTqKGV48C58+3nuQKahC8hTrxyqdPk881By/wDZ8uXZyPBujV26bgpy7cppRLdt0z5UajNdXjqL3umXtvq96nFKPPuEIAa56QfRZ0z0x0/Rc1tv1pUxVSixDKTKQtGxxRkrkSC5+7mOncahY6LVo2jjh1W0sLm1jLb+K3eWzSo2l1qcKlwnlU0s5fZvy9ORlOiQmqlWoFOfUtLcqU0ws0GRKJKlkR4z64MaX6RfRytHQKzqZfdhXJc6asdZZhockTGi4SVMvL3INppCkqy2nB7vIz5D19e+i3prpha1Jr1sya51qVXodPWciWlRE24atxpwgjJXslg8j+HSy0MtrTPTin16j3Fc899+tMxFN1OpnIaJKmH1Gok7SwrKCLPuM/eI7PpBQ1W8s52taUYTlJOPDtPGNnvtz8TsR0irYW9xGvTUpRSfFn8Oc8ttz1Oip0oL5um9IOmd/TWqo1PZdTCnuIJMlLraDWSVqLBLI0oUWTLduxzMbGHJfTO5js3UO27pNw0IplTjyHT97ROFxC+dG4vnHWcjIyyR5IxCP2g6TQ06+p1baCjGpF7LZcSe+3k0SfojqFW8tZ060nKUHzfPDW30Z/oAAgBLAAAAA8e77qpFj2xU7trzi0QKVHVJe4ady1EXklJcsqM8ERZLmZcyENsnpF6O3/fNf0woV5xm7wtqfIp8+hTkqiTd7KjJTjTTpEb7RkRLJxvcnapJmZZwIJ04rn7E0XOituYdr9SjxDSXmbTeXlH8m5tBf4w6Wj2P7yv6No+U5JPy7flk09RuupWlS47YptefZ8yhdUem3qJd3GptjsJtWmqynitq4k1xPxuGWG/f7BEZfCMZ2mTJlQlOzp8p6TJfUa3Xnlmta1H5mpR8zP4zFu9FOzade2q6KdU6RTKm3Fp78xMSpNqXHdWk0ERKIj5fdHzNKiL4JjdtNo8m32urxNG7ejoxgk0eSxwyL/8AUaZ//oW/e6zp3Q+p1GytlnCb95R597llsru10686RQ61c1njLS2b+S2Ry/oVw1216m1WbcrEymTmT+1yIrymll8WUn5H6l5GNP6U9Ou4aY5HpGqtMRVYhmlCqpEQTclsvhLbL2HMfxdp/KY03VrU70p4dT0ZtJ9tXsqOrvtKWkveSW2HCPH9JPykOc+sduxLT1Rua3YDLDUeDUHG222EKS2gvPaklKUZJLOCI1Hy9R6sr7TOmzlbXdulKKynxJtLONpR3XPk9mfLm1vejKjWt6zcW8Yw0vinszqyy81IZRIYcStt1JLQpJ5JSTLJGQ/Yrro73P3u0UtGsKc3uppyIbxmfM3I5myoz+Mzbz84sUUpd28rS4qW8ucG16PBZdvWVxRjWjykk/VZAAA1zMByA8F+ht+M/ur6c59Y6/jkB40dDb8WBdX0Fz6gB1Z0xm1mpabWnUbjtdq2qtKocB+fRWU7UUyQqOg3IqS9CbUakEXuSJMIzpjCrNN02tOnXHdDVy1aLQ4DE+tMq3IqchMdBOSkn6k4olLI/coSYAAAAAAAAAAAAAAAAAAAAAAAAAAAAAAAAAAAAABDtT9L7e1VtqXbNfRtakowl1KSNbLqSPhuo9ykqM/iNKlpPkrlgjWmyqvpDY1t6YVnh9efqdSrUtTasodTuRHjqSfuNDLiiI+ZcTng8jpQKj6R+hUHWmz+HDS2xcdKSt2lyVciUZ/dMLP4C8Fz+9URH5ZI5j0T6QvTLqnQupfwOLL8HhpPy338k+wjuv6Qr6hOrQX8XGPNZTx57beb7zmckiNREfqY1x0hOjto3p7YbNes9ySc5dUixVb6jxS4S1GSvZ+bzGT6lTp9HqEmlVSI7FmQ3VMPsOp2rbcSeFJUR+RkZGQsnRXSuNqnGr1PbmxY8+P1NDC5EZ1wmydfJBrQpDyCJRZ+5U24RlyLafMXHrMJJ0r7rDp06bzJJZU1JxSzh8l5PmVzpsk/aWvsVOc1s3s44Tzjbn6ci59fujto3YFqUmq2i5JOVLrsOA9vqPFLgOb9/L0P2S5+g8rpR6C6TaXafQbgsRyQqoP1hqG4TlQ45cFTLyj9n09pCef1j5qd0aLNkWbwV3DIOdVqjGapVVdpbqJDRqN5tcd6KT5oSneyZ8TKjIsnz8izVNirgzH4Ti0LXHdU0pSDykzSZkZkfu5Di6LQq3VSCp305+xk+LMWuNPGFu+Sw135zlLt6epVYUISc7WMfaJcOGnwtc+S5vK+7P4jpVZ9nW3rdplZV2XJVbxjSiorDS+xbyrFFQtxKSS4paIMllLh70qwpZGZFyI8DEvR/wBEqrrVeSKaXFj0OAaXqtNSX9rbzybQZ8uIvBkXuIjVg8YPpjRqPTLepMOhUaG3EgQGER4zCPuW20lhJF8xeZ8xHf2l39tU9lZxeakW2/BNcn4vZ+S8UdfoVaV4e0uXtCSwvFp8/hyK3+xp06/5R6q/52Lq/wBoh9jTp1/yj1V/zsXV/tEWqAqcnxVX2NOnX/KPVX/OxdX+0Q+xp06/5R6q/wCdi6v9oi1QAHO53+xYOam9Ie5dYtV77q1It86qnsSlU2vzanVZEWMSGo78mpzluPNrWllKzQRuGklklK29hEUu6ec5cGr2TZEfrRwqVSnH23H3lvKcNaiaLe4szU4sksEZqUZqPfkzMzyNxitNetFqRrVZjlGf4UesQtz9KmqL+0vY5oUZc+GvBEovkPBmkhIei2o0NK1WldXK91ZWe7Kaz8M7+ByNds6t/YToUfxPHxw84OcmnGo906V3O1dloyWWprbamVJeaJxt1pWNyFEfPB4LmRkfLkY0DF/sgV9oZSmbYdBdd++U0682k/kSZqMv8ozNX6DV7XrU23q9Bch1CnvKYkMOFzQsv+oy9SMuRkZGXIxYFsWTpfW6FR5k66JEOoz+Oy9GcnMNkh9lK14ypv2EuFwkoNRnhSzLKsYO8NX03Sb1RuryiqmeTWc4w3zT5YKw0+91C2boW1Th8H38u3tLTqfT91EkRlNUqzaBDeURkTrpvPbfjJO5JZ+XJfEM3XJcVYu6vTrmr8vrNRqTypEl3YlG9Z+Z7UkRF8hEJxqzRLIoNGoFPs+qQKgtl+cmS+08yuQaTNo20vG357cuJJWCI9pmQj+menNw6qXhCs622cvyVbnn1EZtxmCMt7q/4pEfzmZEXMyH3SrPStMt5XttSVKOHlvOcJvnnfG2cC/uL+9rK2rTc3thLllrw28DZPQIrkmdphWaG+hZt0urqUysy9nY62gzQXyKSoz/AKZDTYjOnOn1u6YWjCs+2Y3DixE5W4oi4kh0/u3XD9VKP/IWCLBERCTCg9dvaWo6jWuqCxGUsr7/AB5/EtfS7apZ2dOhVeZRWH+vDkAAByTfA5//AL8l/NV/UDoAOQHgv0Nvxn91fTnPrAHUrRDub4L2B4c9b7p916V2D1vPH7O6o31biZ57+Fszn1yJqIzpjNrNS02tOo3Ha7VtVaVQ4D8+isp2opkhUdBuRUl6E2o1IIvckSYAAAAAAAAAAAAAAAAAAAAAAAAAAAAAAAAAAAAAAAAAGW+mD0dVXfBd1RsmnmuuQW/904jKPamsJL+2JIvNxBF5eakljzSRHj6jX9VbatmpWxRqfEhPVNxo5VTbXITNNLThOIbI+Jw0ES0keSQSvjHRrUbUm/aDfVv6e6d2LQK/Uq3Tp1TcdrVxvUlhhqMthBkSmYUpS1KOQnltSREk+Y9iJqIxSKe+zqUdKoNdptIcrlUiQZkidFjw0LUlTrclcdk3iLb7RE2SiMyLbzSap3o3Tirp1mrK6pe1jFpxzLhwluk9nlJ8u74LEW1HoxC8uHc0Kns21vtnOeb5rGe3/wDTmO5qPqG9Llz3r9uJcmewUWW8qqPm5IZLOG3FbsrQW4/ZPJcz94af2Bcmpd0w7TteEp+XLWRKWZHw2G/vnHFF9ylJczP5iyZkQ6X+OOmXe6NY516UmqS+EhClUqYURL7jfFbjLlm11duSpvCijrcJ4yNJ7OZZiVY6WmkzFr3HXral1atSaDQ5NeZiFQqlHTUWGcEs4zq4218krUhDimeJwjP2yTgx15ftK4Kco29ooya2fFt4ZSgs47so566F8U061w5JdnD678TxnyJ1pXplb2ktmw7Pt5vKGS4kmSpJE5KkGRb3V/GeCIi9CIi9BLx8FArDFw0OBXYrEllqoRm5KG5Mdxh1BLSSiJbbqUrQZZ5kpJGXqRD7xWVevUuasq1Z5lJ5bfaya0qUKEFTprEVskAABiMgAAAAAAAUD0mOjI1rGiPctqPQ6fdEVJNOLkGaGZrBeSXDSRmS0/eqwfL2T5YNOePsFNa/+F219Pc/RDRt1al3xbtdqEZ6u8KFaNcVUay6qOxtdobqoxIbWaklsJCZTyicThX7S5qVlRHG9P8ApD3PVb3iQa7MqvZE6I7HTJkW3IbpbEtxKpTTjlSQyUYibSpMRTXG3mtBmacmZiV6b001XSrdWtGScY8uJZaXdnPI4F70bsL6s69RNSfPDxnxKWLoKa1meOt2yX/79z9ENY9H3QqlaI2ocE3GZteqGHKnOQk8LUX3LTeSI+GnJ4zgzMzMyLJEVYyb61mtu2p8eTdtzyLjcl06bDTVoFEejTY/F/bBU52AnBw3eTaCkoTKSSiVnJ8rM0h1Eq+od3XVU0VhqZaz8eDLt1DbSCSUdS5DK3ScItzhOrjmsjMzLaacYyYx6t0u1PWaHVriSUM5aSxnz8PAyaf0fstNq+2opuXi848i1gABGDtgAAAByA8aOht+LAur6C59Q6/jn/8AvyX81X9QANtaYwqzTdNrTp1x3Q1ctWi0OAxPrTKtyKnITHQTkpJ+pOKJSyP3KEmEK0Q7m+C9geHPW+6fdeldg9bzx+zuqN9W4mee/hbM59ciagAAAAAAAAAAAAAAAAAAAAAAAAAAAAAAAAAAAAAAAKV6RGsNU0vq1l0qJqPp/YkK5JE5qXXLziqfhs8BgnENpIpsQiWszxzcPy5JMAfHr9opVtSb6tS62dK9NtQqdQ6dUIT9GvaYphhLr62FIfa/aExJqSTK080JPC+R+ZD+NxaDXDdFIsKPT7bsqxm6Mt2lV6iUZ5yRAOguOIdcixFpjx8KU5Hj8lMoSSVOlzyRj2dKtcHbjp1LYuKfSrgcrNwSqHSbitqMbVJqyGoqpPWmUuPumlvCHGjNLrxG42eFYM9v+VzpPW3S0RE0nT+9Lhky4VWqXVqXGib2otOlFGlOrU9JbRyWolJQSjWtP3KTURpAEWmdGy4FayTLpYahy7eqVwsXM7Ik3pXmTjPttoLgporC0wHlEtlCkyFrIy3e0y4aCNX1yuj1dz9h0G1G6lRW5FMsSt2w+snXeGqXNJjhuJ+15NsjaWajMiVzLCT54kMnpN2q1X2qXDsu7p9M61S4kuux4sbqMFVRQ0qGbpLfTIUlZvoSfDZWaDyaySnCj9GB0gbYn3GujJtq4mqa49Ph06vrZjnT6nLhEs5Mdna8b6Vo4T2FOtNoXwl7Fq5ZAn9utVRigU5itxoseoNxWkSmoshT7KHSSRKJDikNqWnPko0JM/cXkPRFOUvpKRK5SaFVqLpDqBPOvQO2WorDNOVJYpRmgkzlt9cypBm4WGm98g8H9p8s3EkyUklFnBlnmWDAH+gAAAAAAAAAA8uZa9sT1VJ2oW7S5KqxFTCqSnojazmRkkoksvGZfbGyJxzCVZIt6uXMxWVmat6OXTTWqTb9v05ugJrT8WOttdMchceO5JdVK4bD6zaSTsJ5ZLcQhW8iPGSUabhFM1zo4x69FkwpV3vNsymZDKzZiqbcIne0uaVpdI0mXaXmXP7T6bvZA+u0Kn0TbbpcCs2FUNJKVTryq2IMqkO01hitVNtRl9qW0ZJkyEq3F7JqWR59RZlLt+g0NCW6JRIFPShhuMlMWMhoiZQajQ2RJIvZSa14T5FuPHmYoSj9Fu8KZTaMx4qst1OFWVVSdV4vePrsps0spJlL0iuvLxhhBKRIVIjq2oyx7PPRQAAAAAAAAA5AeC/Q2/Gf3V9Oc+sdfxyA8aOht+LAur6C59QA6s6YzazUtNrTqNx2u1bVWlUOA/PorKdqKZIVHQbkVJehNqNSCL3JEmEZ0xhVmm6bWnTrjuhq5atFocBifWmVbkVOQmOgnJST9ScUSlkfuUJMAAAAAAAAAAAAAAAAAAAAAAAAAAAAAAAAAAAAAACK3FYxV++bSvM6nwStfr/7V4G/rPWWSb+73Fs24z5Kz5cvMSoABTUrQW4KcxDasXUKNSU0C5HK/bsefRlTo1PaeYcakQloKQ2pxkzfeU1sW1wtyU4UlO0/62r0f3rchsR5F6rqDrVCrVGW+5AJCnVVCYUk3jInMZQZbdpfdZzlPkLgAAVBB6P3U7cnW/3t39dqFvTuN1DGzstERO3bxOfE6pnOfZ4nkrbzjts9Ea27V1CqF4UpuyY8eS/U5jL7NjQ015T83iG4UirKUpbrSVOrNKW22nMEhK3VkRkrQIACj706OE27LUsuzu8ltPQ7VgR4Ju1i0kVCSy40hCOvU14n23KfMwk9ruXkoMkGSDNJmq7WmyaaQ0SlKJCSTuWrKjx6mfqY/YAAAAAAAAAAAAAAAAAAAAAAAAAAAA5//vyX81X9QOgA5AeC/Q2/Gf3V9Oc+sAdStEO5vgvYHhz1vun3XpXYPW88fs7qjfVuJnnv4WzOfXImoxV+yDd2eht9kl4NxFdk3B3U7AiVjqzB8JfB4zbnV1cNHs5JrYraWC3njIsC9OmX3Q1l0U0k8OOt+MNPan9odscPsvekj2cLgHx8Z89zfyADSoDNVl9MvvfrLrXpJ4cdU8Hqe7P7Q7Y4namxJns4XALgZx57nPkFf/skP7jb7LbwZ/hB2F3f7xfymzi9a6r8+3hfOANqgM1Xp0y+6Gsuimknhx1vxhp7U/tDtjh9l70kezhcA+PjPnub+QLL6Zfe/WXWvSTw46p4PU92f2h2xxO1NiTPZwuAXAzjz3OfIANKgMVfskP7jb7LbwZ/hB2F3f7xfymzi9a6r8+3hfOLAvTpl90NZdFNJPDjrfjDT2p/aHbHD7L3pI9nC4B8fGfPc38gA0qAzVZfTL736y616SeHHVPB6nuz+0O2OJ2psSZ7OFwC4Gcee5z5BX/7JD+42+y28Gf4Qdhd3+8X8ps4vWuq/Pt4XzgDaoDNV6dMvuhrLoppJ4cdb8Yae1P7Q7Y4fZe9JHs4XAPj4z57m/kCy+mX3v1l1r0k8OOqeD1Pdn9odscTtTYkz2cLgFwM489znyADSoDFX7JD+42+y28Gf4Qdhd3+8X8ps4vWuq/Pt4XziwL06ZfdDWXRTSTw4634w09qf2h2xw+y96SPZwuAfHxnz3N/IANKgM1WX0y+9+suteknhx1Twep7s/tDtjidqbEmezhcAuBnHnuc+QV/+yQ/uNvstvBn+EHYXd/vF/KbOL1rqvz7eF84A2qAzVenTL7oay6KaSeHHW/GGntT+0O2OH2XvSR7OFwD4+M+e5v5Asvpl979Zda9JPDjqng9T3Z/aHbHE7U2JM9nC4BcDOPPc58gA0qAxV+yQ/uNvstvBn+EHYXd/vF/KbOL1rqvz7eF84sC9OmX3Q1l0U0k8OOt+MNPan9odscPsvekj2cLgHx8Z89zfyADSoDNVl9MvvfrLrXpJ4cdU8Hqe7P7Q7Y4namxJns4XALgZx57nPkFf/skP7jb7LbwZ/hB2F3f7xfymzi9a6r8+3hfOANqgM1Xp0y+6Gsuimknhx1vxhp7U/tDtjh9l70kezhcA+PjPnub+QLL6Zfe/WXWvSTw46p4PU92f2h2xxO1NiTPZwuAXAzjz3OfIANKgMVfskP7jb7LbwZ/hB2F3f7xfymzi9a6r8+3hfOLAvTpl90NZdFNJPDjrfjDT2p/aHbHD7L3pI9nC4B8fGfPc38gA0qAzVZfTL736y616SeHHVPB6nuz+0O2OJ2psSZ7OFwC4Gcee5z5BX/7JD+42+y28Gf4Qdhd3+8X8ps4vWuq/Pt4XzgDaoDNV6dMvuhrLoppJ4cdb8Yae1P7Q7Y4fZe9JHs4XAPj4z57m/kCy+mX3v1l1r0k8OOqeD1Pdn9odscTtTYkz2cLgFwM489znyADSoDFX7JD+42+y28Gf4Qdhd3+8X8ps4vWuq/Pt4XziwL06ZfdDWXRTSTw4634w09qf2h2xw+y96SPZwuAfHxnz3N/IANKgM1WX0y+9+suteknhx1Twep7s/tDtjidqbEmezhcAuBnHnuc+QV/+yQ/uNvstvBn+EHYXd/vF/KbOL1rqvz7eF84A2qAzVenTL7oay6KaSeHHW/GGntT+0O2OH2XvSR7OFwD4+M+e5v5Asvpl979Zda9JPDjqng9T3Z/aHbHE7U2JM9nC4BcDOPPc58gA0qAxV+yQ/uNvstvBn+EHYXd/vF/KbOL1rqvz7eF84sC9OmX3Q1l0U0k8OOt+MNPan9odscPsvekj2cLgHx8Z89zfyADSoDNVl9MvvfrLrXpJ4cdU8Hqe7P7Q7Y4namxJns4XALgZx57nPkFf/skP7jb7LbwZ/hB2F3f7xfymzi9a6r8+3hfOANqgM1Xp0y+6Gsuimknhx1vxhp7U/tDtjh9l70kezhcA+PjPnub+QLL6Zfe/WXWvSTw46p4PU92f2h2xxO1NiTPZwuAXAzjz3OfIANKgMVfskP7jb7LbwZ/hB2F3f7xfymzi9a6r8+3hfOLAvTpl90NZdFNJPDjrfjDT2p/aHbHD7L3pI9nC4B8fGfPc38gA0qOQHjR0NvxYF1fQXPqG6rL6Zfe/WXWvSTw46p4PU92f2h2xxO1NiTPZwuAXAzjz3OfIMKfsg/TJ/CHav5qN/pQB//Z;" parent="1" vertex="1">
          <mxGeometry x="165.93" y="150" width="58.13" height="100" as="geometry" />
        </mxCell>
      </root>
    </mxGraphModel>
  </diagram>
</mxfile>
